<?xml version="1.0" encoding="utf-8"?>
<svg xmlns="http://www.w3.org/2000/svg" xmlns:xlink="http://www.w3.org/1999/xlink" width="600" height="400" viewBox="0 0 2400 1600">
<defs>
  <clipPath id="clip900">
    <rect x="0" y="0" width="2400" height="1600"/>
  </clipPath>
</defs>
<path clip-path="url(#clip900)" d="M0 1600 L2400 1600 L2400 8.88178e-14 L0 8.88178e-14  Z" fill="#ffffff" fill-rule="evenodd" fill-opacity="1"/>
<defs>
  <clipPath id="clip901">
    <rect x="480" y="0" width="1681" height="1600"/>
  </clipPath>
</defs>
<path clip-path="url(#clip900)" d="M462.983 978.186 L2324.41 978.186 L2324.41 292.233 L462.983 292.233  Z" fill="#ffffff" fill-rule="evenodd" fill-opacity="1"/>
<defs>
  <clipPath id="clip902">
    <rect x="462" y="292" width="1862" height="687"/>
  </clipPath>
</defs>
<polyline clip-path="url(#clip902)" style="stroke:#000000; stroke-linecap:round; stroke-linejoin:round; stroke-width:3.2; stroke-opacity:0.1; fill:none" points="885.967,978.186 885.967,292.233 "/>
<polyline clip-path="url(#clip902)" style="stroke:#000000; stroke-linecap:round; stroke-linejoin:round; stroke-width:3.2; stroke-opacity:0.1; fill:none" points="1694.92,978.186 1694.92,292.233 "/>
<polyline clip-path="url(#clip902)" style="stroke:#000000; stroke-linecap:round; stroke-linejoin:round; stroke-width:3.2; stroke-opacity:0.1; fill:none" points="885.967,978.186 885.967,292.233 "/>
<polyline clip-path="url(#clip902)" style="stroke:#000000; stroke-linecap:round; stroke-linejoin:round; stroke-width:3.2; stroke-opacity:0.1; fill:none" points="1694.92,978.186 1694.92,292.233 "/>
<polyline clip-path="url(#clip902)" style="stroke:#000000; stroke-linecap:round; stroke-linejoin:round; stroke-width:3.2; stroke-opacity:0.1; fill:none" points="462.983,947.006 2324.41,947.006 "/>
<polyline clip-path="url(#clip902)" style="stroke:#000000; stroke-linecap:round; stroke-linejoin:round; stroke-width:3.2; stroke-opacity:0.1; fill:none" points="462.983,635.21 2324.41,635.21 "/>
<polyline clip-path="url(#clip902)" style="stroke:#000000; stroke-linecap:round; stroke-linejoin:round; stroke-width:3.2; stroke-opacity:0.1; fill:none" points="462.983,323.413 2324.41,323.413 "/>
<polyline clip-path="url(#clip902)" style="stroke:#000000; stroke-linecap:round; stroke-linejoin:round; stroke-width:3.2; stroke-opacity:0.1; fill:none" points="462.983,947.006 2324.41,947.006 "/>
<polyline clip-path="url(#clip902)" style="stroke:#000000; stroke-linecap:round; stroke-linejoin:round; stroke-width:3.2; stroke-opacity:0.1; fill:none" points="462.983,635.21 2324.41,635.21 "/>
<polyline clip-path="url(#clip902)" style="stroke:#000000; stroke-linecap:round; stroke-linejoin:round; stroke-width:3.2; stroke-opacity:0.1; fill:none" points="462.983,323.413 2324.41,323.413 "/>
<polyline clip-path="url(#clip900)" style="stroke:#000000; stroke-linecap:round; stroke-linejoin:round; stroke-width:6.4; stroke-opacity:1; fill:none" points="462.983,978.186 2324.41,978.186 "/>
<polyline clip-path="url(#clip900)" style="stroke:#000000; stroke-linecap:round; stroke-linejoin:round; stroke-width:6.4; stroke-opacity:1; fill:none" points="462.983,292.233 2324.41,292.233 "/>
<polyline clip-path="url(#clip900)" style="stroke:#000000; stroke-linecap:round; stroke-linejoin:round; stroke-width:6.4; stroke-opacity:1; fill:none" points="885.967,978.186 885.967,966.604 "/>
<polyline clip-path="url(#clip900)" style="stroke:#000000; stroke-linecap:round; stroke-linejoin:round; stroke-width:6.4; stroke-opacity:1; fill:none" points="1694.92,978.186 1694.92,966.604 "/>
<polyline clip-path="url(#clip900)" style="stroke:#000000; stroke-linecap:round; stroke-linejoin:round; stroke-width:6.4; stroke-opacity:1; fill:none" points="885.967,292.233 885.967,303.815 "/>
<polyline clip-path="url(#clip900)" style="stroke:#000000; stroke-linecap:round; stroke-linejoin:round; stroke-width:6.4; stroke-opacity:1; fill:none" points="1694.92,292.233 1694.92,303.815 "/>
<polyline clip-path="url(#clip900)" style="stroke:#000000; stroke-linecap:round; stroke-linejoin:round; stroke-width:6.4; stroke-opacity:1; fill:none" points="462.983,978.186 462.983,972.395 "/>
<polyline clip-path="url(#clip900)" style="stroke:#000000; stroke-linecap:round; stroke-linejoin:round; stroke-width:6.4; stroke-opacity:1; fill:none" points="564.052,978.186 564.052,972.395 "/>
<polyline clip-path="url(#clip900)" style="stroke:#000000; stroke-linecap:round; stroke-linejoin:round; stroke-width:6.4; stroke-opacity:1; fill:none" points="642.448,978.186 642.448,972.395 "/>
<polyline clip-path="url(#clip900)" style="stroke:#000000; stroke-linecap:round; stroke-linejoin:round; stroke-width:6.4; stroke-opacity:1; fill:none" points="706.502,978.186 706.502,972.395 "/>
<polyline clip-path="url(#clip900)" style="stroke:#000000; stroke-linecap:round; stroke-linejoin:round; stroke-width:6.4; stroke-opacity:1; fill:none" points="760.659,978.186 760.659,972.395 "/>
<polyline clip-path="url(#clip900)" style="stroke:#000000; stroke-linecap:round; stroke-linejoin:round; stroke-width:6.4; stroke-opacity:1; fill:none" points="807.572,978.186 807.572,972.395 "/>
<polyline clip-path="url(#clip900)" style="stroke:#000000; stroke-linecap:round; stroke-linejoin:round; stroke-width:6.4; stroke-opacity:1; fill:none" points="848.952,978.186 848.952,972.395 "/>
<polyline clip-path="url(#clip900)" style="stroke:#000000; stroke-linecap:round; stroke-linejoin:round; stroke-width:6.4; stroke-opacity:1; fill:none" points="1129.49,978.186 1129.49,972.395 "/>
<polyline clip-path="url(#clip900)" style="stroke:#000000; stroke-linecap:round; stroke-linejoin:round; stroke-width:6.4; stroke-opacity:1; fill:none" points="1271.94,978.186 1271.94,972.395 "/>
<polyline clip-path="url(#clip900)" style="stroke:#000000; stroke-linecap:round; stroke-linejoin:round; stroke-width:6.4; stroke-opacity:1; fill:none" points="1373.01,978.186 1373.01,972.395 "/>
<polyline clip-path="url(#clip900)" style="stroke:#000000; stroke-linecap:round; stroke-linejoin:round; stroke-width:6.4; stroke-opacity:1; fill:none" points="1451.4,978.186 1451.4,972.395 "/>
<polyline clip-path="url(#clip900)" style="stroke:#000000; stroke-linecap:round; stroke-linejoin:round; stroke-width:6.4; stroke-opacity:1; fill:none" points="1515.46,978.186 1515.46,972.395 "/>
<polyline clip-path="url(#clip900)" style="stroke:#000000; stroke-linecap:round; stroke-linejoin:round; stroke-width:6.4; stroke-opacity:1; fill:none" points="1569.61,978.186 1569.61,972.395 "/>
<polyline clip-path="url(#clip900)" style="stroke:#000000; stroke-linecap:round; stroke-linejoin:round; stroke-width:6.4; stroke-opacity:1; fill:none" points="1616.53,978.186 1616.53,972.395 "/>
<polyline clip-path="url(#clip900)" style="stroke:#000000; stroke-linecap:round; stroke-linejoin:round; stroke-width:6.4; stroke-opacity:1; fill:none" points="1657.91,978.186 1657.91,972.395 "/>
<polyline clip-path="url(#clip900)" style="stroke:#000000; stroke-linecap:round; stroke-linejoin:round; stroke-width:6.4; stroke-opacity:1; fill:none" points="1938.44,978.186 1938.44,972.395 "/>
<polyline clip-path="url(#clip900)" style="stroke:#000000; stroke-linecap:round; stroke-linejoin:round; stroke-width:6.4; stroke-opacity:1; fill:none" points="2080.89,978.186 2080.89,972.395 "/>
<polyline clip-path="url(#clip900)" style="stroke:#000000; stroke-linecap:round; stroke-linejoin:round; stroke-width:6.4; stroke-opacity:1; fill:none" points="2181.96,978.186 2181.96,972.395 "/>
<polyline clip-path="url(#clip900)" style="stroke:#000000; stroke-linecap:round; stroke-linejoin:round; stroke-width:6.4; stroke-opacity:1; fill:none" points="2260.36,978.186 2260.36,972.395 "/>
<polyline clip-path="url(#clip900)" style="stroke:#000000; stroke-linecap:round; stroke-linejoin:round; stroke-width:6.4; stroke-opacity:1; fill:none" points="2324.41,978.186 2324.41,972.395 "/>
<polyline clip-path="url(#clip900)" style="stroke:#000000; stroke-linecap:round; stroke-linejoin:round; stroke-width:6.4; stroke-opacity:1; fill:none" points="462.983,292.233 462.983,298.024 "/>
<polyline clip-path="url(#clip900)" style="stroke:#000000; stroke-linecap:round; stroke-linejoin:round; stroke-width:6.4; stroke-opacity:1; fill:none" points="564.052,292.233 564.052,298.024 "/>
<polyline clip-path="url(#clip900)" style="stroke:#000000; stroke-linecap:round; stroke-linejoin:round; stroke-width:6.4; stroke-opacity:1; fill:none" points="642.448,292.233 642.448,298.024 "/>
<polyline clip-path="url(#clip900)" style="stroke:#000000; stroke-linecap:round; stroke-linejoin:round; stroke-width:6.4; stroke-opacity:1; fill:none" points="706.502,292.233 706.502,298.024 "/>
<polyline clip-path="url(#clip900)" style="stroke:#000000; stroke-linecap:round; stroke-linejoin:round; stroke-width:6.4; stroke-opacity:1; fill:none" points="760.659,292.233 760.659,298.024 "/>
<polyline clip-path="url(#clip900)" style="stroke:#000000; stroke-linecap:round; stroke-linejoin:round; stroke-width:6.4; stroke-opacity:1; fill:none" points="807.572,292.233 807.572,298.024 "/>
<polyline clip-path="url(#clip900)" style="stroke:#000000; stroke-linecap:round; stroke-linejoin:round; stroke-width:6.4; stroke-opacity:1; fill:none" points="848.952,292.233 848.952,298.024 "/>
<polyline clip-path="url(#clip900)" style="stroke:#000000; stroke-linecap:round; stroke-linejoin:round; stroke-width:6.4; stroke-opacity:1; fill:none" points="1129.49,292.233 1129.49,298.024 "/>
<polyline clip-path="url(#clip900)" style="stroke:#000000; stroke-linecap:round; stroke-linejoin:round; stroke-width:6.4; stroke-opacity:1; fill:none" points="1271.94,292.233 1271.94,298.024 "/>
<polyline clip-path="url(#clip900)" style="stroke:#000000; stroke-linecap:round; stroke-linejoin:round; stroke-width:6.4; stroke-opacity:1; fill:none" points="1373.01,292.233 1373.01,298.024 "/>
<polyline clip-path="url(#clip900)" style="stroke:#000000; stroke-linecap:round; stroke-linejoin:round; stroke-width:6.4; stroke-opacity:1; fill:none" points="1451.4,292.233 1451.4,298.024 "/>
<polyline clip-path="url(#clip900)" style="stroke:#000000; stroke-linecap:round; stroke-linejoin:round; stroke-width:6.4; stroke-opacity:1; fill:none" points="1515.46,292.233 1515.46,298.024 "/>
<polyline clip-path="url(#clip900)" style="stroke:#000000; stroke-linecap:round; stroke-linejoin:round; stroke-width:6.4; stroke-opacity:1; fill:none" points="1569.61,292.233 1569.61,298.024 "/>
<polyline clip-path="url(#clip900)" style="stroke:#000000; stroke-linecap:round; stroke-linejoin:round; stroke-width:6.4; stroke-opacity:1; fill:none" points="1616.53,292.233 1616.53,298.024 "/>
<polyline clip-path="url(#clip900)" style="stroke:#000000; stroke-linecap:round; stroke-linejoin:round; stroke-width:6.4; stroke-opacity:1; fill:none" points="1657.91,292.233 1657.91,298.024 "/>
<polyline clip-path="url(#clip900)" style="stroke:#000000; stroke-linecap:round; stroke-linejoin:round; stroke-width:6.4; stroke-opacity:1; fill:none" points="1938.44,292.233 1938.44,298.024 "/>
<polyline clip-path="url(#clip900)" style="stroke:#000000; stroke-linecap:round; stroke-linejoin:round; stroke-width:6.4; stroke-opacity:1; fill:none" points="2080.89,292.233 2080.89,298.024 "/>
<polyline clip-path="url(#clip900)" style="stroke:#000000; stroke-linecap:round; stroke-linejoin:round; stroke-width:6.4; stroke-opacity:1; fill:none" points="2181.96,292.233 2181.96,298.024 "/>
<polyline clip-path="url(#clip900)" style="stroke:#000000; stroke-linecap:round; stroke-linejoin:round; stroke-width:6.4; stroke-opacity:1; fill:none" points="2260.36,292.233 2260.36,298.024 "/>
<polyline clip-path="url(#clip900)" style="stroke:#000000; stroke-linecap:round; stroke-linejoin:round; stroke-width:6.4; stroke-opacity:1; fill:none" points="2324.41,292.233 2324.41,298.024 "/>
<path clip-path="url(#clip900)" d="M829.94 1085.27 L842.162 1085.27 L842.162 1043.08 L828.866 1045.75 L828.866 1038.93 L842.088 1036.27 L849.569 1036.27 L849.569 1085.27 L861.792 1085.27 L861.792 1091.56 L829.94 1091.56 L829.94 1085.27 Z" fill="#000000" fill-rule="nonzero" fill-opacity="1" /><path clip-path="url(#clip900)" d="M892.903 1041.19 Q887.125 1041.19 884.199 1046.9 Q881.31 1052.56 881.31 1063.97 Q881.31 1075.34 884.199 1081.04 Q887.125 1086.71 892.903 1086.71 Q898.717 1086.71 901.606 1081.04 Q904.532 1075.34 904.532 1063.97 Q904.532 1052.56 901.606 1046.9 Q898.717 1041.19 892.903 1041.19 M892.903 1035.27 Q902.199 1035.27 907.088 1042.64 Q912.014 1049.97 912.014 1063.97 Q912.014 1077.93 907.088 1085.3 Q902.199 1092.64 892.903 1092.64 Q883.606 1092.64 878.68 1085.3 Q873.792 1077.93 873.792 1063.97 Q873.792 1049.97 878.68 1042.64 Q883.606 1035.27 892.903 1035.27 Z" fill="#000000" fill-rule="nonzero" fill-opacity="1" /><path clip-path="url(#clip900)" d="M927.541 1006.78 Q922.847 1006.78 920.469 1011.41 Q918.122 1016.02 918.122 1025.29 Q918.122 1034.52 920.469 1039.16 Q922.847 1043.76 927.541 1043.76 Q932.266 1043.76 934.613 1039.16 Q936.99 1034.52 936.99 1025.29 Q936.99 1016.02 934.613 1011.41 Q932.266 1006.78 927.541 1006.78 M927.541 1001.96 Q935.094 1001.96 939.067 1007.95 Q943.069 1013.91 943.069 1025.29 Q943.069 1036.63 939.067 1042.62 Q935.094 1048.58 927.541 1048.58 Q919.988 1048.58 915.986 1042.62 Q912.014 1036.63 912.014 1025.29 Q912.014 1013.91 915.986 1007.95 Q919.988 1001.96 927.541 1001.96 Z" fill="#000000" fill-rule="nonzero" fill-opacity="1" /><path clip-path="url(#clip900)" d="M1641.05 1085.27 L1653.27 1085.27 L1653.27 1043.08 L1639.97 1045.75 L1639.97 1038.93 L1653.19 1036.27 L1660.67 1036.27 L1660.67 1085.27 L1672.9 1085.27 L1672.9 1091.56 L1641.05 1091.56 L1641.05 1085.27 Z" fill="#000000" fill-rule="nonzero" fill-opacity="1" /><path clip-path="url(#clip900)" d="M1704.01 1041.19 Q1698.23 1041.19 1695.3 1046.9 Q1692.42 1052.56 1692.42 1063.97 Q1692.42 1075.34 1695.3 1081.04 Q1698.23 1086.71 1704.01 1086.71 Q1709.82 1086.71 1712.71 1081.04 Q1715.64 1075.34 1715.64 1063.97 Q1715.64 1052.56 1712.71 1046.9 Q1709.82 1041.19 1704.01 1041.19 M1704.01 1035.27 Q1713.3 1035.27 1718.19 1042.64 Q1723.12 1049.97 1723.12 1063.97 Q1723.12 1077.93 1718.19 1085.3 Q1713.3 1092.64 1704.01 1092.64 Q1694.71 1092.64 1689.79 1085.3 Q1684.9 1077.93 1684.9 1063.97 Q1684.9 1049.97 1689.79 1042.64 Q1694.71 1035.27 1704.01 1035.27 Z" fill="#000000" fill-rule="nonzero" fill-opacity="1" /><path clip-path="url(#clip900)" d="M1723.99 1042.59 L1733.92 1042.59 L1733.92 1008.31 L1723.12 1010.48 L1723.12 1004.94 L1733.86 1002.78 L1739.94 1002.78 L1739.94 1042.59 L1749.87 1042.59 L1749.87 1047.71 L1723.99 1047.71 L1723.99 1042.59 Z" fill="#000000" fill-rule="nonzero" fill-opacity="1" /><path clip-path="url(#clip900)" d="M1255.35 1152.28 Q1255.35 1155.22 1253.54 1156.97 Q1251.79 1158.72 1249.57 1158.72 Q1247.62 1158.72 1246.59 1157.59 Q1245.56 1156.45 1245.56 1155.01 Q1245.56 1154.39 1245.81 1153.62 Q1246.07 1152.79 1246.64 1151.82 Q1247.26 1150.84 1248.54 1150.11 Q1249.83 1149.39 1251.58 1149.29 Q1251.22 1148.93 1251.12 1148.88 Q1250.35 1148.26 1248.9 1148.05 Q1248.7 1147.95 1247.98 1147.95 Q1244.42 1147.95 1240.81 1150.58 Q1237.26 1153.15 1232.88 1158.05 Q1227.37 1163.77 1223.81 1165.88 Q1239.42 1167.94 1239.42 1176.96 Q1239.42 1178.46 1239.01 1180.26 Q1238.19 1183.66 1238.19 1186.13 Q1238.19 1191.08 1241.54 1191.08 Q1244.78 1191.08 1246.84 1187.78 Q1248.96 1184.48 1250.71 1178.04 Q1250.97 1176.86 1251.22 1176.5 Q1251.48 1176.14 1252.2 1176.14 Q1253.49 1176.14 1253.49 1177.17 Q1252.31 1183.2 1249.68 1187.83 Q1246.33 1193.45 1241.33 1193.45 Q1237.16 1193.45 1234.37 1190.57 Q1231.64 1187.63 1231.64 1182.99 Q1231.64 1181.86 1232.05 1179.28 Q1232.36 1178.25 1232.36 1177.06 Q1232.36 1174.64 1231.02 1172.84 Q1229.68 1170.98 1227.52 1170.06 Q1225.36 1169.13 1223.55 1168.72 Q1221.8 1168.25 1220.1 1168.1 Q1214.95 1189.9 1214.23 1191.24 Q1213.76 1192.16 1212.73 1192.78 Q1211.7 1193.45 1210.62 1193.45 Q1209.59 1193.45 1208.56 1192.73 Q1207.58 1192.06 1207.58 1190.46 Q1207.58 1189.64 1207.99 1188.14 L1223.29 1127.34 L1223.6 1125.28 Q1223.6 1124.66 1223.35 1124.35 Q1223.14 1123.99 1221.9 1123.73 Q1220.72 1123.47 1218.35 1123.47 Q1217.37 1123.47 1216.9 1123.42 Q1216.49 1123.37 1216.13 1123.11 Q1215.77 1122.8 1215.77 1122.19 Q1215.77 1121.31 1216.13 1120.85 Q1216.54 1120.33 1216.85 1120.23 Q1217.16 1120.12 1217.78 1120.07 Q1218.66 1120.02 1221.59 1119.76 Q1224.53 1119.45 1227.06 1119.25 Q1229.58 1119.04 1230.66 1119.04 Q1231.28 1119.04 1231.59 1119.35 Q1231.95 1119.61 1232 1119.92 L1232.05 1120.18 L1221.08 1164.7 Q1225.61 1162.89 1232.78 1154.91 Q1241.07 1145.63 1248.18 1145.63 Q1251.53 1145.63 1253.44 1147.69 Q1255.35 1149.7 1255.35 1152.28 Z" fill="#000000" fill-rule="nonzero" fill-opacity="1" /><path clip-path="url(#clip900)" d="M1326.67 1202.27 Q1326.67 1202.56 1326.34 1203.67 Q1326.02 1204.79 1325.22 1206.52 Q1324.46 1208.26 1323.38 1209.84 Q1322.34 1211.39 1320.61 1212.55 Q1318.91 1213.67 1316.96 1213.67 Q1314.37 1213.67 1312.63 1211.93 Q1310.9 1210.2 1310.9 1207.61 Q1310.9 1206.2 1311.88 1203.53 Q1316.46 1191.34 1316.46 1186.97 Q1316.46 1181.82 1312.45 1181.82 Q1310.18 1181.82 1308.12 1182.75 Q1306.07 1183.69 1304.73 1184.99 Q1303.4 1186.29 1302.35 1187.77 Q1301.31 1189.25 1300.84 1190.22 Q1300.41 1191.19 1300.3 1191.63 L1295.86 1209.45 Q1295.5 1210.96 1295.25 1211.68 Q1295 1212.4 1294.31 1213.02 Q1293.62 1213.67 1292.54 1213.67 Q1291.64 1213.67 1290.99 1213.12 Q1290.38 1212.58 1290.38 1211.65 Q1290.38 1211.5 1290.56 1210.74 Q1290.74 1209.99 1290.99 1208.94 Q1291.24 1207.89 1291.35 1207.28 Q1292.65 1202.38 1292.83 1201.69 L1294.89 1193.11 Q1296.01 1188.85 1296.01 1186.97 Q1296.01 1181.82 1292 1181.82 Q1290.02 1181.82 1288.14 1182.57 Q1286.3 1183.29 1285.04 1184.3 Q1283.78 1185.31 1282.62 1186.72 Q1281.5 1188.09 1280.93 1189.03 Q1280.39 1189.93 1279.95 1190.83 L1279.02 1194.51 Q1278.8 1195.52 1277.75 1199.45 L1276.13 1206.13 Q1274.98 1211.1 1274.72 1211.57 Q1274.36 1212.58 1273.57 1213.12 Q1272.78 1213.67 1271.98 1213.67 Q1271.08 1213.67 1270.47 1213.12 Q1269.85 1212.58 1269.85 1211.65 Q1269.85 1211.5 1269.96 1210.96 Q1270.07 1210.42 1270.25 1209.66 Q1270.43 1208.9 1270.5 1208.47 L1274.8 1191.41 Q1275.59 1188.31 1275.77 1187.33 Q1275.99 1186.32 1275.99 1185.21 Q1275.99 1181.82 1273.68 1181.82 Q1271.8 1181.82 1270.58 1184.05 Q1269.35 1186.29 1268.3 1190.62 Q1267.98 1191.81 1267.76 1192.06 Q1267.58 1192.31 1267.04 1192.31 Q1266.14 1192.28 1266.14 1191.55 Q1266.14 1191.37 1266.43 1190.22 Q1266.72 1189.07 1267.26 1187.33 Q1267.83 1185.57 1268.45 1184.41 Q1268.81 1183.66 1269.13 1183.15 Q1269.46 1182.65 1270.11 1181.85 Q1270.76 1181.06 1271.73 1180.63 Q1272.7 1180.19 1273.89 1180.19 Q1276.53 1180.19 1278.47 1181.89 Q1280.46 1183.58 1280.71 1186.61 Q1285.51 1180.19 1292.22 1180.19 Q1296.01 1180.19 1298.28 1182.1 Q1300.41 1183.94 1300.66 1187.33 Q1305.64 1180.19 1312.71 1180.19 Q1316.78 1180.19 1318.98 1182.32 Q1321.18 1184.41 1321.18 1188.09 Q1321.18 1190 1320.21 1193.65 Q1319.23 1197.25 1318.59 1199.06 Q1317.94 1200.86 1316.67 1204.32 Q1315.34 1207.64 1315.34 1209.59 Q1315.34 1210.85 1315.77 1211.43 Q1316.2 1212.01 1317.14 1212.01 Q1318.59 1212.01 1319.85 1211.18 Q1321.11 1210.31 1322.01 1208.9 Q1322.95 1207.46 1323.56 1206.02 Q1324.18 1204.54 1324.65 1202.88 Q1324.93 1201.98 1325.08 1201.76 Q1325.26 1201.55 1325.76 1201.55 Q1326.67 1201.55 1326.67 1202.27 Z" fill="#000000" fill-rule="nonzero" fill-opacity="1" /><path clip-path="url(#clip900)" d="M1365.09 1202.27 Q1364.12 1206.92 1362.85 1209.59 Q1360.83 1213.67 1357.41 1213.67 Q1354.81 1213.67 1352.97 1212.08 Q1351.13 1210.49 1350.7 1208.11 Q1345.97 1213.67 1341.07 1213.67 Q1336.74 1213.67 1334 1210.38 Q1331.26 1207.07 1331.26 1201.83 Q1331.26 1196.57 1333.85 1191.52 Q1336.49 1186.47 1340.63 1183.33 Q1344.78 1180.19 1349.04 1180.19 Q1353.55 1180.19 1355.86 1184.92 Q1356.04 1183.62 1356.87 1182.65 Q1357.7 1181.67 1358.96 1181.67 Q1359.93 1181.67 1360.51 1182.21 Q1361.09 1182.72 1361.09 1183.66 Q1361.09 1184.12 1360.58 1186.18 L1357.91 1196.5 L1356.29 1203.17 Q1355.68 1205.62 1355.5 1206.52 Q1355.35 1207.43 1355.35 1208.62 Q1355.35 1212.01 1357.55 1212.01 Q1358.63 1212.01 1359.5 1211.32 Q1360.36 1210.64 1361.05 1209.19 Q1361.74 1207.75 1362.17 1206.42 Q1362.6 1205.05 1363.18 1202.88 Q1363.36 1202.02 1363.5 1201.8 Q1363.68 1201.55 1364.19 1201.55 Q1365.09 1201.55 1365.09 1202.27 M1354.95 1188.31 Q1354.95 1187.98 1354.7 1187.08 Q1354.45 1186.18 1353.87 1184.92 Q1353.3 1183.66 1352.03 1182.75 Q1350.81 1181.82 1349.15 1181.82 Q1346.91 1181.82 1344.57 1183.73 Q1342.26 1185.64 1340.56 1188.89 Q1339.26 1191.48 1337.86 1196.93 Q1336.49 1202.38 1336.49 1205.08 Q1336.49 1206.74 1336.85 1208.22 Q1337.24 1209.66 1338.36 1210.85 Q1339.48 1212.01 1341.21 1212.01 Q1345.43 1212.01 1349.58 1206.78 Q1350.37 1205.87 1350.55 1205.51 Q1350.77 1205.12 1351.06 1204.04 L1354.74 1189.57 Q1354.95 1188.49 1354.95 1188.31 Z" fill="#000000" fill-rule="nonzero" fill-opacity="1" /><path clip-path="url(#clip900)" d="M1404.96 1185.06 Q1404.96 1187.08 1403.7 1188.24 Q1402.44 1189.35 1400.99 1189.35 Q1399.62 1189.35 1398.9 1188.56 Q1398.18 1187.77 1398.18 1186.76 Q1398.18 1185.39 1399.19 1184.2 Q1400.2 1183.01 1401.72 1182.75 Q1400.24 1181.82 1398.04 1181.82 Q1396.59 1181.82 1395.33 1182.57 Q1394.1 1183.33 1393.35 1184.3 Q1392.63 1185.28 1391.98 1186.69 Q1391.36 1188.06 1391.11 1188.89 Q1390.89 1189.68 1390.71 1190.54 L1388.19 1200.64 Q1386.96 1205.44 1386.96 1207.14 Q1386.96 1209.23 1387.97 1210.64 Q1388.98 1212.01 1391 1212.01 Q1391.8 1212.01 1392.7 1211.79 Q1393.6 1211.54 1394.75 1210.89 Q1395.94 1210.2 1396.99 1209.19 Q1398.07 1208.15 1399.12 1206.38 Q1400.16 1204.61 1400.85 1202.34 Q1401.07 1201.55 1401.79 1201.55 Q1402.69 1201.55 1402.69 1202.27 Q1402.69 1202.88 1402.18 1204.18 Q1401.72 1205.44 1400.67 1207.1 Q1399.66 1208.72 1398.33 1210.2 Q1396.99 1211.65 1395.01 1212.66 Q1393.02 1213.67 1390.86 1213.67 Q1387.76 1213.67 1385.7 1212.01 Q1383.64 1210.35 1382.89 1208.04 Q1382.71 1208.36 1382.45 1208.8 Q1382.2 1209.23 1381.44 1210.2 Q1380.72 1211.14 1379.89 1211.86 Q1379.06 1212.55 1377.76 1213.09 Q1376.5 1213.67 1375.13 1213.67 Q1373.4 1213.67 1371.85 1213.16 Q1370.33 1212.66 1369.25 1211.5 Q1368.17 1210.35 1368.17 1208.76 Q1368.17 1206.99 1369.36 1205.77 Q1370.59 1204.5 1372.25 1204.5 Q1373.29 1204.5 1374.12 1205.12 Q1374.99 1205.73 1374.99 1207.07 Q1374.99 1208.54 1373.98 1209.66 Q1372.97 1210.78 1371.52 1211.07 Q1373 1212.01 1375.2 1212.01 Q1377.58 1212.01 1379.46 1209.91 Q1381.34 1207.82 1382.24 1204.32 Q1384.47 1195.92 1385.34 1192.17 Q1386.21 1188.38 1386.21 1186.76 Q1386.21 1185.24 1385.81 1184.2 Q1385.41 1183.15 1384.73 1182.68 Q1384.08 1182.18 1383.46 1182 Q1382.89 1181.82 1382.24 1181.82 Q1381.16 1181.82 1379.93 1182.25 Q1378.74 1182.68 1377.3 1183.69 Q1375.89 1184.67 1374.55 1186.69 Q1373.22 1188.71 1372.32 1191.48 Q1372.14 1192.31 1371.34 1192.31 Q1370.48 1192.28 1370.48 1191.55 Q1370.48 1190.94 1370.95 1189.68 Q1371.45 1188.38 1372.46 1186.76 Q1373.51 1185.13 1374.84 1183.69 Q1376.21 1182.21 1378.2 1181.2 Q1380.22 1180.19 1382.38 1180.19 Q1383.36 1180.19 1384.29 1180.41 Q1385.27 1180.59 1386.42 1181.13 Q1387.61 1181.67 1388.66 1182.86 Q1389.7 1184.05 1390.35 1185.78 Q1390.79 1184.95 1391.36 1184.16 Q1391.98 1183.37 1392.91 1182.39 Q1393.89 1181.38 1395.22 1180.81 Q1396.59 1180.19 1398.11 1180.19 Q1399.59 1180.19 1401.03 1180.59 Q1402.47 1180.95 1403.7 1182.14 Q1404.96 1183.29 1404.96 1185.06 Z" fill="#000000" fill-rule="nonzero" fill-opacity="1" /><path clip-path="url(#clip900)" d="M1421.27 1217.15 Q1421.27 1216.64 1421.68 1215.51 L1458.93 1115.95 Q1458.93 1115.85 1459.19 1115.28 Q1459.45 1114.71 1459.6 1114.35 Q1459.76 1113.94 1460.07 1113.63 Q1460.43 1113.32 1460.84 1113.32 Q1461.87 1113.32 1461.87 1114.61 Q1461.87 1114.71 1461.56 1115.95 L1424.2 1215.61 Q1423.58 1217.41 1423.17 1217.93 Q1422.81 1218.44 1422.19 1218.44 Q1421.27 1218.44 1421.27 1217.15 Z" fill="#000000" fill-rule="nonzero" fill-opacity="1" /><path clip-path="url(#clip900)" d="M1521.29 1152.28 Q1521.29 1155.22 1519.49 1156.97 Q1517.74 1158.72 1515.52 1158.72 Q1513.56 1158.72 1512.53 1157.59 Q1511.5 1156.45 1511.5 1155.01 Q1511.5 1154.39 1511.76 1153.62 Q1512.02 1152.79 1512.58 1151.82 Q1513.2 1150.84 1514.49 1150.11 Q1515.78 1149.39 1517.53 1149.29 Q1517.17 1148.93 1517.07 1148.88 Q1516.29 1148.26 1514.85 1148.05 Q1514.64 1147.95 1513.92 1147.95 Q1510.37 1147.95 1506.76 1150.58 Q1503.2 1153.15 1498.82 1158.05 Q1493.31 1163.77 1489.76 1165.88 Q1505.37 1167.94 1505.37 1176.96 Q1505.37 1178.46 1504.96 1180.26 Q1504.13 1183.66 1504.13 1186.13 Q1504.13 1191.08 1507.48 1191.08 Q1510.73 1191.08 1512.79 1187.78 Q1514.9 1184.48 1516.65 1178.04 Q1516.91 1176.86 1517.17 1176.5 Q1517.43 1176.14 1518.15 1176.14 Q1519.44 1176.14 1519.44 1177.17 Q1518.25 1183.2 1515.62 1187.83 Q1512.27 1193.45 1507.28 1193.45 Q1503.1 1193.45 1500.32 1190.57 Q1497.59 1187.63 1497.59 1182.99 Q1497.59 1181.86 1498 1179.28 Q1498.31 1178.25 1498.31 1177.06 Q1498.31 1174.64 1496.97 1172.84 Q1495.63 1170.98 1493.47 1170.06 Q1491.3 1169.13 1489.5 1168.72 Q1487.75 1168.25 1486.05 1168.1 Q1480.89 1189.9 1480.17 1191.24 Q1479.71 1192.16 1478.68 1192.78 Q1477.65 1193.45 1476.56 1193.45 Q1475.53 1193.45 1474.5 1192.73 Q1473.52 1192.06 1473.52 1190.46 Q1473.52 1189.64 1473.94 1188.14 L1489.24 1127.34 L1489.55 1125.28 Q1489.55 1124.66 1489.29 1124.35 Q1489.09 1123.99 1487.85 1123.73 Q1486.66 1123.47 1484.29 1123.47 Q1483.31 1123.47 1482.85 1123.42 Q1482.44 1123.37 1482.08 1123.11 Q1481.72 1122.8 1481.72 1122.19 Q1481.72 1121.31 1482.08 1120.85 Q1482.49 1120.33 1482.8 1120.23 Q1483.11 1120.12 1483.73 1120.07 Q1484.6 1120.02 1487.54 1119.76 Q1490.48 1119.45 1493 1119.25 Q1495.53 1119.04 1496.61 1119.04 Q1497.23 1119.04 1497.54 1119.35 Q1497.9 1119.61 1497.95 1119.92 L1498 1120.18 L1487.02 1164.7 Q1491.56 1162.89 1498.72 1154.91 Q1507.02 1145.63 1514.13 1145.63 Q1517.48 1145.63 1519.38 1147.69 Q1521.29 1149.7 1521.29 1152.28 Z" fill="#000000" fill-rule="nonzero" fill-opacity="1" /><path clip-path="url(#clip900)" d="M1568.91 1177.39 Q1568.91 1179.37 1567.65 1180.6 Q1566.42 1181.82 1564.87 1181.82 Q1563.75 1181.82 1562.92 1181.14 Q1562.13 1180.45 1562.13 1179.26 Q1562.13 1178.04 1563.07 1176.74 Q1564.01 1175.44 1566.14 1175.26 Q1564.73 1173.92 1562.49 1173.92 Q1561.37 1173.92 1560.44 1174.65 Q1559.53 1175.33 1559.03 1176.45 Q1558.49 1177.6 1557.26 1184.13 Q1556.87 1186.26 1556.5 1188.32 Q1556.14 1190.37 1555.71 1192.54 L1561.84 1192.54 Q1562.64 1192.54 1562.96 1192.57 Q1563.29 1192.61 1563.54 1192.79 Q1563.83 1192.97 1563.83 1193.37 Q1563.83 1194.38 1563.36 1194.63 Q1562.92 1194.84 1561.63 1194.84 L1555.28 1194.84 L1550.84 1218.25 Q1550.73 1218.94 1550.26 1221.1 Q1549.83 1223.23 1548.79 1226.73 Q1547.74 1230.27 1546.69 1232.36 Q1546.12 1233.55 1545.36 1234.67 Q1544.64 1235.82 1543.59 1236.97 Q1542.54 1238.13 1541.17 1238.81 Q1539.8 1239.54 1538.36 1239.54 Q1535.91 1239.54 1534 1238.17 Q1532.08 1236.79 1532.08 1234.45 Q1532.08 1232.47 1533.31 1231.24 Q1534.57 1230.01 1536.12 1230.01 Q1537.24 1230.01 1538.04 1230.7 Q1538.87 1231.38 1538.87 1232.57 Q1538.87 1233.08 1538.69 1233.66 Q1538.51 1234.23 1538.11 1234.88 Q1537.71 1235.57 1536.85 1236.04 Q1535.98 1236.51 1534.79 1236.58 Q1536.2 1237.91 1538.36 1237.91 Q1539.05 1237.91 1539.66 1237.62 Q1540.27 1237.37 1540.78 1236.72 Q1541.32 1236.07 1541.72 1235.42 Q1542.11 1234.81 1542.51 1233.62 Q1542.91 1232.47 1543.16 1231.6 Q1543.41 1230.73 1543.74 1229.18 Q1544.1 1227.63 1544.28 1226.69 Q1544.46 1225.79 1544.78 1224.03 L1550.3 1194.84 L1545.43 1194.84 Q1544.56 1194.84 1544.2 1194.81 Q1543.88 1194.77 1543.63 1194.59 Q1543.37 1194.38 1543.37 1193.94 Q1543.37 1193.26 1543.66 1192.97 Q1543.99 1192.64 1544.35 1192.61 Q1544.71 1192.54 1545.57 1192.54 L1550.7 1192.54 Q1552.43 1183.41 1553.11 1180.96 Q1553.91 1178.36 1555.13 1176.56 Q1556.36 1174.72 1557.73 1173.85 Q1559.1 1172.99 1560.22 1172.66 Q1561.37 1172.3 1562.49 1172.3 Q1565.02 1172.3 1566.96 1173.67 Q1568.91 1175.01 1568.91 1177.39 Z" fill="#000000" fill-rule="nonzero" fill-opacity="1" /><polyline clip-path="url(#clip900)" style="stroke:#000000; stroke-linecap:round; stroke-linejoin:round; stroke-width:6.4; stroke-opacity:1; fill:none" points="462.983,978.186 462.983,292.233 "/>
<polyline clip-path="url(#clip900)" style="stroke:#000000; stroke-linecap:round; stroke-linejoin:round; stroke-width:6.4; stroke-opacity:1; fill:none" points="2324.41,978.186 2324.41,292.233 "/>
<polyline clip-path="url(#clip900)" style="stroke:#000000; stroke-linecap:round; stroke-linejoin:round; stroke-width:6.4; stroke-opacity:1; fill:none" points="462.983,947.006 481.88,947.006 "/>
<polyline clip-path="url(#clip900)" style="stroke:#000000; stroke-linecap:round; stroke-linejoin:round; stroke-width:6.4; stroke-opacity:1; fill:none" points="462.983,635.21 481.88,635.21 "/>
<polyline clip-path="url(#clip900)" style="stroke:#000000; stroke-linecap:round; stroke-linejoin:round; stroke-width:6.4; stroke-opacity:1; fill:none" points="462.983,323.413 481.88,323.413 "/>
<polyline clip-path="url(#clip900)" style="stroke:#000000; stroke-linecap:round; stroke-linejoin:round; stroke-width:6.4; stroke-opacity:1; fill:none" points="2324.41,947.006 2305.51,947.006 "/>
<polyline clip-path="url(#clip900)" style="stroke:#000000; stroke-linecap:round; stroke-linejoin:round; stroke-width:6.4; stroke-opacity:1; fill:none" points="2324.41,635.21 2305.51,635.21 "/>
<polyline clip-path="url(#clip900)" style="stroke:#000000; stroke-linecap:round; stroke-linejoin:round; stroke-width:6.4; stroke-opacity:1; fill:none" points="2324.41,323.413 2305.51,323.413 "/>
<path clip-path="url(#clip900)" d="M335.502 924.284 Q329.724 924.284 326.798 929.988 Q323.909 935.655 323.909 947.062 Q323.909 958.432 326.798 964.136 Q329.724 969.802 335.502 969.802 Q341.316 969.802 344.205 964.136 Q347.131 958.432 347.131 947.062 Q347.131 935.655 344.205 929.988 Q341.316 924.284 335.502 924.284 M335.502 918.358 Q344.798 918.358 349.687 925.729 Q354.613 933.062 354.613 947.062 Q354.613 961.025 349.687 968.395 Q344.798 975.728 335.502 975.728 Q326.205 975.728 321.28 968.395 Q316.391 961.025 316.391 947.062 Q316.391 933.062 321.28 925.729 Q326.205 918.358 335.502 918.358 Z" fill="#000000" fill-rule="nonzero" fill-opacity="1" /><path clip-path="url(#clip900)" d="M367.761 965.247 L375.576 965.247 L375.576 974.654 L367.761 974.654 L367.761 965.247 Z" fill="#000000" fill-rule="nonzero" fill-opacity="1" /><path clip-path="url(#clip900)" d="M407.872 924.284 Q402.094 924.284 399.168 929.988 Q396.279 935.655 396.279 947.062 Q396.279 958.432 399.168 964.136 Q402.094 969.802 407.872 969.802 Q413.686 969.802 416.575 964.136 Q419.501 958.432 419.501 947.062 Q419.501 935.655 416.575 929.988 Q413.686 924.284 407.872 924.284 M407.872 918.358 Q417.168 918.358 422.057 925.729 Q426.983 933.062 426.983 947.062 Q426.983 961.025 422.057 968.395 Q417.168 975.728 407.872 975.728 Q398.575 975.728 393.649 968.395 Q388.761 961.025 388.761 947.062 Q388.761 933.062 393.649 925.729 Q398.575 918.358 407.872 918.358 Z" fill="#000000" fill-rule="nonzero" fill-opacity="1" /><path clip-path="url(#clip900)" d="M337.094 612.487 Q331.316 612.487 328.391 618.191 Q325.502 623.858 325.502 635.265 Q325.502 646.635 328.391 652.339 Q331.316 658.006 337.094 658.006 Q342.909 658.006 345.798 652.339 Q348.724 646.635 348.724 635.265 Q348.724 623.858 345.798 618.191 Q342.909 612.487 337.094 612.487 M337.094 606.562 Q346.39 606.562 351.279 613.932 Q356.205 621.265 356.205 635.265 Q356.205 649.228 351.279 656.598 Q346.39 663.932 337.094 663.932 Q327.798 663.932 322.872 656.598 Q317.983 649.228 317.983 635.265 Q317.983 621.265 322.872 613.932 Q327.798 606.562 337.094 606.562 Z" fill="#000000" fill-rule="nonzero" fill-opacity="1" /><path clip-path="url(#clip900)" d="M369.353 653.45 L377.168 653.45 L377.168 662.858 L369.353 662.858 L369.353 653.45 Z" fill="#000000" fill-rule="nonzero" fill-opacity="1" /><path clip-path="url(#clip900)" d="M393.538 607.562 L422.909 607.562 L422.909 613.858 L400.39 613.858 L400.39 627.413 Q402.02 626.858 403.649 626.598 Q405.279 626.302 406.909 626.302 Q416.168 626.302 421.575 631.376 Q426.983 636.45 426.983 645.117 Q426.983 654.043 421.427 659.006 Q415.872 663.932 405.761 663.932 Q402.279 663.932 398.649 663.339 Q395.057 662.746 391.205 661.561 L391.205 654.043 Q394.538 655.858 398.094 656.746 Q401.649 657.635 405.612 657.635 Q412.02 657.635 415.76 654.265 Q419.501 650.895 419.501 645.117 Q419.501 639.339 415.76 635.969 Q412.02 632.598 405.612 632.598 Q402.612 632.598 399.612 633.265 Q396.649 633.932 393.538 635.339 L393.538 607.562 Z" fill="#000000" fill-rule="nonzero" fill-opacity="1" /><path clip-path="url(#clip900)" d="M320.798 344.764 L333.02 344.764 L333.02 302.58 L319.724 305.246 L319.724 298.431 L332.946 295.765 L340.428 295.765 L340.428 344.764 L352.65 344.764 L352.65 351.061 L320.798 351.061 L320.798 344.764 Z" fill="#000000" fill-rule="nonzero" fill-opacity="1" /><path clip-path="url(#clip900)" d="M367.761 341.653 L375.576 341.653 L375.576 351.061 L367.761 351.061 L367.761 341.653 Z" fill="#000000" fill-rule="nonzero" fill-opacity="1" /><path clip-path="url(#clip900)" d="M407.872 300.691 Q402.094 300.691 399.168 306.394 Q396.279 312.061 396.279 323.468 Q396.279 334.839 399.168 340.542 Q402.094 346.209 407.872 346.209 Q413.686 346.209 416.575 340.542 Q419.501 334.839 419.501 323.468 Q419.501 312.061 416.575 306.394 Q413.686 300.691 407.872 300.691 M407.872 294.765 Q417.168 294.765 422.057 302.135 Q426.983 309.468 426.983 323.468 Q426.983 337.431 422.057 344.802 Q417.168 352.135 407.872 352.135 Q398.575 352.135 393.649 344.802 Q388.761 337.431 388.761 323.468 Q388.761 309.468 393.649 302.135 Q398.575 294.765 407.872 294.765 Z" fill="#000000" fill-rule="nonzero" fill-opacity="1" /><path clip-path="url(#clip900)" d="M285.175 678.256 Q286.051 678.256 286.669 678.874 Q287.287 679.492 287.287 680.368 Q287.287 681.863 285.896 682.378 L235.243 702.011 Q235.037 702.114 234.521 702.114 Q234.006 702.114 233.8 702.011 L183.146 682.378 Q181.755 681.863 181.755 680.368 Q181.755 679.492 182.373 678.874 Q182.992 678.256 183.868 678.256 Q184.383 678.256 184.589 678.359 L234.521 697.785 L284.453 678.359 Q284.659 678.256 285.175 678.256 Z" fill="#000000" fill-rule="nonzero" fill-opacity="1" /><path clip-path="url(#clip900)" d="M231.12 606.355 Q238.644 606.355 245.909 610.168 Q253.175 613.93 257.658 619.856 Q262.089 625.782 262.089 631.811 Q262.089 635.418 260.131 637.84 Q258.122 640.21 255.288 641.498 Q258.792 642.477 267.191 644.59 Q275.59 646.703 276.415 646.703 Q276.878 646.703 277.084 646.6 Q277.291 646.496 277.548 646.033 Q277.857 645.569 277.96 644.435 Q278.115 643.302 278.115 641.395 Q278.115 640.416 278.115 640.055 Q278.167 639.643 278.424 639.282 Q278.682 638.87 279.249 638.87 Q281.361 638.87 281.361 640.777 Q281.361 642.477 281.207 645.981 Q281.052 649.485 281.052 651.237 Q281.052 652.732 281.207 655.72 Q281.361 658.709 281.361 660.1 Q281.361 661.492 280.125 661.492 Q279.403 661.492 278.94 661.285 Q278.527 661.131 278.321 660.719 Q278.167 660.306 278.115 659.946 Q278.115 659.636 278.115 659.018 Q278.115 656.648 277.703 655.617 Q277.342 654.587 276.569 654.226 Q275.848 653.814 273.787 653.35 L226.792 641.498 Q223.649 640.777 221.433 640.777 Q218.65 640.777 217.62 641.653 Q216.589 642.529 216.589 644.075 Q216.589 646.754 219.784 648.506 Q222.979 650.258 229.162 651.752 Q230.863 652.216 231.223 652.525 Q231.584 652.783 231.584 653.556 Q231.533 654.844 230.502 654.844 Q230.244 654.844 228.595 654.432 Q226.895 654.02 224.421 653.247 Q221.897 652.422 220.299 651.546 Q219.217 651.031 218.496 650.567 Q217.774 650.104 216.641 649.176 Q215.507 648.197 214.889 646.806 Q214.27 645.414 214.27 643.714 Q214.27 640.416 216.228 637.685 Q218.186 634.954 222.154 634.232 Q218.702 631.295 216.486 627.688 Q214.27 624.081 214.27 620.423 Q214.27 614.342 219.011 610.374 Q223.7 606.355 231.12 606.355 M226.483 613.981 Q221.793 613.981 219.217 615.785 Q216.589 617.537 216.589 620.732 Q216.589 624.7 220.608 629.286 Q224.421 633.82 227.977 634.748 L248.64 639.952 L250.341 640.261 Q250.65 640.261 251.577 640.107 Q252.453 639.901 253.896 639.334 Q255.339 638.716 256.627 637.891 Q257.864 637.015 258.792 635.469 Q259.719 633.872 259.719 631.914 Q259.719 628.77 256.937 625.369 Q254.154 621.917 248.898 619.34 Q245.497 617.743 238.18 615.888 Q230.811 613.981 226.483 613.981 Z" fill="#000000" fill-rule="nonzero" fill-opacity="1" /><path clip-path="url(#clip900)" d="M233.8 585.224 Q234.006 585.121 234.521 585.121 Q235.037 585.121 235.243 585.224 L285.896 604.857 Q287.287 605.372 287.287 606.815 Q287.287 607.691 286.669 608.309 Q286.051 608.928 285.175 608.928 Q284.659 608.928 284.453 608.824 L234.521 589.449 L184.589 608.824 Q184.383 608.928 183.868 608.928 Q182.992 608.928 182.373 608.309 Q181.755 607.691 181.755 606.815 Q181.755 605.372 183.146 604.857 L233.8 585.224 Z" fill="#000000" fill-rule="nonzero" fill-opacity="1" /><polyline clip-path="url(#clip902)" style="stroke:#e26f46; stroke-linecap:round; stroke-linejoin:round; stroke-width:6.4; stroke-opacity:1; fill:none" points="2235.2,323.413 1096,323.413 852.483,385.772 673.017,367.164 530.568,947.006 "/>
<circle clip-path="url(#clip902)" cx="2235.2" cy="323.413" r="23.04" fill="#e26f46" fill-rule="evenodd" fill-opacity="1" stroke="none"/>
<circle clip-path="url(#clip902)" cx="1096" cy="323.413" r="23.04" fill="#e26f46" fill-rule="evenodd" fill-opacity="1" stroke="none"/>
<circle clip-path="url(#clip902)" cx="852.483" cy="385.772" r="23.04" fill="#e26f46" fill-rule="evenodd" fill-opacity="1" stroke="none"/>
<circle clip-path="url(#clip902)" cx="673.017" cy="367.164" r="23.04" fill="#e26f46" fill-rule="evenodd" fill-opacity="1" stroke="none"/>
<circle clip-path="url(#clip902)" cx="530.568" cy="947.006" r="23.04" fill="#e26f46" fill-rule="evenodd" fill-opacity="1" stroke="none"/>
<polyline clip-path="url(#clip902)" style="stroke:#e26f46; stroke-linecap:round; stroke-linejoin:round; stroke-width:6.4; stroke-opacity:1; fill:none" points="2235.2,323.413 2235.2,323.413 "/>
<polyline clip-path="url(#clip902)" style="stroke:#e26f46; stroke-linecap:round; stroke-linejoin:round; stroke-width:6.4; stroke-opacity:1; fill:none" points="1096,323.413 1096,323.413 "/>
<polyline clip-path="url(#clip902)" style="stroke:#e26f46; stroke-linecap:round; stroke-linejoin:round; stroke-width:6.4; stroke-opacity:1; fill:none" points="852.483,582.97 852.483,188.574 "/>
<polyline clip-path="url(#clip902)" style="stroke:#e26f46; stroke-linecap:round; stroke-linejoin:round; stroke-width:6.4; stroke-opacity:1; fill:none" points="673.017,505.518 673.017,228.81 "/>
<polyline clip-path="url(#clip902)" style="stroke:#e26f46; stroke-linecap:round; stroke-linejoin:round; stroke-width:6.4; stroke-opacity:1; fill:none" points="530.568,947.006 530.568,947.006 "/>
<line clip-path="url(#clip902)" x1="2260.8" y1="323.413" x2="2209.6" y2="323.413" style="stroke:#e26f46; stroke-width:6.4; stroke-opacity:1"/>
<line clip-path="url(#clip902)" x1="2260.8" y1="323.413" x2="2209.6" y2="323.413" style="stroke:#e26f46; stroke-width:6.4; stroke-opacity:1"/>
<line clip-path="url(#clip902)" x1="1121.6" y1="323.413" x2="1070.4" y2="323.413" style="stroke:#e26f46; stroke-width:6.4; stroke-opacity:1"/>
<line clip-path="url(#clip902)" x1="1121.6" y1="323.413" x2="1070.4" y2="323.413" style="stroke:#e26f46; stroke-width:6.4; stroke-opacity:1"/>
<line clip-path="url(#clip902)" x1="878.083" y1="582.97" x2="826.883" y2="582.97" style="stroke:#e26f46; stroke-width:6.4; stroke-opacity:1"/>
<line clip-path="url(#clip902)" x1="698.617" y1="505.518" x2="647.417" y2="505.518" style="stroke:#e26f46; stroke-width:6.4; stroke-opacity:1"/>
<line clip-path="url(#clip902)" x1="556.168" y1="947.006" x2="504.968" y2="947.006" style="stroke:#e26f46; stroke-width:6.4; stroke-opacity:1"/>
<line clip-path="url(#clip902)" x1="556.168" y1="947.006" x2="504.968" y2="947.006" style="stroke:#e26f46; stroke-width:6.4; stroke-opacity:1"/>
<polyline clip-path="url(#clip902)" style="stroke:#009af9; stroke-linecap:round; stroke-linejoin:round; stroke-width:6.4; stroke-opacity:1; fill:none" stroke-dasharray="26, 16" points="2235.2,323.413 1096,323.413 852.483,323.413 673.017,323.413 530.568,616.527 "/>
<path clip-path="url(#clip902)" d="M2235.2 297.813 L2209.6 323.413 L2235.2 349.013 L2260.8 323.413 L2235.2 297.813 Z" fill="#009af9" fill-rule="evenodd" fill-opacity="1" stroke="none"/>
<path clip-path="url(#clip902)" d="M1096 297.813 L1070.4 323.413 L1096 349.013 L1121.6 323.413 L1096 297.813 Z" fill="#009af9" fill-rule="evenodd" fill-opacity="1" stroke="none"/>
<path clip-path="url(#clip902)" d="M852.483 297.813 L826.883 323.413 L852.483 349.013 L878.083 323.413 L852.483 297.813 Z" fill="#009af9" fill-rule="evenodd" fill-opacity="1" stroke="none"/>
<path clip-path="url(#clip902)" d="M673.017 297.813 L647.417 323.413 L673.017 349.013 L698.617 323.413 L673.017 297.813 Z" fill="#009af9" fill-rule="evenodd" fill-opacity="1" stroke="none"/>
<path clip-path="url(#clip902)" d="M530.568 590.927 L504.968 616.527 L530.568 642.127 L556.168 616.527 L530.568 590.927 Z" fill="#009af9" fill-rule="evenodd" fill-opacity="1" stroke="none"/>
<polyline clip-path="url(#clip902)" style="stroke:#009af9; stroke-linecap:round; stroke-linejoin:round; stroke-width:6.4; stroke-opacity:1; fill:none" stroke-dasharray="26, 16" points="2235.2,323.413 2235.2,323.413 "/>
<polyline clip-path="url(#clip902)" style="stroke:#009af9; stroke-linecap:round; stroke-linejoin:round; stroke-width:6.4; stroke-opacity:1; fill:none" stroke-dasharray="26, 16" points="1096,323.413 1096,323.413 "/>
<polyline clip-path="url(#clip902)" style="stroke:#009af9; stroke-linecap:round; stroke-linejoin:round; stroke-width:6.4; stroke-opacity:1; fill:none" stroke-dasharray="26, 16" points="852.483,323.413 852.483,323.413 "/>
<polyline clip-path="url(#clip902)" style="stroke:#009af9; stroke-linecap:round; stroke-linejoin:round; stroke-width:6.4; stroke-opacity:1; fill:none" stroke-dasharray="26, 16" points="673.017,323.413 673.017,323.413 "/>
<polyline clip-path="url(#clip902)" style="stroke:#009af9; stroke-linecap:round; stroke-linejoin:round; stroke-width:6.4; stroke-opacity:1; fill:none" stroke-dasharray="26, 16" points="530.568,830.177 530.568,402.876 "/>
<line clip-path="url(#clip902)" x1="2260.8" y1="323.413" x2="2209.6" y2="323.413" style="stroke:#009af9; stroke-width:6.4; stroke-opacity:1"/>
<line clip-path="url(#clip902)" x1="2260.8" y1="323.413" x2="2209.6" y2="323.413" style="stroke:#009af9; stroke-width:6.4; stroke-opacity:1"/>
<line clip-path="url(#clip902)" x1="1121.6" y1="323.413" x2="1070.4" y2="323.413" style="stroke:#009af9; stroke-width:6.4; stroke-opacity:1"/>
<line clip-path="url(#clip902)" x1="1121.6" y1="323.413" x2="1070.4" y2="323.413" style="stroke:#009af9; stroke-width:6.4; stroke-opacity:1"/>
<line clip-path="url(#clip902)" x1="878.083" y1="323.413" x2="826.883" y2="323.413" style="stroke:#009af9; stroke-width:6.4; stroke-opacity:1"/>
<line clip-path="url(#clip902)" x1="878.083" y1="323.413" x2="826.883" y2="323.413" style="stroke:#009af9; stroke-width:6.4; stroke-opacity:1"/>
<line clip-path="url(#clip902)" x1="698.617" y1="323.413" x2="647.417" y2="323.413" style="stroke:#009af9; stroke-width:6.4; stroke-opacity:1"/>
<line clip-path="url(#clip902)" x1="698.617" y1="323.413" x2="647.417" y2="323.413" style="stroke:#009af9; stroke-width:6.4; stroke-opacity:1"/>
<line clip-path="url(#clip902)" x1="556.168" y1="830.177" x2="504.968" y2="830.177" style="stroke:#009af9; stroke-width:6.4; stroke-opacity:1"/>
<line clip-path="url(#clip902)" x1="556.168" y1="402.876" x2="504.968" y2="402.876" style="stroke:#009af9; stroke-width:6.4; stroke-opacity:1"/>
<path clip-path="url(#clip900)" d="M1661.67 940.878 L2262.36 940.878 L2262.36 692.046 L1661.67 692.046  Z" fill="#ffffff" fill-rule="evenodd" fill-opacity="1"/>
<polyline clip-path="url(#clip900)" style="stroke:#000000; stroke-linecap:round; stroke-linejoin:round; stroke-width:6.4; stroke-opacity:1; fill:none" points="1661.67,940.878 2262.36,940.878 2262.36,692.046 1661.67,692.046 1661.67,940.878 "/>
<polyline clip-path="url(#clip900)" style="stroke:#e26f46; stroke-linecap:round; stroke-linejoin:round; stroke-width:6.4; stroke-opacity:1; fill:none" points="1682.35,774.99 1806.44,774.99 "/>
<circle clip-path="url(#clip900)" cx="1744.4" cy="774.99" r="10.7721" fill="#e26f46" fill-rule="evenodd" fill-opacity="1" stroke="none"/>
<path clip-path="url(#clip900)" d="M1852.76 752.416 Q1844.61 752.416 1839.79 758.49 Q1835.01 764.564 1835.01 775.046 Q1835.01 785.49 1839.79 791.564 Q1844.61 797.638 1852.76 797.638 Q1860.9 797.638 1865.64 791.564 Q1870.42 785.49 1870.42 775.046 Q1870.42 764.564 1865.64 758.49 Q1860.9 752.416 1852.76 752.416 M1863.24 801.638 L1873.09 812.416 L1864.05 812.416 L1855.87 803.564 Q1854.64 803.638 1853.98 803.675 Q1853.35 803.712 1852.76 803.712 Q1841.09 803.712 1834.09 795.934 Q1827.13 788.12 1827.13 775.046 Q1827.13 761.935 1834.09 754.157 Q1841.09 746.342 1852.76 746.342 Q1864.39 746.342 1871.35 754.157 Q1878.31 761.935 1878.31 775.046 Q1878.31 784.675 1874.42 791.527 Q1870.57 798.379 1863.24 801.638 Z" fill="#000000" fill-rule="nonzero" fill-opacity="1" /><path clip-path="url(#clip900)" d="M1888.38 778.823 L1908.35 778.823 L1908.35 784.897 L1888.38 784.897 L1888.38 778.823 Z" fill="#000000" fill-rule="nonzero" fill-opacity="1" /><path clip-path="url(#clip900)" d="M1919.2 745.009 L1926.01 745.009 L1926.01 802.638 L1919.2 802.638 L1919.2 745.009 Z" fill="#000000" fill-rule="nonzero" fill-opacity="1" /><path clip-path="url(#clip900)" d="M1975.75 780.194 L1975.75 783.527 L1944.42 783.527 Q1944.87 790.564 1948.64 794.268 Q1952.46 797.934 1959.24 797.934 Q1963.16 797.934 1966.83 796.971 Q1970.53 796.008 1974.16 794.083 L1974.16 800.527 Q1970.5 802.082 1966.64 802.897 Q1962.79 803.712 1958.83 803.712 Q1948.9 803.712 1943.09 797.934 Q1937.31 792.157 1937.31 782.305 Q1937.31 772.12 1942.79 766.157 Q1948.31 760.157 1957.64 760.157 Q1966.01 760.157 1970.87 765.564 Q1975.75 770.935 1975.75 780.194 M1968.94 778.194 Q1968.87 772.601 1965.79 769.268 Q1962.75 765.935 1957.72 765.935 Q1952.01 765.935 1948.57 769.157 Q1945.16 772.379 1944.64 778.231 L1968.94 778.194 Z" fill="#000000" fill-rule="nonzero" fill-opacity="1" /><path clip-path="url(#clip900)" d="M2005.79 781.786 Q1997.53 781.786 1994.35 783.675 Q1991.16 785.564 1991.16 790.12 Q1991.16 793.749 1993.53 795.897 Q1995.94 798.008 2000.05 798.008 Q2005.72 798.008 2009.13 794.008 Q2012.57 789.971 2012.57 783.305 L2012.57 781.786 L2005.79 781.786 M2019.38 778.972 L2019.38 802.638 L2012.57 802.638 L2012.57 796.342 Q2010.24 800.12 2006.75 801.934 Q2003.27 803.712 1998.24 803.712 Q1991.87 803.712 1988.09 800.157 Q1984.35 796.564 1984.35 790.564 Q1984.35 783.564 1989.01 780.009 Q1993.72 776.453 2003.01 776.453 L2012.57 776.453 L2012.57 775.786 Q2012.57 771.083 2009.46 768.527 Q2006.38 765.935 2000.79 765.935 Q1997.24 765.935 1993.87 766.786 Q1990.5 767.638 1987.38 769.342 L1987.38 763.046 Q1991.13 761.601 1994.64 760.898 Q1998.16 760.157 2001.5 760.157 Q2010.5 760.157 2014.94 764.823 Q2019.38 769.49 2019.38 778.972 Z" fill="#000000" fill-rule="nonzero" fill-opacity="1" /><path clip-path="url(#clip900)" d="M2057.46 767.527 Q2056.31 766.86 2054.94 766.564 Q2053.61 766.231 2051.98 766.231 Q2046.2 766.231 2043.09 770.009 Q2040.01 773.749 2040.01 780.786 L2040.01 802.638 L2033.16 802.638 L2033.16 761.157 L2040.01 761.157 L2040.01 767.601 Q2042.16 763.823 2045.61 762.009 Q2049.05 760.157 2053.98 760.157 Q2054.68 760.157 2055.53 760.268 Q2056.38 760.342 2057.42 760.527 L2057.46 767.527 Z" fill="#000000" fill-rule="nonzero" fill-opacity="1" /><path clip-path="url(#clip900)" d="M2097.75 777.601 L2097.75 802.638 L2090.94 802.638 L2090.94 777.823 Q2090.94 771.935 2088.64 769.009 Q2086.35 766.083 2081.75 766.083 Q2076.24 766.083 2073.05 769.601 Q2069.87 773.12 2069.87 779.194 L2069.87 802.638 L2063.01 802.638 L2063.01 761.157 L2069.87 761.157 L2069.87 767.601 Q2072.31 763.86 2075.61 762.009 Q2078.94 760.157 2083.27 760.157 Q2090.42 760.157 2094.09 764.601 Q2097.75 769.009 2097.75 777.601 Z" fill="#000000" fill-rule="nonzero" fill-opacity="1" /><path clip-path="url(#clip900)" d="M2111.35 761.157 L2118.16 761.157 L2118.16 802.638 L2111.35 802.638 L2111.35 761.157 M2111.35 745.009 L2118.16 745.009 L2118.16 753.638 L2111.35 753.638 L2111.35 745.009 Z" fill="#000000" fill-rule="nonzero" fill-opacity="1" /><path clip-path="url(#clip900)" d="M2166.9 777.601 L2166.9 802.638 L2160.09 802.638 L2160.09 777.823 Q2160.09 771.935 2157.79 769.009 Q2155.49 766.083 2150.9 766.083 Q2145.38 766.083 2142.2 769.601 Q2139.01 773.12 2139.01 779.194 L2139.01 802.638 L2132.16 802.638 L2132.16 761.157 L2139.01 761.157 L2139.01 767.601 Q2141.46 763.86 2144.75 762.009 Q2148.09 760.157 2152.42 760.157 Q2159.57 760.157 2163.24 764.601 Q2166.9 769.009 2166.9 777.601 Z" fill="#000000" fill-rule="nonzero" fill-opacity="1" /><path clip-path="url(#clip900)" d="M2207.79 781.416 Q2207.79 774.009 2204.72 769.935 Q2201.68 765.86 2196.16 765.86 Q2190.68 765.86 2187.61 769.935 Q2184.57 774.009 2184.57 781.416 Q2184.57 788.786 2187.61 792.86 Q2190.68 796.934 2196.16 796.934 Q2201.68 796.934 2204.72 792.86 Q2207.79 788.786 2207.79 781.416 M2214.61 797.49 Q2214.61 808.082 2209.9 813.231 Q2205.2 818.416 2195.49 818.416 Q2191.9 818.416 2188.72 817.86 Q2185.53 817.342 2182.53 816.231 L2182.53 809.601 Q2185.53 811.231 2188.46 812.008 Q2191.38 812.786 2194.42 812.786 Q2201.12 812.786 2204.46 809.268 Q2207.79 805.786 2207.79 798.712 L2207.79 795.342 Q2205.68 799.008 2202.38 800.823 Q2199.09 802.638 2194.49 802.638 Q2186.86 802.638 2182.2 796.823 Q2177.53 791.008 2177.53 781.416 Q2177.53 771.786 2182.2 765.972 Q2186.86 760.157 2194.49 760.157 Q2199.09 760.157 2202.38 761.972 Q2205.68 763.786 2207.79 767.453 L2207.79 761.157 L2214.61 761.157 L2214.61 797.49 Z" fill="#000000" fill-rule="nonzero" fill-opacity="1" /><polyline clip-path="url(#clip900)" style="stroke:#009af9; stroke-linecap:round; stroke-linejoin:round; stroke-width:6.4; stroke-opacity:1; fill:none" stroke-dasharray="26, 16" points="1682.35,857.934 1806.44,857.934 "/>
<path clip-path="url(#clip900)" d="M1744.4 845.965 L1732.43 857.934 L1744.4 869.903 L1756.37 857.934 L1744.4 845.965 Z" fill="#009af9" fill-rule="evenodd" fill-opacity="1" stroke="none"/>
<path clip-path="url(#clip900)" d="M1852.46 837.656 L1842.31 865.175 L1862.64 865.175 L1852.46 837.656 M1848.24 830.286 L1856.72 830.286 L1877.79 885.582 L1870.01 885.582 L1864.98 871.397 L1840.05 871.397 L1835.01 885.582 L1827.13 885.582 L1848.24 830.286 Z" fill="#000000" fill-rule="nonzero" fill-opacity="1" /><path clip-path="url(#clip900)" d="M1914.09 845.693 L1914.09 852.064 Q1911.2 850.471 1908.27 849.693 Q1905.38 848.879 1902.42 848.879 Q1895.79 848.879 1892.13 853.101 Q1888.46 857.286 1888.46 864.878 Q1888.46 872.471 1892.13 876.693 Q1895.79 880.878 1902.42 880.878 Q1905.38 880.878 1908.27 880.101 Q1911.2 879.286 1914.09 877.693 L1914.09 883.989 Q1911.24 885.323 1908.16 885.989 Q1905.13 886.656 1901.68 886.656 Q1892.31 886.656 1886.79 880.767 Q1881.27 874.878 1881.27 864.878 Q1881.27 854.73 1886.83 848.916 Q1892.42 843.101 1902.13 843.101 Q1905.27 843.101 1908.27 843.767 Q1911.27 844.397 1914.09 845.693 Z" fill="#000000" fill-rule="nonzero" fill-opacity="1" /><path clip-path="url(#clip900)" d="M1932.68 832.323 L1932.68 844.101 L1946.72 844.101 L1946.72 849.397 L1932.68 849.397 L1932.68 871.915 Q1932.68 876.99 1934.05 878.434 Q1935.46 879.878 1939.72 879.878 L1946.72 879.878 L1946.72 885.582 L1939.72 885.582 Q1931.83 885.582 1928.83 882.656 Q1925.83 879.693 1925.83 871.915 L1925.83 849.397 L1920.83 849.397 L1920.83 844.101 L1925.83 844.101 L1925.83 832.323 L1932.68 832.323 Z" fill="#000000" fill-rule="nonzero" fill-opacity="1" /><path clip-path="url(#clip900)" d="M1971.75 848.879 Q1966.27 848.879 1963.09 853.175 Q1959.9 857.434 1959.9 864.878 Q1959.9 872.323 1963.05 876.619 Q1966.24 880.878 1971.75 880.878 Q1977.2 880.878 1980.38 876.582 Q1983.57 872.286 1983.57 864.878 Q1983.57 857.508 1980.38 853.212 Q1977.2 848.879 1971.75 848.879 M1971.75 843.101 Q1980.64 843.101 1985.72 848.879 Q1990.79 854.656 1990.79 864.878 Q1990.79 875.064 1985.72 880.878 Q1980.64 886.656 1971.75 886.656 Q1962.83 886.656 1957.75 880.878 Q1952.72 875.064 1952.72 864.878 Q1952.72 854.656 1957.75 848.879 Q1962.83 843.101 1971.75 843.101 Z" fill="#000000" fill-rule="nonzero" fill-opacity="1" /><path clip-path="url(#clip900)" d="M2026.12 850.471 Q2024.98 849.804 2023.61 849.508 Q2022.27 849.175 2020.64 849.175 Q2014.87 849.175 2011.75 852.953 Q2008.68 856.693 2008.68 863.73 L2008.68 885.582 L2001.83 885.582 L2001.83 844.101 L2008.68 844.101 L2008.68 850.545 Q2010.83 846.767 2014.27 844.953 Q2017.72 843.101 2022.64 843.101 Q2023.35 843.101 2024.2 843.212 Q2025.05 843.286 2026.09 843.471 L2026.12 850.471 Z" fill="#000000" fill-rule="nonzero" fill-opacity="1" /><path clip-path="url(#clip900)" d="M2024.98 861.767 L2044.94 861.767 L2044.94 867.841 L2024.98 867.841 L2024.98 861.767 Z" fill="#000000" fill-rule="nonzero" fill-opacity="1" /><path clip-path="url(#clip900)" d="M2097.49 834.545 L2097.49 842.434 Q2093.72 838.916 2089.42 837.175 Q2085.16 835.434 2080.35 835.434 Q2070.87 835.434 2065.83 841.249 Q2060.79 847.027 2060.79 857.99 Q2060.79 868.915 2065.83 874.73 Q2070.87 880.508 2080.35 880.508 Q2085.16 880.508 2089.42 878.767 Q2093.72 877.027 2097.49 873.508 L2097.49 881.323 Q2093.57 883.989 2089.16 885.323 Q2084.79 886.656 2079.9 886.656 Q2067.35 886.656 2060.12 878.989 Q2052.9 871.286 2052.9 857.99 Q2052.9 844.656 2060.12 836.99 Q2067.35 829.286 2079.9 829.286 Q2084.87 829.286 2089.24 830.619 Q2093.64 831.916 2097.49 834.545 Z" fill="#000000" fill-rule="nonzero" fill-opacity="1" /><path clip-path="url(#clip900)" d="M2132.79 850.471 Q2131.64 849.804 2130.27 849.508 Q2128.94 849.175 2127.31 849.175 Q2121.53 849.175 2118.42 852.953 Q2115.35 856.693 2115.35 863.73 L2115.35 885.582 L2108.49 885.582 L2108.49 844.101 L2115.35 844.101 L2115.35 850.545 Q2117.49 846.767 2120.94 844.953 Q2124.38 843.101 2129.31 843.101 Q2130.01 843.101 2130.87 843.212 Q2131.72 843.286 2132.75 843.471 L2132.79 850.471 Z" fill="#000000" fill-rule="nonzero" fill-opacity="1" /><path clip-path="url(#clip900)" d="M2139.94 844.101 L2146.75 844.101 L2146.75 885.582 L2139.94 885.582 L2139.94 844.101 M2139.94 827.953 L2146.75 827.953 L2146.75 836.582 L2139.94 836.582 L2139.94 827.953 Z" fill="#000000" fill-rule="nonzero" fill-opacity="1" /><path clip-path="url(#clip900)" d="M2167.75 832.323 L2167.75 844.101 L2181.79 844.101 L2181.79 849.397 L2167.75 849.397 L2167.75 871.915 Q2167.75 876.99 2169.12 878.434 Q2170.53 879.878 2174.79 879.878 L2181.79 879.878 L2181.79 885.582 L2174.79 885.582 Q2166.9 885.582 2163.9 882.656 Q2160.9 879.693 2160.9 871.915 L2160.9 849.397 L2155.9 849.397 L2155.9 844.101 L2160.9 844.101 L2160.9 832.323 L2167.75 832.323 Z" fill="#000000" fill-rule="nonzero" fill-opacity="1" /><path clip-path="url(#clip900)" d="M2190.75 844.101 L2197.57 844.101 L2197.57 885.582 L2190.75 885.582 L2190.75 844.101 M2190.75 827.953 L2197.57 827.953 L2197.57 836.582 L2190.75 836.582 L2190.75 827.953 Z" fill="#000000" fill-rule="nonzero" fill-opacity="1" /><path clip-path="url(#clip900)" d="M2241.68 845.693 L2241.68 852.064 Q2238.79 850.471 2235.86 849.693 Q2232.98 848.879 2230.01 848.879 Q2223.38 848.879 2219.72 853.101 Q2216.05 857.286 2216.05 864.878 Q2216.05 872.471 2219.72 876.693 Q2223.38 880.878 2230.01 880.878 Q2232.98 880.878 2235.86 880.101 Q2238.79 879.286 2241.68 877.693 L2241.68 883.989 Q2238.83 885.323 2235.75 885.989 Q2232.72 886.656 2229.27 886.656 Q2219.9 886.656 2214.38 880.767 Q2208.86 874.878 2208.86 864.878 Q2208.86 854.73 2214.42 848.916 Q2220.01 843.101 2229.72 843.101 Q2232.86 843.101 2235.86 843.767 Q2238.86 844.397 2241.68 845.693 Z" fill="#000000" fill-rule="nonzero" fill-opacity="1" /></svg>
