<?xml version="1.0" encoding="utf-8"?>
<svg xmlns="http://www.w3.org/2000/svg" xmlns:xlink="http://www.w3.org/1999/xlink" width="600" height="400" viewBox="0 0 2400 1600">
<defs>
  <clipPath id="clip140">
    <rect x="0" y="0" width="2400" height="1600"/>
  </clipPath>
</defs>
<path clip-path="url(#clip140)" d="M0 1600 L2400 1600 L2400 8.88178e-14 L0 8.88178e-14  Z" fill="#ffffff" fill-rule="evenodd" fill-opacity="1"/>
<defs>
  <clipPath id="clip141">
    <rect x="480" y="0" width="1681" height="1600"/>
  </clipPath>
</defs>
<path clip-path="url(#clip140)" d="M462.746 1005.52 L2324.41 1005.52 L2324.41 264.904 L462.746 264.904  Z" fill="#ffffff" fill-rule="evenodd" fill-opacity="1"/>
<defs>
  <clipPath id="clip142">
    <rect x="462" y="264" width="1863" height="742"/>
  </clipPath>
</defs>
<polyline clip-path="url(#clip142)" style="stroke:#000000; stroke-linecap:round; stroke-linejoin:round; stroke-width:3.2; stroke-opacity:0.1; fill:none" points="885.784,1005.52 885.784,264.904 "/>
<polyline clip-path="url(#clip142)" style="stroke:#000000; stroke-linecap:round; stroke-linejoin:round; stroke-width:3.2; stroke-opacity:0.1; fill:none" points="1694.84,1005.52 1694.84,264.904 "/>
<polyline clip-path="url(#clip142)" style="stroke:#000000; stroke-linecap:round; stroke-linejoin:round; stroke-width:3.2; stroke-opacity:0.1; fill:none" points="885.784,1005.52 885.784,264.904 "/>
<polyline clip-path="url(#clip142)" style="stroke:#000000; stroke-linecap:round; stroke-linejoin:round; stroke-width:3.2; stroke-opacity:0.1; fill:none" points="1694.84,1005.52 1694.84,264.904 "/>
<polyline clip-path="url(#clip142)" style="stroke:#000000; stroke-linecap:round; stroke-linejoin:round; stroke-width:3.2; stroke-opacity:0.1; fill:none" points="462.746,966.536 2324.41,966.536 "/>
<polyline clip-path="url(#clip142)" style="stroke:#000000; stroke-linecap:round; stroke-linejoin:round; stroke-width:3.2; stroke-opacity:0.1; fill:none" points="462.746,654.699 2324.41,654.699 "/>
<polyline clip-path="url(#clip142)" style="stroke:#000000; stroke-linecap:round; stroke-linejoin:round; stroke-width:3.2; stroke-opacity:0.1; fill:none" points="462.746,342.863 2324.41,342.863 "/>
<polyline clip-path="url(#clip142)" style="stroke:#000000; stroke-linecap:round; stroke-linejoin:round; stroke-width:3.2; stroke-opacity:0.1; fill:none" points="462.746,966.536 2324.41,966.536 "/>
<polyline clip-path="url(#clip142)" style="stroke:#000000; stroke-linecap:round; stroke-linejoin:round; stroke-width:3.2; stroke-opacity:0.1; fill:none" points="462.746,654.699 2324.41,654.699 "/>
<polyline clip-path="url(#clip142)" style="stroke:#000000; stroke-linecap:round; stroke-linejoin:round; stroke-width:3.2; stroke-opacity:0.1; fill:none" points="462.746,342.863 2324.41,342.863 "/>
<polyline clip-path="url(#clip140)" style="stroke:#000000; stroke-linecap:round; stroke-linejoin:round; stroke-width:6.4; stroke-opacity:1; fill:none" points="462.746,1005.52 2324.41,1005.52 "/>
<polyline clip-path="url(#clip140)" style="stroke:#000000; stroke-linecap:round; stroke-linejoin:round; stroke-width:6.4; stroke-opacity:1; fill:none" points="462.746,264.904 2324.41,264.904 "/>
<polyline clip-path="url(#clip140)" style="stroke:#000000; stroke-linecap:round; stroke-linejoin:round; stroke-width:6.4; stroke-opacity:1; fill:none" points="885.784,1005.52 885.784,993.011 "/>
<polyline clip-path="url(#clip140)" style="stroke:#000000; stroke-linecap:round; stroke-linejoin:round; stroke-width:6.4; stroke-opacity:1; fill:none" points="1694.84,1005.52 1694.84,993.011 "/>
<polyline clip-path="url(#clip140)" style="stroke:#000000; stroke-linecap:round; stroke-linejoin:round; stroke-width:6.4; stroke-opacity:1; fill:none" points="885.784,264.904 885.784,277.408 "/>
<polyline clip-path="url(#clip140)" style="stroke:#000000; stroke-linecap:round; stroke-linejoin:round; stroke-width:6.4; stroke-opacity:1; fill:none" points="1694.84,264.904 1694.84,277.408 "/>
<polyline clip-path="url(#clip140)" style="stroke:#000000; stroke-linecap:round; stroke-linejoin:round; stroke-width:6.4; stroke-opacity:1; fill:none" points="462.746,1005.52 462.746,999.263 "/>
<polyline clip-path="url(#clip140)" style="stroke:#000000; stroke-linecap:round; stroke-linejoin:round; stroke-width:6.4; stroke-opacity:1; fill:none" points="563.828,1005.52 563.828,999.263 "/>
<polyline clip-path="url(#clip140)" style="stroke:#000000; stroke-linecap:round; stroke-linejoin:round; stroke-width:6.4; stroke-opacity:1; fill:none" points="642.234,1005.52 642.234,999.263 "/>
<polyline clip-path="url(#clip140)" style="stroke:#000000; stroke-linecap:round; stroke-linejoin:round; stroke-width:6.4; stroke-opacity:1; fill:none" points="706.296,1005.52 706.296,999.263 "/>
<polyline clip-path="url(#clip140)" style="stroke:#000000; stroke-linecap:round; stroke-linejoin:round; stroke-width:6.4; stroke-opacity:1; fill:none" points="760.46,1005.52 760.46,999.263 "/>
<polyline clip-path="url(#clip140)" style="stroke:#000000; stroke-linecap:round; stroke-linejoin:round; stroke-width:6.4; stroke-opacity:1; fill:none" points="807.378,1005.52 807.378,999.263 "/>
<polyline clip-path="url(#clip140)" style="stroke:#000000; stroke-linecap:round; stroke-linejoin:round; stroke-width:6.4; stroke-opacity:1; fill:none" points="848.764,1005.52 848.764,999.263 "/>
<polyline clip-path="url(#clip140)" style="stroke:#000000; stroke-linecap:round; stroke-linejoin:round; stroke-width:6.4; stroke-opacity:1; fill:none" points="1129.33,1005.52 1129.33,999.263 "/>
<polyline clip-path="url(#clip140)" style="stroke:#000000; stroke-linecap:round; stroke-linejoin:round; stroke-width:6.4; stroke-opacity:1; fill:none" points="1271.8,1005.52 1271.8,999.263 "/>
<polyline clip-path="url(#clip140)" style="stroke:#000000; stroke-linecap:round; stroke-linejoin:round; stroke-width:6.4; stroke-opacity:1; fill:none" points="1372.88,1005.52 1372.88,999.263 "/>
<polyline clip-path="url(#clip140)" style="stroke:#000000; stroke-linecap:round; stroke-linejoin:round; stroke-width:6.4; stroke-opacity:1; fill:none" points="1451.29,1005.52 1451.29,999.263 "/>
<polyline clip-path="url(#clip140)" style="stroke:#000000; stroke-linecap:round; stroke-linejoin:round; stroke-width:6.4; stroke-opacity:1; fill:none" points="1515.35,1005.52 1515.35,999.263 "/>
<polyline clip-path="url(#clip140)" style="stroke:#000000; stroke-linecap:round; stroke-linejoin:round; stroke-width:6.4; stroke-opacity:1; fill:none" points="1569.52,1005.52 1569.52,999.263 "/>
<polyline clip-path="url(#clip140)" style="stroke:#000000; stroke-linecap:round; stroke-linejoin:round; stroke-width:6.4; stroke-opacity:1; fill:none" points="1616.44,1005.52 1616.44,999.263 "/>
<polyline clip-path="url(#clip140)" style="stroke:#000000; stroke-linecap:round; stroke-linejoin:round; stroke-width:6.4; stroke-opacity:1; fill:none" points="1657.82,1005.52 1657.82,999.263 "/>
<polyline clip-path="url(#clip140)" style="stroke:#000000; stroke-linecap:round; stroke-linejoin:round; stroke-width:6.4; stroke-opacity:1; fill:none" points="1938.39,1005.52 1938.39,999.263 "/>
<polyline clip-path="url(#clip140)" style="stroke:#000000; stroke-linecap:round; stroke-linejoin:round; stroke-width:6.4; stroke-opacity:1; fill:none" points="2080.86,1005.52 2080.86,999.263 "/>
<polyline clip-path="url(#clip140)" style="stroke:#000000; stroke-linecap:round; stroke-linejoin:round; stroke-width:6.4; stroke-opacity:1; fill:none" points="2181.94,1005.52 2181.94,999.263 "/>
<polyline clip-path="url(#clip140)" style="stroke:#000000; stroke-linecap:round; stroke-linejoin:round; stroke-width:6.4; stroke-opacity:1; fill:none" points="2260.35,1005.52 2260.35,999.263 "/>
<polyline clip-path="url(#clip140)" style="stroke:#000000; stroke-linecap:round; stroke-linejoin:round; stroke-width:6.4; stroke-opacity:1; fill:none" points="2324.41,1005.52 2324.41,999.263 "/>
<polyline clip-path="url(#clip140)" style="stroke:#000000; stroke-linecap:round; stroke-linejoin:round; stroke-width:6.4; stroke-opacity:1; fill:none" points="462.746,264.904 462.746,271.156 "/>
<polyline clip-path="url(#clip140)" style="stroke:#000000; stroke-linecap:round; stroke-linejoin:round; stroke-width:6.4; stroke-opacity:1; fill:none" points="563.828,264.904 563.828,271.156 "/>
<polyline clip-path="url(#clip140)" style="stroke:#000000; stroke-linecap:round; stroke-linejoin:round; stroke-width:6.4; stroke-opacity:1; fill:none" points="642.234,264.904 642.234,271.156 "/>
<polyline clip-path="url(#clip140)" style="stroke:#000000; stroke-linecap:round; stroke-linejoin:round; stroke-width:6.4; stroke-opacity:1; fill:none" points="706.296,264.904 706.296,271.156 "/>
<polyline clip-path="url(#clip140)" style="stroke:#000000; stroke-linecap:round; stroke-linejoin:round; stroke-width:6.4; stroke-opacity:1; fill:none" points="760.46,264.904 760.46,271.156 "/>
<polyline clip-path="url(#clip140)" style="stroke:#000000; stroke-linecap:round; stroke-linejoin:round; stroke-width:6.4; stroke-opacity:1; fill:none" points="807.378,264.904 807.378,271.156 "/>
<polyline clip-path="url(#clip140)" style="stroke:#000000; stroke-linecap:round; stroke-linejoin:round; stroke-width:6.4; stroke-opacity:1; fill:none" points="848.764,264.904 848.764,271.156 "/>
<polyline clip-path="url(#clip140)" style="stroke:#000000; stroke-linecap:round; stroke-linejoin:round; stroke-width:6.4; stroke-opacity:1; fill:none" points="1129.33,264.904 1129.33,271.156 "/>
<polyline clip-path="url(#clip140)" style="stroke:#000000; stroke-linecap:round; stroke-linejoin:round; stroke-width:6.4; stroke-opacity:1; fill:none" points="1271.8,264.904 1271.8,271.156 "/>
<polyline clip-path="url(#clip140)" style="stroke:#000000; stroke-linecap:round; stroke-linejoin:round; stroke-width:6.4; stroke-opacity:1; fill:none" points="1372.88,264.904 1372.88,271.156 "/>
<polyline clip-path="url(#clip140)" style="stroke:#000000; stroke-linecap:round; stroke-linejoin:round; stroke-width:6.4; stroke-opacity:1; fill:none" points="1451.29,264.904 1451.29,271.156 "/>
<polyline clip-path="url(#clip140)" style="stroke:#000000; stroke-linecap:round; stroke-linejoin:round; stroke-width:6.4; stroke-opacity:1; fill:none" points="1515.35,264.904 1515.35,271.156 "/>
<polyline clip-path="url(#clip140)" style="stroke:#000000; stroke-linecap:round; stroke-linejoin:round; stroke-width:6.4; stroke-opacity:1; fill:none" points="1569.52,264.904 1569.52,271.156 "/>
<polyline clip-path="url(#clip140)" style="stroke:#000000; stroke-linecap:round; stroke-linejoin:round; stroke-width:6.4; stroke-opacity:1; fill:none" points="1616.44,264.904 1616.44,271.156 "/>
<polyline clip-path="url(#clip140)" style="stroke:#000000; stroke-linecap:round; stroke-linejoin:round; stroke-width:6.4; stroke-opacity:1; fill:none" points="1657.82,264.904 1657.82,271.156 "/>
<polyline clip-path="url(#clip140)" style="stroke:#000000; stroke-linecap:round; stroke-linejoin:round; stroke-width:6.4; stroke-opacity:1; fill:none" points="1938.39,264.904 1938.39,271.156 "/>
<polyline clip-path="url(#clip140)" style="stroke:#000000; stroke-linecap:round; stroke-linejoin:round; stroke-width:6.4; stroke-opacity:1; fill:none" points="2080.86,264.904 2080.86,271.156 "/>
<polyline clip-path="url(#clip140)" style="stroke:#000000; stroke-linecap:round; stroke-linejoin:round; stroke-width:6.4; stroke-opacity:1; fill:none" points="2181.94,264.904 2181.94,271.156 "/>
<polyline clip-path="url(#clip140)" style="stroke:#000000; stroke-linecap:round; stroke-linejoin:round; stroke-width:6.4; stroke-opacity:1; fill:none" points="2260.35,264.904 2260.35,271.156 "/>
<polyline clip-path="url(#clip140)" style="stroke:#000000; stroke-linecap:round; stroke-linejoin:round; stroke-width:6.4; stroke-opacity:1; fill:none" points="2324.41,264.904 2324.41,271.156 "/>
<path clip-path="url(#clip140)" d="M829.757 1112.6 L841.979 1112.6 L841.979 1070.41 L828.683 1073.08 L828.683 1066.26 L841.905 1063.6 L849.386 1063.6 L849.386 1112.6 L861.608 1112.6 L861.608 1118.89 L829.757 1118.89 L829.757 1112.6 Z" fill="#000000" fill-rule="nonzero" fill-opacity="1" /><path clip-path="url(#clip140)" d="M892.719 1068.52 Q886.942 1068.52 884.016 1074.22 Q881.127 1079.89 881.127 1091.3 Q881.127 1102.67 884.016 1108.37 Q886.942 1114.04 892.719 1114.04 Q898.534 1114.04 901.423 1108.37 Q904.349 1102.67 904.349 1091.3 Q904.349 1079.89 901.423 1074.22 Q898.534 1068.52 892.719 1068.52 M892.719 1062.6 Q902.016 1062.6 906.904 1069.97 Q911.83 1077.3 911.83 1091.3 Q911.83 1105.26 906.904 1112.63 Q902.016 1119.97 892.719 1119.97 Q883.423 1119.97 878.497 1112.63 Q873.608 1105.26 873.608 1091.3 Q873.608 1077.3 878.497 1069.97 Q883.423 1062.6 892.719 1062.6 Z" fill="#000000" fill-rule="nonzero" fill-opacity="1" /><path clip-path="url(#clip140)" d="M927.358 1034.11 Q922.664 1034.11 920.286 1038.74 Q917.939 1043.35 917.939 1052.62 Q917.939 1061.85 920.286 1066.49 Q922.664 1071.09 927.358 1071.09 Q932.083 1071.09 934.43 1066.49 Q936.807 1061.85 936.807 1052.62 Q936.807 1043.35 934.43 1038.74 Q932.083 1034.11 927.358 1034.11 M927.358 1029.29 Q934.911 1029.29 938.883 1035.28 Q942.886 1041.24 942.886 1052.62 Q942.886 1063.96 938.883 1069.95 Q934.911 1075.91 927.358 1075.91 Q919.805 1075.91 915.803 1069.95 Q911.83 1063.96 911.83 1052.62 Q911.83 1041.24 915.803 1035.28 Q919.805 1029.29 927.358 1029.29 Z" fill="#000000" fill-rule="nonzero" fill-opacity="1" /><path clip-path="url(#clip140)" d="M1640.97 1112.6 L1653.19 1112.6 L1653.19 1070.41 L1639.89 1073.08 L1639.89 1066.26 L1653.11 1063.6 L1660.59 1063.6 L1660.59 1112.6 L1672.82 1112.6 L1672.82 1118.89 L1640.97 1118.89 L1640.97 1112.6 Z" fill="#000000" fill-rule="nonzero" fill-opacity="1" /><path clip-path="url(#clip140)" d="M1703.93 1068.52 Q1698.15 1068.52 1695.22 1074.22 Q1692.34 1079.89 1692.34 1091.3 Q1692.34 1102.67 1695.22 1108.37 Q1698.15 1114.04 1703.93 1114.04 Q1709.74 1114.04 1712.63 1108.37 Q1715.56 1102.67 1715.56 1091.3 Q1715.56 1079.89 1712.63 1074.22 Q1709.74 1068.52 1703.93 1068.52 M1703.93 1062.6 Q1713.22 1062.6 1718.11 1069.97 Q1723.04 1077.3 1723.04 1091.3 Q1723.04 1105.26 1718.11 1112.63 Q1713.22 1119.97 1703.93 1119.97 Q1694.63 1119.97 1689.71 1112.63 Q1684.82 1105.26 1684.82 1091.3 Q1684.82 1077.3 1689.71 1069.97 Q1694.63 1062.6 1703.93 1062.6 Z" fill="#000000" fill-rule="nonzero" fill-opacity="1" /><path clip-path="url(#clip140)" d="M1723.91 1069.92 L1733.84 1069.92 L1733.84 1035.64 L1723.04 1037.81 L1723.04 1032.27 L1733.78 1030.11 L1739.86 1030.11 L1739.86 1069.92 L1749.79 1069.92 L1749.79 1075.03 L1723.91 1075.03 L1723.91 1069.92 Z" fill="#000000" fill-rule="nonzero" fill-opacity="1" /><path clip-path="url(#clip140)" d="M1255.23 1179.61 Q1255.23 1182.55 1253.42 1184.3 Q1251.67 1186.05 1249.46 1186.05 Q1247.5 1186.05 1246.47 1184.92 Q1245.44 1183.78 1245.44 1182.34 Q1245.44 1181.72 1245.69 1180.95 Q1245.95 1180.12 1246.52 1179.14 Q1247.14 1178.17 1248.43 1177.44 Q1249.71 1176.72 1251.47 1176.62 Q1251.1 1176.26 1251 1176.21 Q1250.23 1175.59 1248.79 1175.38 Q1248.58 1175.28 1247.86 1175.28 Q1244.3 1175.28 1240.7 1177.91 Q1237.14 1180.48 1232.76 1185.38 Q1227.25 1191.1 1223.69 1193.21 Q1239.3 1195.27 1239.3 1204.29 Q1239.3 1205.79 1238.89 1207.59 Q1238.07 1210.99 1238.07 1213.46 Q1238.07 1218.41 1241.42 1218.41 Q1244.66 1218.41 1246.72 1215.11 Q1248.84 1211.81 1250.59 1205.37 Q1250.85 1204.19 1251.1 1203.83 Q1251.36 1203.47 1252.08 1203.47 Q1253.37 1203.47 1253.37 1204.5 Q1252.19 1210.53 1249.56 1215.16 Q1246.21 1220.78 1241.21 1220.78 Q1237.04 1220.78 1234.25 1217.89 Q1231.52 1214.96 1231.52 1210.32 Q1231.52 1209.19 1231.94 1206.61 Q1232.25 1205.58 1232.25 1204.39 Q1232.25 1201.97 1230.91 1200.17 Q1229.57 1198.31 1227.4 1197.39 Q1225.24 1196.46 1223.43 1196.05 Q1221.68 1195.58 1219.98 1195.43 Q1214.83 1217.22 1214.11 1218.56 Q1213.64 1219.49 1212.61 1220.11 Q1211.58 1220.78 1210.5 1220.78 Q1209.47 1220.78 1208.44 1220.06 Q1207.46 1219.39 1207.46 1217.79 Q1207.46 1216.97 1207.87 1215.47 L1223.18 1154.67 L1223.49 1152.61 Q1223.49 1151.99 1223.23 1151.68 Q1223.02 1151.32 1221.78 1151.06 Q1220.6 1150.8 1218.23 1150.8 Q1217.25 1150.8 1216.79 1150.75 Q1216.37 1150.7 1216.01 1150.44 Q1215.65 1150.13 1215.65 1149.52 Q1215.65 1148.64 1216.01 1148.18 Q1216.43 1147.66 1216.73 1147.56 Q1217.04 1147.45 1217.66 1147.4 Q1218.54 1147.35 1221.48 1147.09 Q1224.41 1146.78 1226.94 1146.58 Q1229.46 1146.37 1230.54 1146.37 Q1231.16 1146.37 1231.47 1146.68 Q1231.83 1146.94 1231.88 1147.25 L1231.94 1147.51 L1220.96 1192.03 Q1225.49 1190.22 1232.66 1182.24 Q1240.95 1172.96 1248.06 1172.96 Q1251.41 1172.96 1253.32 1175.02 Q1255.23 1177.03 1255.23 1179.61 Z" fill="#000000" fill-rule="nonzero" fill-opacity="1" /><path clip-path="url(#clip140)" d="M1326.55 1229.6 Q1326.55 1229.89 1326.22 1231 Q1325.9 1232.12 1325.1 1233.85 Q1324.35 1235.58 1323.26 1237.17 Q1322.22 1238.72 1320.49 1239.88 Q1318.79 1241 1316.84 1241 Q1314.25 1241 1312.52 1239.26 Q1310.78 1237.53 1310.78 1234.94 Q1310.78 1233.53 1311.76 1230.86 Q1316.34 1218.67 1316.34 1214.3 Q1316.34 1209.15 1312.33 1209.15 Q1310.06 1209.15 1308.01 1210.08 Q1305.95 1211.02 1304.62 1212.32 Q1303.28 1213.62 1302.24 1215.1 Q1301.19 1216.58 1300.72 1217.55 Q1300.29 1218.52 1300.18 1218.96 L1295.74 1236.78 Q1295.38 1238.29 1295.13 1239.01 Q1294.88 1239.73 1294.19 1240.35 Q1293.51 1241 1292.42 1241 Q1291.52 1241 1290.87 1240.45 Q1290.26 1239.91 1290.26 1238.98 Q1290.26 1238.83 1290.44 1238.07 Q1290.62 1237.32 1290.87 1236.27 Q1291.13 1235.22 1291.23 1234.61 Q1292.53 1229.71 1292.71 1229.02 L1294.77 1220.44 Q1295.89 1216.18 1295.89 1214.3 Q1295.89 1209.15 1291.88 1209.15 Q1289.9 1209.15 1288.02 1209.9 Q1286.18 1210.62 1284.92 1211.63 Q1283.66 1212.64 1282.5 1214.05 Q1281.39 1215.42 1280.81 1216.36 Q1280.27 1217.26 1279.84 1218.16 L1278.9 1221.84 Q1278.68 1222.85 1277.64 1226.78 L1276.01 1233.46 Q1274.86 1238.43 1274.61 1238.9 Q1274.24 1239.91 1273.45 1240.45 Q1272.66 1241 1271.86 1241 Q1270.96 1241 1270.35 1240.45 Q1269.74 1239.91 1269.74 1238.98 Q1269.74 1238.83 1269.84 1238.29 Q1269.95 1237.75 1270.13 1236.99 Q1270.31 1236.23 1270.38 1235.8 L1274.68 1218.74 Q1275.47 1215.64 1275.65 1214.66 Q1275.87 1213.65 1275.87 1212.54 Q1275.87 1209.15 1273.56 1209.15 Q1271.68 1209.15 1270.46 1211.38 Q1269.23 1213.62 1268.18 1217.95 Q1267.86 1219.14 1267.64 1219.39 Q1267.46 1219.64 1266.92 1219.64 Q1266.02 1219.61 1266.02 1218.88 Q1266.02 1218.7 1266.31 1217.55 Q1266.6 1216.4 1267.14 1214.66 Q1267.72 1212.9 1268.33 1211.74 Q1268.69 1210.98 1269.01 1210.48 Q1269.34 1209.97 1269.99 1209.18 Q1270.64 1208.39 1271.61 1207.95 Q1272.59 1207.52 1273.78 1207.52 Q1276.41 1207.52 1278.36 1209.22 Q1280.34 1210.91 1280.59 1213.94 Q1285.39 1207.52 1292.1 1207.52 Q1295.89 1207.52 1298.16 1209.43 Q1300.29 1211.27 1300.54 1214.66 Q1305.52 1207.52 1312.59 1207.52 Q1316.66 1207.52 1318.86 1209.65 Q1321.06 1211.74 1321.06 1215.42 Q1321.06 1217.33 1320.09 1220.98 Q1319.12 1224.58 1318.47 1226.39 Q1317.82 1228.19 1316.56 1231.65 Q1315.22 1234.97 1315.22 1236.92 Q1315.22 1238.18 1315.65 1238.76 Q1316.09 1239.34 1317.02 1239.34 Q1318.47 1239.34 1319.73 1238.51 Q1320.99 1237.64 1321.89 1236.23 Q1322.83 1234.79 1323.44 1233.35 Q1324.06 1231.87 1324.53 1230.21 Q1324.82 1229.31 1324.96 1229.09 Q1325.14 1228.88 1325.64 1228.88 Q1326.55 1228.88 1326.55 1229.6 Z" fill="#000000" fill-rule="nonzero" fill-opacity="1" /><path clip-path="url(#clip140)" d="M1364.97 1229.6 Q1364 1234.25 1362.74 1236.92 Q1360.72 1241 1357.29 1241 Q1354.69 1241 1352.85 1239.41 Q1351.01 1237.82 1350.58 1235.44 Q1345.85 1241 1340.95 1241 Q1336.62 1241 1333.88 1237.71 Q1331.14 1234.39 1331.14 1229.16 Q1331.14 1223.9 1333.73 1218.85 Q1336.37 1213.8 1340.52 1210.66 Q1344.66 1207.52 1348.92 1207.52 Q1353.43 1207.52 1355.74 1212.25 Q1355.92 1210.95 1356.75 1209.97 Q1357.58 1209 1358.84 1209 Q1359.81 1209 1360.39 1209.54 Q1360.97 1210.05 1360.97 1210.98 Q1360.97 1211.45 1360.46 1213.51 L1357.79 1223.83 L1356.17 1230.5 Q1355.56 1232.95 1355.38 1233.85 Q1355.23 1234.76 1355.23 1235.95 Q1355.23 1239.34 1357.43 1239.34 Q1358.52 1239.34 1359.38 1238.65 Q1360.25 1237.97 1360.93 1236.52 Q1361.62 1235.08 1362.05 1233.75 Q1362.48 1232.37 1363.06 1230.21 Q1363.24 1229.34 1363.38 1229.13 Q1363.56 1228.88 1364.07 1228.88 Q1364.97 1228.88 1364.97 1229.6 M1354.84 1215.64 Q1354.84 1215.31 1354.58 1214.41 Q1354.33 1213.51 1353.75 1212.25 Q1353.18 1210.98 1351.91 1210.08 Q1350.69 1209.15 1349.03 1209.15 Q1346.79 1209.15 1344.45 1211.06 Q1342.14 1212.97 1340.44 1216.21 Q1339.15 1218.81 1337.74 1224.26 Q1336.37 1229.71 1336.37 1232.41 Q1336.37 1234.07 1336.73 1235.55 Q1337.13 1236.99 1338.24 1238.18 Q1339.36 1239.34 1341.09 1239.34 Q1345.31 1239.34 1349.46 1234.11 Q1350.25 1233.2 1350.44 1232.84 Q1350.65 1232.45 1350.94 1231.36 L1354.62 1216.9 Q1354.84 1215.82 1354.84 1215.64 Z" fill="#000000" fill-rule="nonzero" fill-opacity="1" /><path clip-path="url(#clip140)" d="M1404.84 1212.39 Q1404.84 1214.41 1403.58 1215.57 Q1402.32 1216.68 1400.88 1216.68 Q1399.51 1216.68 1398.78 1215.89 Q1398.06 1215.1 1398.06 1214.09 Q1398.06 1212.72 1399.07 1211.53 Q1400.08 1210.34 1401.6 1210.08 Q1400.12 1209.15 1397.92 1209.15 Q1396.48 1209.15 1395.21 1209.9 Q1393.99 1210.66 1393.23 1211.63 Q1392.51 1212.61 1391.86 1214.01 Q1391.24 1215.39 1390.99 1216.21 Q1390.78 1217.01 1390.6 1217.87 L1388.07 1227.97 Q1386.84 1232.77 1386.84 1234.47 Q1386.84 1236.56 1387.85 1237.97 Q1388.86 1239.34 1390.88 1239.34 Q1391.68 1239.34 1392.58 1239.12 Q1393.48 1238.87 1394.64 1238.22 Q1395.83 1237.53 1396.87 1236.52 Q1397.95 1235.48 1399 1233.71 Q1400.05 1231.94 1400.73 1229.67 Q1400.95 1228.88 1401.67 1228.88 Q1402.57 1228.88 1402.57 1229.6 Q1402.57 1230.21 1402.07 1231.51 Q1401.6 1232.77 1400.55 1234.43 Q1399.54 1236.05 1398.21 1237.53 Q1396.87 1238.98 1394.89 1239.99 Q1392.9 1241 1390.74 1241 Q1387.64 1241 1385.58 1239.34 Q1383.53 1237.68 1382.77 1235.37 Q1382.59 1235.69 1382.34 1236.13 Q1382.08 1236.56 1381.33 1237.53 Q1380.6 1238.47 1379.77 1239.19 Q1378.94 1239.88 1377.65 1240.42 Q1376.38 1241 1375.01 1241 Q1373.28 1241 1371.73 1240.49 Q1370.22 1239.99 1369.13 1238.83 Q1368.05 1237.68 1368.05 1236.09 Q1368.05 1234.32 1369.24 1233.1 Q1370.47 1231.83 1372.13 1231.83 Q1373.17 1231.83 1374 1232.45 Q1374.87 1233.06 1374.87 1234.39 Q1374.87 1235.87 1373.86 1236.99 Q1372.85 1238.11 1371.41 1238.4 Q1372.89 1239.34 1375.09 1239.34 Q1377.47 1239.34 1379.34 1237.24 Q1381.22 1235.15 1382.12 1231.65 Q1384.36 1223.25 1385.22 1219.5 Q1386.09 1215.71 1386.09 1214.09 Q1386.09 1212.57 1385.69 1211.53 Q1385.29 1210.48 1384.61 1210.01 Q1383.96 1209.51 1383.35 1209.33 Q1382.77 1209.15 1382.12 1209.15 Q1381.04 1209.15 1379.81 1209.58 Q1378.62 1210.01 1377.18 1211.02 Q1375.77 1211.99 1374.44 1214.01 Q1373.1 1216.03 1372.2 1218.81 Q1372.02 1219.64 1371.23 1219.64 Q1370.36 1219.61 1370.36 1218.88 Q1370.36 1218.27 1370.83 1217.01 Q1371.33 1215.71 1372.34 1214.09 Q1373.39 1212.46 1374.72 1211.02 Q1376.1 1209.54 1378.08 1208.53 Q1380.1 1207.52 1382.26 1207.52 Q1383.24 1207.52 1384.18 1207.74 Q1385.15 1207.92 1386.3 1208.46 Q1387.49 1209 1388.54 1210.19 Q1389.59 1211.38 1390.23 1213.11 Q1390.67 1212.28 1391.24 1211.49 Q1391.86 1210.7 1392.8 1209.72 Q1393.77 1208.71 1395.1 1208.14 Q1396.48 1207.52 1397.99 1207.52 Q1399.47 1207.52 1400.91 1207.92 Q1402.35 1208.28 1403.58 1209.47 Q1404.84 1210.62 1404.84 1212.39 Z" fill="#000000" fill-rule="nonzero" fill-opacity="1" /><path clip-path="url(#clip140)" d="M1421.15 1244.48 Q1421.15 1243.97 1421.56 1242.83 L1458.82 1143.28 Q1458.82 1143.18 1459.07 1142.61 Q1459.33 1142.04 1459.49 1141.68 Q1459.64 1141.27 1459.95 1140.96 Q1460.31 1140.65 1460.72 1140.65 Q1461.75 1140.65 1461.75 1141.94 Q1461.75 1142.04 1461.44 1143.28 L1424.08 1242.94 Q1423.47 1244.74 1423.05 1245.26 Q1422.69 1245.77 1422.07 1245.77 Q1421.15 1245.77 1421.15 1244.48 Z" fill="#000000" fill-rule="nonzero" fill-opacity="1" /><path clip-path="url(#clip140)" d="M1521.17 1179.61 Q1521.17 1182.55 1519.37 1184.3 Q1517.62 1186.05 1515.4 1186.05 Q1513.44 1186.05 1512.41 1184.92 Q1511.38 1183.78 1511.38 1182.34 Q1511.38 1181.72 1511.64 1180.95 Q1511.9 1180.12 1512.46 1179.14 Q1513.08 1178.17 1514.37 1177.44 Q1515.66 1176.72 1517.41 1176.62 Q1517.05 1176.26 1516.95 1176.21 Q1516.17 1175.59 1514.73 1175.38 Q1514.53 1175.28 1513.8 1175.28 Q1510.25 1175.28 1506.64 1177.91 Q1503.09 1180.48 1498.71 1185.38 Q1493.19 1191.1 1489.64 1193.21 Q1505.25 1195.27 1505.25 1204.29 Q1505.25 1205.79 1504.84 1207.59 Q1504.01 1210.99 1504.01 1213.46 Q1504.01 1218.41 1507.36 1218.41 Q1510.61 1218.41 1512.67 1215.11 Q1514.78 1211.81 1516.54 1205.37 Q1516.79 1204.19 1517.05 1203.83 Q1517.31 1203.47 1518.03 1203.47 Q1519.32 1203.47 1519.32 1204.5 Q1518.13 1210.53 1515.5 1215.16 Q1512.16 1220.78 1507.16 1220.78 Q1502.98 1220.78 1500.2 1217.89 Q1497.47 1214.96 1497.47 1210.32 Q1497.47 1209.19 1497.88 1206.61 Q1498.19 1205.58 1498.19 1204.39 Q1498.19 1201.97 1496.85 1200.17 Q1495.51 1198.31 1493.35 1197.39 Q1491.18 1196.46 1489.38 1196.05 Q1487.63 1195.58 1485.93 1195.43 Q1480.77 1217.22 1480.05 1218.56 Q1479.59 1219.49 1478.56 1220.11 Q1477.53 1220.78 1476.45 1220.78 Q1475.41 1220.78 1474.38 1220.06 Q1473.41 1219.39 1473.41 1217.79 Q1473.41 1216.97 1473.82 1215.47 L1489.12 1154.67 L1489.43 1152.61 Q1489.43 1151.99 1489.17 1151.68 Q1488.97 1151.32 1487.73 1151.06 Q1486.55 1150.8 1484.17 1150.8 Q1483.2 1150.8 1482.73 1150.75 Q1482.32 1150.7 1481.96 1150.44 Q1481.6 1150.13 1481.6 1149.52 Q1481.6 1148.64 1481.96 1148.18 Q1482.37 1147.66 1482.68 1147.56 Q1482.99 1147.45 1483.61 1147.4 Q1484.48 1147.35 1487.42 1147.09 Q1490.36 1146.78 1492.88 1146.58 Q1495.41 1146.37 1496.49 1146.37 Q1497.11 1146.37 1497.42 1146.68 Q1497.78 1146.94 1497.83 1147.25 L1497.88 1147.51 L1486.91 1192.03 Q1491.44 1190.22 1498.6 1182.24 Q1506.9 1172.96 1514.01 1172.96 Q1517.36 1172.96 1519.27 1175.02 Q1521.17 1177.03 1521.17 1179.61 Z" fill="#000000" fill-rule="nonzero" fill-opacity="1" /><path clip-path="url(#clip140)" d="M1568.79 1204.72 Q1568.79 1206.7 1567.53 1207.93 Q1566.31 1209.15 1564.75 1209.15 Q1563.64 1209.15 1562.81 1208.47 Q1562.01 1207.78 1562.01 1206.59 Q1562.01 1205.37 1562.95 1204.07 Q1563.89 1202.77 1566.02 1202.59 Q1564.61 1201.25 1562.37 1201.25 Q1561.26 1201.25 1560.32 1201.97 Q1559.42 1202.66 1558.91 1203.78 Q1558.37 1204.93 1557.14 1211.46 Q1556.75 1213.59 1556.39 1215.65 Q1556.03 1217.7 1555.59 1219.87 L1561.72 1219.87 Q1562.52 1219.87 1562.84 1219.9 Q1563.17 1219.94 1563.42 1220.12 Q1563.71 1220.3 1563.71 1220.7 Q1563.71 1221.71 1563.24 1221.96 Q1562.81 1222.17 1561.51 1222.17 L1555.16 1222.17 L1550.72 1245.58 Q1550.61 1246.27 1550.15 1248.43 Q1549.71 1250.56 1548.67 1254.06 Q1547.62 1257.6 1546.57 1259.69 Q1546 1260.88 1545.24 1262 Q1544.52 1263.15 1543.47 1264.3 Q1542.43 1265.46 1541.06 1266.14 Q1539.69 1266.87 1538.24 1266.87 Q1535.79 1266.87 1533.88 1265.49 Q1531.97 1264.12 1531.97 1261.78 Q1531.97 1259.8 1533.19 1258.57 Q1534.45 1257.34 1536.01 1257.34 Q1537.12 1257.34 1537.92 1258.03 Q1538.75 1258.71 1538.75 1259.9 Q1538.75 1260.41 1538.57 1260.99 Q1538.39 1261.56 1537.99 1262.21 Q1537.59 1262.9 1536.73 1263.37 Q1535.86 1263.84 1534.67 1263.91 Q1536.08 1265.24 1538.24 1265.24 Q1538.93 1265.24 1539.54 1264.95 Q1540.15 1264.7 1540.66 1264.05 Q1541.2 1263.4 1541.6 1262.75 Q1541.99 1262.14 1542.39 1260.95 Q1542.79 1259.8 1543.04 1258.93 Q1543.29 1258.06 1543.62 1256.51 Q1543.98 1254.96 1544.16 1254.02 Q1544.34 1253.12 1544.66 1251.36 L1550.18 1222.17 L1545.31 1222.17 Q1544.45 1222.17 1544.09 1222.14 Q1543.76 1222.1 1543.51 1221.92 Q1543.26 1221.71 1543.26 1221.27 Q1543.26 1220.59 1543.54 1220.3 Q1543.87 1219.97 1544.23 1219.94 Q1544.59 1219.87 1545.46 1219.87 L1550.58 1219.87 Q1552.31 1210.74 1553 1208.29 Q1553.79 1205.69 1555.02 1203.89 Q1556.24 1202.05 1557.61 1201.18 Q1558.98 1200.32 1560.1 1199.99 Q1561.26 1199.63 1562.37 1199.63 Q1564.9 1199.63 1566.85 1201 Q1568.79 1202.34 1568.79 1204.72 Z" fill="#000000" fill-rule="nonzero" fill-opacity="1" /><polyline clip-path="url(#clip140)" style="stroke:#000000; stroke-linecap:round; stroke-linejoin:round; stroke-width:6.4; stroke-opacity:1; fill:none" points="462.746,1005.52 462.746,264.904 "/>
<polyline clip-path="url(#clip140)" style="stroke:#000000; stroke-linecap:round; stroke-linejoin:round; stroke-width:6.4; stroke-opacity:1; fill:none" points="2324.41,1005.52 2324.41,264.904 "/>
<polyline clip-path="url(#clip140)" style="stroke:#000000; stroke-linecap:round; stroke-linejoin:round; stroke-width:6.4; stroke-opacity:1; fill:none" points="462.746,966.536 481.643,966.536 "/>
<polyline clip-path="url(#clip140)" style="stroke:#000000; stroke-linecap:round; stroke-linejoin:round; stroke-width:6.4; stroke-opacity:1; fill:none" points="462.746,654.699 481.643,654.699 "/>
<polyline clip-path="url(#clip140)" style="stroke:#000000; stroke-linecap:round; stroke-linejoin:round; stroke-width:6.4; stroke-opacity:1; fill:none" points="462.746,342.863 481.643,342.863 "/>
<polyline clip-path="url(#clip140)" style="stroke:#000000; stroke-linecap:round; stroke-linejoin:round; stroke-width:6.4; stroke-opacity:1; fill:none" points="2324.41,966.536 2305.51,966.536 "/>
<polyline clip-path="url(#clip140)" style="stroke:#000000; stroke-linecap:round; stroke-linejoin:round; stroke-width:6.4; stroke-opacity:1; fill:none" points="2324.41,654.699 2305.51,654.699 "/>
<polyline clip-path="url(#clip140)" style="stroke:#000000; stroke-linecap:round; stroke-linejoin:round; stroke-width:6.4; stroke-opacity:1; fill:none" points="2324.41,342.863 2305.51,342.863 "/>
<path clip-path="url(#clip140)" d="M335.413 943.814 Q329.635 943.814 326.709 949.517 Q323.82 955.184 323.82 966.591 Q323.82 977.962 326.709 983.665 Q329.635 989.332 335.413 989.332 Q341.228 989.332 344.116 983.665 Q347.042 977.962 347.042 966.591 Q347.042 955.184 344.116 949.517 Q341.228 943.814 335.413 943.814 M335.413 937.888 Q344.709 937.888 349.598 945.258 Q354.524 952.591 354.524 966.591 Q354.524 980.554 349.598 987.925 Q344.709 995.258 335.413 995.258 Q326.117 995.258 321.191 987.925 Q316.302 980.554 316.302 966.591 Q316.302 952.591 321.191 945.258 Q326.117 937.888 335.413 937.888 Z" fill="#000000" fill-rule="nonzero" fill-opacity="1" /><path clip-path="url(#clip140)" d="M367.672 984.776 L375.487 984.776 L375.487 994.184 L367.672 994.184 L367.672 984.776 Z" fill="#000000" fill-rule="nonzero" fill-opacity="1" /><path clip-path="url(#clip140)" d="M407.783 967.925 Q402.449 967.925 399.375 970.777 Q396.338 973.628 396.338 978.628 Q396.338 983.628 399.375 986.48 Q402.449 989.332 407.783 989.332 Q413.116 989.332 416.19 986.48 Q419.264 983.591 419.264 978.628 Q419.264 973.628 416.19 970.777 Q413.153 967.925 407.783 967.925 M400.301 964.74 Q395.487 963.554 392.783 960.258 Q390.116 956.962 390.116 952.221 Q390.116 945.591 394.82 941.74 Q399.561 937.888 407.783 937.888 Q416.042 937.888 420.746 941.74 Q425.449 945.591 425.449 952.221 Q425.449 956.962 422.746 960.258 Q420.079 963.554 415.301 964.74 Q420.709 965.999 423.709 969.665 Q426.746 973.332 426.746 978.628 Q426.746 986.665 421.82 990.962 Q416.931 995.258 407.783 995.258 Q398.635 995.258 393.709 990.962 Q388.82 986.665 388.82 978.628 Q388.82 973.332 391.857 969.665 Q394.894 965.999 400.301 964.74 M397.561 952.925 Q397.561 957.221 400.227 959.628 Q402.931 962.036 407.783 962.036 Q412.598 962.036 415.301 959.628 Q418.042 957.221 418.042 952.925 Q418.042 948.628 415.301 946.221 Q412.598 943.814 407.783 943.814 Q402.931 943.814 400.227 946.221 Q397.561 948.628 397.561 952.925 Z" fill="#000000" fill-rule="nonzero" fill-opacity="1" /><path clip-path="url(#clip140)" d="M323.117 676.051 L335.339 676.051 L335.339 633.866 L322.042 636.533 L322.042 629.718 L335.265 627.051 L342.746 627.051 L342.746 676.051 L354.968 676.051 L354.968 682.347 L323.117 682.347 L323.117 676.051 Z" fill="#000000" fill-rule="nonzero" fill-opacity="1" /><path clip-path="url(#clip140)" d="M370.079 672.94 L377.894 672.94 L377.894 682.347 L370.079 682.347 L370.079 672.94 Z" fill="#000000" fill-rule="nonzero" fill-opacity="1" /><path clip-path="url(#clip140)" d="M400.635 676.051 L426.746 676.051 L426.746 682.347 L391.635 682.347 L391.635 676.051 Q395.894 671.644 403.227 664.236 Q410.598 656.792 412.486 654.644 Q416.079 650.607 417.486 647.829 Q418.931 645.014 418.931 642.31 Q418.931 637.903 415.82 635.125 Q412.746 632.348 407.783 632.348 Q404.264 632.348 400.338 633.57 Q396.449 634.792 392.005 637.273 L392.005 629.718 Q396.524 627.903 400.449 626.977 Q404.375 626.051 407.635 626.051 Q416.227 626.051 421.338 630.348 Q426.449 634.644 426.449 641.829 Q426.449 645.236 425.153 648.31 Q423.894 651.347 420.523 655.496 Q419.598 656.57 414.635 661.718 Q409.672 666.829 400.635 676.051 Z" fill="#000000" fill-rule="nonzero" fill-opacity="1" /><path clip-path="url(#clip140)" d="M320.302 364.215 L332.524 364.215 L332.524 322.03 L319.228 324.696 L319.228 317.881 L332.45 315.215 L339.931 315.215 L339.931 364.215 L352.153 364.215 L352.153 370.511 L320.302 370.511 L320.302 364.215 Z" fill="#000000" fill-rule="nonzero" fill-opacity="1" /><path clip-path="url(#clip140)" d="M367.264 361.103 L375.079 361.103 L375.079 370.511 L367.264 370.511 L367.264 361.103 Z" fill="#000000" fill-rule="nonzero" fill-opacity="1" /><path clip-path="url(#clip140)" d="M408.301 339.881 Q403.264 339.881 400.301 343.326 Q397.375 346.77 397.375 352.77 Q397.375 358.733 400.301 362.215 Q403.264 365.659 408.301 365.659 Q413.338 365.659 416.264 362.215 Q419.227 358.733 419.227 352.77 Q419.227 346.77 416.264 343.326 Q413.338 339.881 408.301 339.881 M423.153 316.437 L423.153 323.252 Q420.338 321.918 417.449 321.215 Q414.598 320.511 411.783 320.511 Q404.375 320.511 400.449 325.511 Q396.561 330.511 396.005 340.622 Q398.19 337.4 401.486 335.696 Q404.783 333.955 408.746 333.955 Q417.079 333.955 421.894 339.03 Q426.746 344.067 426.746 352.77 Q426.746 361.289 421.709 366.437 Q416.672 371.585 408.301 371.585 Q398.709 371.585 393.635 364.252 Q388.561 356.881 388.561 342.918 Q388.561 329.807 394.783 322.03 Q401.005 314.215 411.486 314.215 Q414.301 314.215 417.153 314.77 Q420.042 315.326 423.153 316.437 Z" fill="#000000" fill-rule="nonzero" fill-opacity="1" /><path clip-path="url(#clip140)" d="M285.086 682.491 Q285.962 682.491 286.58 683.11 Q287.198 683.728 287.198 684.604 Q287.198 686.099 285.807 686.614 L235.154 706.246 Q234.948 706.35 234.432 706.35 Q233.917 706.35 233.711 706.246 L183.058 686.614 Q181.666 686.099 181.666 684.604 Q181.666 683.728 182.285 683.11 Q182.903 682.491 183.779 682.491 Q184.294 682.491 184.5 682.595 L234.432 702.021 L284.364 682.595 Q284.57 682.491 285.086 682.491 Z" fill="#000000" fill-rule="nonzero" fill-opacity="1" /><path clip-path="url(#clip140)" d="M190.529 593.947 Q191.508 593.947 192.333 594.153 L210.677 597.039 Q212.069 597.193 212.584 597.502 Q213.099 597.76 213.099 598.584 Q213.099 599.873 211.759 599.873 Q210.986 599.873 209.75 599.564 Q203.927 598.688 201.299 598.688 Q199.547 598.688 198.259 599.048 Q196.919 599.357 195.991 599.873 Q195.064 600.336 194.446 601.419 Q193.827 602.501 193.466 603.531 Q193.106 604.562 192.951 606.417 Q192.745 608.272 192.694 609.869 Q192.642 611.467 192.642 614.095 Q192.642 619.815 192.848 620.742 Q193.106 621.721 193.879 622.236 Q194.6 622.7 196.764 623.216 L252.777 637.232 L254.993 637.644 Q256.229 637.644 256.641 636.871 Q257.054 636.098 257.311 633.728 Q257.569 630.327 257.569 626.977 Q257.569 626.874 257.569 626.668 Q257.569 625.534 257.621 625.071 Q257.621 624.607 257.724 624.143 Q257.827 623.679 258.084 623.576 Q258.29 623.422 258.703 623.422 Q259.682 623.422 260.197 623.834 Q260.661 624.246 260.764 624.658 Q260.815 625.019 260.815 625.74 Q260.815 627.183 260.712 630.275 Q260.609 633.367 260.609 634.913 L260.506 643.673 L260.609 652.639 Q260.609 654.03 260.712 656.967 Q260.815 659.904 260.815 661.296 Q260.815 663.099 259.527 663.099 Q258.084 663.099 257.827 662.429 Q257.569 661.708 257.569 658.668 Q257.569 654.391 257.363 652.072 Q257.157 649.753 256.435 648.516 Q255.714 647.228 254.993 646.868 Q254.22 646.507 252.468 646.095 L196.146 631.924 Q194.909 631.512 193.93 631.512 Q193.415 631.512 193.209 631.666 Q193.003 631.769 192.848 632.439 Q192.642 633.109 192.642 634.5 L192.642 638.623 Q192.642 642.848 192.848 645.476 Q193.003 648.053 193.776 650.526 Q194.549 652.948 195.631 654.391 Q196.713 655.782 198.929 657.328 Q201.144 658.874 203.824 660.008 Q206.503 661.09 210.883 662.636 Q212.326 663.151 212.738 663.46 Q213.099 663.718 213.099 664.439 Q213.099 664.954 212.79 665.367 Q212.429 665.727 211.966 665.727 Q210.265 665.212 210.059 665.109 L191.457 658.771 Q189.962 658.256 189.705 657.792 Q189.396 657.276 189.396 655.37 L189.396 596.832 Q189.396 595.905 189.396 595.596 Q189.396 595.287 189.499 594.771 Q189.602 594.256 189.859 594.101 Q190.117 593.947 190.529 593.947 Z" fill="#000000" fill-rule="nonzero" fill-opacity="1" /><path clip-path="url(#clip140)" d="M233.711 580.988 Q233.917 580.885 234.432 580.885 Q234.948 580.885 235.154 580.988 L285.807 600.621 Q287.198 601.136 287.198 602.579 Q287.198 603.455 286.58 604.073 Q285.962 604.692 285.086 604.692 Q284.57 604.692 284.364 604.589 L234.432 585.214 L184.5 604.589 Q184.294 604.692 183.779 604.692 Q182.903 604.692 182.285 604.073 Q181.666 603.455 181.666 602.579 Q181.666 601.136 183.058 600.621 L233.711 580.988 Z" fill="#000000" fill-rule="nonzero" fill-opacity="1" /><polyline clip-path="url(#clip142)" style="stroke:#e26f46; stroke-linecap:round; stroke-linejoin:round; stroke-width:6.4; stroke-opacity:1; fill:none" points="2235.19,855.521 1095.85,847.176 852.295,848.646 672.807,836.022 "/>
<circle clip-path="url(#clip142)" cx="2235.19" cy="855.521" r="23.04" fill="#e26f46" fill-rule="evenodd" fill-opacity="1" stroke="none"/>
<circle clip-path="url(#clip142)" cx="1095.85" cy="847.176" r="23.04" fill="#e26f46" fill-rule="evenodd" fill-opacity="1" stroke="none"/>
<circle clip-path="url(#clip142)" cx="852.295" cy="848.646" r="23.04" fill="#e26f46" fill-rule="evenodd" fill-opacity="1" stroke="none"/>
<circle clip-path="url(#clip142)" cx="672.807" cy="836.022" r="23.04" fill="#e26f46" fill-rule="evenodd" fill-opacity="1" stroke="none"/>
<polyline clip-path="url(#clip142)" style="stroke:#e26f46; stroke-linecap:round; stroke-linejoin:round; stroke-width:6.4; stroke-opacity:1; fill:none" points="2235.19,877.115 2235.19,833.927 "/>
<polyline clip-path="url(#clip142)" style="stroke:#e26f46; stroke-linecap:round; stroke-linejoin:round; stroke-width:6.4; stroke-opacity:1; fill:none" points="1095.85,878.967 1095.85,815.386 "/>
<polyline clip-path="url(#clip142)" style="stroke:#e26f46; stroke-linecap:round; stroke-linejoin:round; stroke-width:6.4; stroke-opacity:1; fill:none" points="852.295,884.114 852.295,813.179 "/>
<polyline clip-path="url(#clip142)" style="stroke:#e26f46; stroke-linecap:round; stroke-linejoin:round; stroke-width:6.4; stroke-opacity:1; fill:none" points="672.807,959.714 672.807,712.329 "/>
<line clip-path="url(#clip142)" x1="2260.79" y1="877.115" x2="2209.59" y2="877.115" style="stroke:#e26f46; stroke-width:6.4; stroke-opacity:1"/>
<line clip-path="url(#clip142)" x1="2260.79" y1="833.927" x2="2209.59" y2="833.927" style="stroke:#e26f46; stroke-width:6.4; stroke-opacity:1"/>
<line clip-path="url(#clip142)" x1="1121.45" y1="878.967" x2="1070.25" y2="878.967" style="stroke:#e26f46; stroke-width:6.4; stroke-opacity:1"/>
<line clip-path="url(#clip142)" x1="1121.45" y1="815.386" x2="1070.25" y2="815.386" style="stroke:#e26f46; stroke-width:6.4; stroke-opacity:1"/>
<line clip-path="url(#clip142)" x1="877.895" y1="884.114" x2="826.695" y2="884.114" style="stroke:#e26f46; stroke-width:6.4; stroke-opacity:1"/>
<line clip-path="url(#clip142)" x1="877.895" y1="813.179" x2="826.695" y2="813.179" style="stroke:#e26f46; stroke-width:6.4; stroke-opacity:1"/>
<line clip-path="url(#clip142)" x1="698.407" y1="959.714" x2="647.207" y2="959.714" style="stroke:#e26f46; stroke-width:6.4; stroke-opacity:1"/>
<line clip-path="url(#clip142)" x1="698.407" y1="712.329" x2="647.207" y2="712.329" style="stroke:#e26f46; stroke-width:6.4; stroke-opacity:1"/>
<polyline clip-path="url(#clip142)" style="stroke:#009af9; stroke-linecap:round; stroke-linejoin:round; stroke-width:6.4; stroke-opacity:1; fill:none" stroke-dasharray="26, 16" points="2235.19,914.126 1095.85,910.263 852.295,886.349 672.807,900.517 530.339,330.443 "/>
<path clip-path="url(#clip142)" d="M2235.19 888.526 L2209.59 914.126 L2235.19 939.726 L2260.79 914.126 L2235.19 888.526 Z" fill="#009af9" fill-rule="evenodd" fill-opacity="1" stroke="none"/>
<path clip-path="url(#clip142)" d="M1095.85 884.663 L1070.25 910.263 L1095.85 935.863 L1121.45 910.263 L1095.85 884.663 Z" fill="#009af9" fill-rule="evenodd" fill-opacity="1" stroke="none"/>
<path clip-path="url(#clip142)" d="M852.295 860.749 L826.695 886.349 L852.295 911.949 L877.895 886.349 L852.295 860.749 Z" fill="#009af9" fill-rule="evenodd" fill-opacity="1" stroke="none"/>
<path clip-path="url(#clip142)" d="M672.807 874.917 L647.207 900.517 L672.807 926.117 L698.407 900.517 L672.807 874.917 Z" fill="#009af9" fill-rule="evenodd" fill-opacity="1" stroke="none"/>
<path clip-path="url(#clip142)" d="M530.339 304.843 L504.739 330.443 L530.339 356.043 L555.939 330.443 L530.339 304.843 Z" fill="#009af9" fill-rule="evenodd" fill-opacity="1" stroke="none"/>
<polyline clip-path="url(#clip142)" style="stroke:#009af9; stroke-linecap:round; stroke-linejoin:round; stroke-width:6.4; stroke-opacity:1; fill:none" stroke-dasharray="26, 16" points="2235.19,917.978 2235.19,910.274 "/>
<polyline clip-path="url(#clip142)" style="stroke:#009af9; stroke-linecap:round; stroke-linejoin:round; stroke-width:6.4; stroke-opacity:1; fill:none" stroke-dasharray="26, 16" points="1095.85,914.798 1095.85,905.727 "/>
<polyline clip-path="url(#clip142)" style="stroke:#009af9; stroke-linecap:round; stroke-linejoin:round; stroke-width:6.4; stroke-opacity:1; fill:none" stroke-dasharray="26, 16" points="852.295,893.822 852.295,878.876 "/>
<polyline clip-path="url(#clip142)" style="stroke:#009af9; stroke-linecap:round; stroke-linejoin:round; stroke-width:6.4; stroke-opacity:1; fill:none" stroke-dasharray="26, 16" points="672.807,904.304 672.807,896.73 "/>
<polyline clip-path="url(#clip142)" style="stroke:#009af9; stroke-linecap:round; stroke-linejoin:round; stroke-width:6.4; stroke-opacity:1; fill:none" stroke-dasharray="26, 16" points="530.339,356.507 530.339,304.38 "/>
<line clip-path="url(#clip142)" x1="2260.79" y1="917.978" x2="2209.59" y2="917.978" style="stroke:#009af9; stroke-width:6.4; stroke-opacity:1"/>
<line clip-path="url(#clip142)" x1="2260.79" y1="910.274" x2="2209.59" y2="910.274" style="stroke:#009af9; stroke-width:6.4; stroke-opacity:1"/>
<line clip-path="url(#clip142)" x1="1121.45" y1="914.798" x2="1070.25" y2="914.798" style="stroke:#009af9; stroke-width:6.4; stroke-opacity:1"/>
<line clip-path="url(#clip142)" x1="1121.45" y1="905.727" x2="1070.25" y2="905.727" style="stroke:#009af9; stroke-width:6.4; stroke-opacity:1"/>
<line clip-path="url(#clip142)" x1="877.895" y1="893.822" x2="826.695" y2="893.822" style="stroke:#009af9; stroke-width:6.4; stroke-opacity:1"/>
<line clip-path="url(#clip142)" x1="877.895" y1="878.876" x2="826.695" y2="878.876" style="stroke:#009af9; stroke-width:6.4; stroke-opacity:1"/>
<line clip-path="url(#clip142)" x1="698.407" y1="904.304" x2="647.207" y2="904.304" style="stroke:#009af9; stroke-width:6.4; stroke-opacity:1"/>
<line clip-path="url(#clip142)" x1="698.407" y1="896.73" x2="647.207" y2="896.73" style="stroke:#009af9; stroke-width:6.4; stroke-opacity:1"/>
<line clip-path="url(#clip142)" x1="555.939" y1="356.507" x2="504.739" y2="356.507" style="stroke:#009af9; stroke-width:6.4; stroke-opacity:1"/>
<line clip-path="url(#clip142)" x1="555.939" y1="304.38" x2="504.739" y2="304.38" style="stroke:#009af9; stroke-width:6.4; stroke-opacity:1"/>
</svg>
