<?xml version="1.0" encoding="utf-8"?>
<svg xmlns="http://www.w3.org/2000/svg" xmlns:xlink="http://www.w3.org/1999/xlink" width="600" height="400" viewBox="0 0 2400 1600">
<defs>
  <clipPath id="clip740">
    <rect x="0" y="0" width="2400" height="1600"/>
  </clipPath>
</defs>
<path clip-path="url(#clip740)" d="M0 1600 L2400 1600 L2400 8.88178e-14 L0 8.88178e-14  Z" fill="#ffffff" fill-rule="evenodd" fill-opacity="1"/>
<defs>
  <clipPath id="clip741">
    <rect x="480" y="0" width="1681" height="1600"/>
  </clipPath>
</defs>
<path clip-path="url(#clip740)" d="M462.746 1044.49 L2324.41 1044.49 L2324.41 225.924 L462.746 225.924  Z" fill="#ffffff" fill-rule="evenodd" fill-opacity="1"/>
<defs>
  <clipPath id="clip742">
    <rect x="462" y="225" width="1863" height="820"/>
  </clipPath>
</defs>
<polyline clip-path="url(#clip742)" style="stroke:#000000; stroke-linecap:round; stroke-linejoin:round; stroke-width:3.2; stroke-opacity:0.1; fill:none" points="885.784,1044.49 885.784,225.924 "/>
<polyline clip-path="url(#clip742)" style="stroke:#000000; stroke-linecap:round; stroke-linejoin:round; stroke-width:3.2; stroke-opacity:0.1; fill:none" points="1694.84,1044.49 1694.84,225.924 "/>
<polyline clip-path="url(#clip742)" style="stroke:#000000; stroke-linecap:round; stroke-linejoin:round; stroke-width:3.2; stroke-opacity:0.1; fill:none" points="885.784,1044.49 885.784,225.924 "/>
<polyline clip-path="url(#clip742)" style="stroke:#000000; stroke-linecap:round; stroke-linejoin:round; stroke-width:3.2; stroke-opacity:0.1; fill:none" points="1694.84,1044.49 1694.84,225.924 "/>
<polyline clip-path="url(#clip742)" style="stroke:#000000; stroke-linecap:round; stroke-linejoin:round; stroke-width:3.2; stroke-opacity:0.1; fill:none" points="462.746,1005.52 2324.41,1005.52 "/>
<polyline clip-path="url(#clip742)" style="stroke:#000000; stroke-linecap:round; stroke-linejoin:round; stroke-width:3.2; stroke-opacity:0.1; fill:none" points="462.746,693.679 2324.41,693.679 "/>
<polyline clip-path="url(#clip742)" style="stroke:#000000; stroke-linecap:round; stroke-linejoin:round; stroke-width:3.2; stroke-opacity:0.1; fill:none" points="462.746,381.842 2324.41,381.842 "/>
<polyline clip-path="url(#clip742)" style="stroke:#000000; stroke-linecap:round; stroke-linejoin:round; stroke-width:3.2; stroke-opacity:0.1; fill:none" points="462.746,1005.52 2324.41,1005.52 "/>
<polyline clip-path="url(#clip742)" style="stroke:#000000; stroke-linecap:round; stroke-linejoin:round; stroke-width:3.2; stroke-opacity:0.1; fill:none" points="462.746,693.679 2324.41,693.679 "/>
<polyline clip-path="url(#clip742)" style="stroke:#000000; stroke-linecap:round; stroke-linejoin:round; stroke-width:3.2; stroke-opacity:0.1; fill:none" points="462.746,381.842 2324.41,381.842 "/>
<polyline clip-path="url(#clip740)" style="stroke:#000000; stroke-linecap:round; stroke-linejoin:round; stroke-width:6.4; stroke-opacity:1; fill:none" points="462.746,1044.49 2324.41,1044.49 "/>
<polyline clip-path="url(#clip740)" style="stroke:#000000; stroke-linecap:round; stroke-linejoin:round; stroke-width:6.4; stroke-opacity:1; fill:none" points="462.746,225.924 2324.41,225.924 "/>
<polyline clip-path="url(#clip740)" style="stroke:#000000; stroke-linecap:round; stroke-linejoin:round; stroke-width:6.4; stroke-opacity:1; fill:none" points="885.784,1044.49 885.784,1030.67 "/>
<polyline clip-path="url(#clip740)" style="stroke:#000000; stroke-linecap:round; stroke-linejoin:round; stroke-width:6.4; stroke-opacity:1; fill:none" points="1694.84,1044.49 1694.84,1030.67 "/>
<polyline clip-path="url(#clip740)" style="stroke:#000000; stroke-linecap:round; stroke-linejoin:round; stroke-width:6.4; stroke-opacity:1; fill:none" points="885.784,225.924 885.784,239.745 "/>
<polyline clip-path="url(#clip740)" style="stroke:#000000; stroke-linecap:round; stroke-linejoin:round; stroke-width:6.4; stroke-opacity:1; fill:none" points="1694.84,225.924 1694.84,239.745 "/>
<polyline clip-path="url(#clip740)" style="stroke:#000000; stroke-linecap:round; stroke-linejoin:round; stroke-width:6.4; stroke-opacity:1; fill:none" points="462.746,1044.49 462.746,1037.58 "/>
<polyline clip-path="url(#clip740)" style="stroke:#000000; stroke-linecap:round; stroke-linejoin:round; stroke-width:6.4; stroke-opacity:1; fill:none" points="563.828,1044.49 563.828,1037.58 "/>
<polyline clip-path="url(#clip740)" style="stroke:#000000; stroke-linecap:round; stroke-linejoin:round; stroke-width:6.4; stroke-opacity:1; fill:none" points="642.234,1044.49 642.234,1037.58 "/>
<polyline clip-path="url(#clip740)" style="stroke:#000000; stroke-linecap:round; stroke-linejoin:round; stroke-width:6.4; stroke-opacity:1; fill:none" points="706.296,1044.49 706.296,1037.58 "/>
<polyline clip-path="url(#clip740)" style="stroke:#000000; stroke-linecap:round; stroke-linejoin:round; stroke-width:6.4; stroke-opacity:1; fill:none" points="760.46,1044.49 760.46,1037.58 "/>
<polyline clip-path="url(#clip740)" style="stroke:#000000; stroke-linecap:round; stroke-linejoin:round; stroke-width:6.4; stroke-opacity:1; fill:none" points="807.378,1044.49 807.378,1037.58 "/>
<polyline clip-path="url(#clip740)" style="stroke:#000000; stroke-linecap:round; stroke-linejoin:round; stroke-width:6.4; stroke-opacity:1; fill:none" points="848.764,1044.49 848.764,1037.58 "/>
<polyline clip-path="url(#clip740)" style="stroke:#000000; stroke-linecap:round; stroke-linejoin:round; stroke-width:6.4; stroke-opacity:1; fill:none" points="1129.33,1044.49 1129.33,1037.58 "/>
<polyline clip-path="url(#clip740)" style="stroke:#000000; stroke-linecap:round; stroke-linejoin:round; stroke-width:6.4; stroke-opacity:1; fill:none" points="1271.8,1044.49 1271.8,1037.58 "/>
<polyline clip-path="url(#clip740)" style="stroke:#000000; stroke-linecap:round; stroke-linejoin:round; stroke-width:6.4; stroke-opacity:1; fill:none" points="1372.88,1044.49 1372.88,1037.58 "/>
<polyline clip-path="url(#clip740)" style="stroke:#000000; stroke-linecap:round; stroke-linejoin:round; stroke-width:6.4; stroke-opacity:1; fill:none" points="1451.29,1044.49 1451.29,1037.58 "/>
<polyline clip-path="url(#clip740)" style="stroke:#000000; stroke-linecap:round; stroke-linejoin:round; stroke-width:6.4; stroke-opacity:1; fill:none" points="1515.35,1044.49 1515.35,1037.58 "/>
<polyline clip-path="url(#clip740)" style="stroke:#000000; stroke-linecap:round; stroke-linejoin:round; stroke-width:6.4; stroke-opacity:1; fill:none" points="1569.52,1044.49 1569.52,1037.58 "/>
<polyline clip-path="url(#clip740)" style="stroke:#000000; stroke-linecap:round; stroke-linejoin:round; stroke-width:6.4; stroke-opacity:1; fill:none" points="1616.44,1044.49 1616.44,1037.58 "/>
<polyline clip-path="url(#clip740)" style="stroke:#000000; stroke-linecap:round; stroke-linejoin:round; stroke-width:6.4; stroke-opacity:1; fill:none" points="1657.82,1044.49 1657.82,1037.58 "/>
<polyline clip-path="url(#clip740)" style="stroke:#000000; stroke-linecap:round; stroke-linejoin:round; stroke-width:6.4; stroke-opacity:1; fill:none" points="1938.39,1044.49 1938.39,1037.58 "/>
<polyline clip-path="url(#clip740)" style="stroke:#000000; stroke-linecap:round; stroke-linejoin:round; stroke-width:6.4; stroke-opacity:1; fill:none" points="2080.86,1044.49 2080.86,1037.58 "/>
<polyline clip-path="url(#clip740)" style="stroke:#000000; stroke-linecap:round; stroke-linejoin:round; stroke-width:6.4; stroke-opacity:1; fill:none" points="2181.94,1044.49 2181.94,1037.58 "/>
<polyline clip-path="url(#clip740)" style="stroke:#000000; stroke-linecap:round; stroke-linejoin:round; stroke-width:6.4; stroke-opacity:1; fill:none" points="2260.35,1044.49 2260.35,1037.58 "/>
<polyline clip-path="url(#clip740)" style="stroke:#000000; stroke-linecap:round; stroke-linejoin:round; stroke-width:6.4; stroke-opacity:1; fill:none" points="2324.41,1044.49 2324.41,1037.58 "/>
<polyline clip-path="url(#clip740)" style="stroke:#000000; stroke-linecap:round; stroke-linejoin:round; stroke-width:6.4; stroke-opacity:1; fill:none" points="462.746,225.924 462.746,232.835 "/>
<polyline clip-path="url(#clip740)" style="stroke:#000000; stroke-linecap:round; stroke-linejoin:round; stroke-width:6.4; stroke-opacity:1; fill:none" points="563.828,225.924 563.828,232.835 "/>
<polyline clip-path="url(#clip740)" style="stroke:#000000; stroke-linecap:round; stroke-linejoin:round; stroke-width:6.4; stroke-opacity:1; fill:none" points="642.234,225.924 642.234,232.835 "/>
<polyline clip-path="url(#clip740)" style="stroke:#000000; stroke-linecap:round; stroke-linejoin:round; stroke-width:6.4; stroke-opacity:1; fill:none" points="706.296,225.924 706.296,232.835 "/>
<polyline clip-path="url(#clip740)" style="stroke:#000000; stroke-linecap:round; stroke-linejoin:round; stroke-width:6.4; stroke-opacity:1; fill:none" points="760.46,225.924 760.46,232.835 "/>
<polyline clip-path="url(#clip740)" style="stroke:#000000; stroke-linecap:round; stroke-linejoin:round; stroke-width:6.4; stroke-opacity:1; fill:none" points="807.378,225.924 807.378,232.835 "/>
<polyline clip-path="url(#clip740)" style="stroke:#000000; stroke-linecap:round; stroke-linejoin:round; stroke-width:6.4; stroke-opacity:1; fill:none" points="848.764,225.924 848.764,232.835 "/>
<polyline clip-path="url(#clip740)" style="stroke:#000000; stroke-linecap:round; stroke-linejoin:round; stroke-width:6.4; stroke-opacity:1; fill:none" points="1129.33,225.924 1129.33,232.835 "/>
<polyline clip-path="url(#clip740)" style="stroke:#000000; stroke-linecap:round; stroke-linejoin:round; stroke-width:6.4; stroke-opacity:1; fill:none" points="1271.8,225.924 1271.8,232.835 "/>
<polyline clip-path="url(#clip740)" style="stroke:#000000; stroke-linecap:round; stroke-linejoin:round; stroke-width:6.4; stroke-opacity:1; fill:none" points="1372.88,225.924 1372.88,232.835 "/>
<polyline clip-path="url(#clip740)" style="stroke:#000000; stroke-linecap:round; stroke-linejoin:round; stroke-width:6.4; stroke-opacity:1; fill:none" points="1451.29,225.924 1451.29,232.835 "/>
<polyline clip-path="url(#clip740)" style="stroke:#000000; stroke-linecap:round; stroke-linejoin:round; stroke-width:6.4; stroke-opacity:1; fill:none" points="1515.35,225.924 1515.35,232.835 "/>
<polyline clip-path="url(#clip740)" style="stroke:#000000; stroke-linecap:round; stroke-linejoin:round; stroke-width:6.4; stroke-opacity:1; fill:none" points="1569.52,225.924 1569.52,232.835 "/>
<polyline clip-path="url(#clip740)" style="stroke:#000000; stroke-linecap:round; stroke-linejoin:round; stroke-width:6.4; stroke-opacity:1; fill:none" points="1616.44,225.924 1616.44,232.835 "/>
<polyline clip-path="url(#clip740)" style="stroke:#000000; stroke-linecap:round; stroke-linejoin:round; stroke-width:6.4; stroke-opacity:1; fill:none" points="1657.82,225.924 1657.82,232.835 "/>
<polyline clip-path="url(#clip740)" style="stroke:#000000; stroke-linecap:round; stroke-linejoin:round; stroke-width:6.4; stroke-opacity:1; fill:none" points="1938.39,225.924 1938.39,232.835 "/>
<polyline clip-path="url(#clip740)" style="stroke:#000000; stroke-linecap:round; stroke-linejoin:round; stroke-width:6.4; stroke-opacity:1; fill:none" points="2080.86,225.924 2080.86,232.835 "/>
<polyline clip-path="url(#clip740)" style="stroke:#000000; stroke-linecap:round; stroke-linejoin:round; stroke-width:6.4; stroke-opacity:1; fill:none" points="2181.94,225.924 2181.94,232.835 "/>
<polyline clip-path="url(#clip740)" style="stroke:#000000; stroke-linecap:round; stroke-linejoin:round; stroke-width:6.4; stroke-opacity:1; fill:none" points="2260.35,225.924 2260.35,232.835 "/>
<polyline clip-path="url(#clip740)" style="stroke:#000000; stroke-linecap:round; stroke-linejoin:round; stroke-width:6.4; stroke-opacity:1; fill:none" points="2324.41,225.924 2324.41,232.835 "/>
<path clip-path="url(#clip740)" d="M829.757 1151.57 L841.979 1151.57 L841.979 1109.39 L828.683 1112.06 L828.683 1105.24 L841.905 1102.57 L849.386 1102.57 L849.386 1151.57 L861.608 1151.57 L861.608 1157.87 L829.757 1157.87 L829.757 1151.57 Z" fill="#000000" fill-rule="nonzero" fill-opacity="1" /><path clip-path="url(#clip740)" d="M892.719 1107.5 Q886.942 1107.5 884.016 1113.2 Q881.127 1118.87 881.127 1130.28 Q881.127 1141.65 884.016 1147.35 Q886.942 1153.02 892.719 1153.02 Q898.534 1153.02 901.423 1147.35 Q904.349 1141.65 904.349 1130.28 Q904.349 1118.87 901.423 1113.2 Q898.534 1107.5 892.719 1107.5 M892.719 1101.57 Q902.016 1101.57 906.904 1108.95 Q911.83 1116.28 911.83 1130.28 Q911.83 1144.24 906.904 1151.61 Q902.016 1158.94 892.719 1158.94 Q883.423 1158.94 878.497 1151.61 Q873.608 1144.24 873.608 1130.28 Q873.608 1116.28 878.497 1108.95 Q883.423 1101.57 892.719 1101.57 Z" fill="#000000" fill-rule="nonzero" fill-opacity="1" /><path clip-path="url(#clip740)" d="M927.358 1073.09 Q922.664 1073.09 920.286 1077.72 Q917.939 1082.33 917.939 1091.6 Q917.939 1100.83 920.286 1105.47 Q922.664 1110.07 927.358 1110.07 Q932.083 1110.07 934.43 1105.47 Q936.807 1100.83 936.807 1091.6 Q936.807 1082.33 934.43 1077.72 Q932.083 1073.09 927.358 1073.09 M927.358 1068.27 Q934.911 1068.27 938.883 1074.26 Q942.886 1080.22 942.886 1091.6 Q942.886 1102.94 938.883 1108.93 Q934.911 1114.89 927.358 1114.89 Q919.805 1114.89 915.803 1108.93 Q911.83 1102.94 911.83 1091.6 Q911.83 1080.22 915.803 1074.26 Q919.805 1068.27 927.358 1068.27 Z" fill="#000000" fill-rule="nonzero" fill-opacity="1" /><path clip-path="url(#clip740)" d="M1640.97 1151.57 L1653.19 1151.57 L1653.19 1109.39 L1639.89 1112.06 L1639.89 1105.24 L1653.11 1102.57 L1660.59 1102.57 L1660.59 1151.57 L1672.82 1151.57 L1672.82 1157.87 L1640.97 1157.87 L1640.97 1151.57 Z" fill="#000000" fill-rule="nonzero" fill-opacity="1" /><path clip-path="url(#clip740)" d="M1703.93 1107.5 Q1698.15 1107.5 1695.22 1113.2 Q1692.34 1118.87 1692.34 1130.28 Q1692.34 1141.65 1695.22 1147.35 Q1698.15 1153.02 1703.93 1153.02 Q1709.74 1153.02 1712.63 1147.35 Q1715.56 1141.65 1715.56 1130.28 Q1715.56 1118.87 1712.63 1113.2 Q1709.74 1107.5 1703.93 1107.5 M1703.93 1101.57 Q1713.22 1101.57 1718.11 1108.95 Q1723.04 1116.28 1723.04 1130.28 Q1723.04 1144.24 1718.11 1151.61 Q1713.22 1158.94 1703.93 1158.94 Q1694.63 1158.94 1689.71 1151.61 Q1684.82 1144.24 1684.82 1130.28 Q1684.82 1116.28 1689.71 1108.95 Q1694.63 1101.57 1703.93 1101.57 Z" fill="#000000" fill-rule="nonzero" fill-opacity="1" /><path clip-path="url(#clip740)" d="M1723.91 1108.9 L1733.84 1108.9 L1733.84 1074.62 L1723.04 1076.79 L1723.04 1071.25 L1733.78 1069.09 L1739.86 1069.09 L1739.86 1108.9 L1749.79 1108.9 L1749.79 1114.01 L1723.91 1114.01 L1723.91 1108.9 Z" fill="#000000" fill-rule="nonzero" fill-opacity="1" /><path clip-path="url(#clip740)" d="M1255.23 1218.59 Q1255.23 1221.53 1253.42 1223.28 Q1251.67 1225.03 1249.46 1225.03 Q1247.5 1225.03 1246.47 1223.9 Q1245.44 1222.76 1245.44 1221.32 Q1245.44 1220.7 1245.69 1219.93 Q1245.95 1219.1 1246.52 1218.12 Q1247.14 1217.15 1248.43 1216.42 Q1249.71 1215.7 1251.47 1215.6 Q1251.1 1215.24 1251 1215.19 Q1250.23 1214.57 1248.79 1214.36 Q1248.58 1214.26 1247.86 1214.26 Q1244.3 1214.26 1240.7 1216.89 Q1237.14 1219.46 1232.76 1224.36 Q1227.25 1230.08 1223.69 1232.19 Q1239.3 1234.25 1239.3 1243.27 Q1239.3 1244.76 1238.89 1246.57 Q1238.07 1249.97 1238.07 1252.44 Q1238.07 1257.39 1241.42 1257.39 Q1244.66 1257.39 1246.72 1254.09 Q1248.84 1250.79 1250.59 1244.35 Q1250.85 1243.17 1251.1 1242.81 Q1251.36 1242.45 1252.08 1242.45 Q1253.37 1242.45 1253.37 1243.48 Q1252.19 1249.51 1249.56 1254.14 Q1246.21 1259.76 1241.21 1259.76 Q1237.04 1259.76 1234.25 1256.87 Q1231.52 1253.94 1231.52 1249.3 Q1231.52 1248.17 1231.94 1245.59 Q1232.25 1244.56 1232.25 1243.37 Q1232.25 1240.95 1230.91 1239.15 Q1229.57 1237.29 1227.4 1236.37 Q1225.24 1235.44 1223.43 1235.03 Q1221.68 1234.56 1219.98 1234.41 Q1214.83 1256.2 1214.11 1257.54 Q1213.64 1258.47 1212.61 1259.09 Q1211.58 1259.76 1210.5 1259.76 Q1209.47 1259.76 1208.44 1259.04 Q1207.46 1258.37 1207.46 1256.77 Q1207.46 1255.95 1207.87 1254.45 L1223.18 1193.65 L1223.49 1191.59 Q1223.49 1190.97 1223.23 1190.66 Q1223.02 1190.3 1221.78 1190.04 Q1220.6 1189.78 1218.23 1189.78 Q1217.25 1189.78 1216.79 1189.73 Q1216.37 1189.68 1216.01 1189.42 Q1215.65 1189.11 1215.65 1188.49 Q1215.65 1187.62 1216.01 1187.15 Q1216.43 1186.64 1216.73 1186.54 Q1217.04 1186.43 1217.66 1186.38 Q1218.54 1186.33 1221.48 1186.07 Q1224.41 1185.76 1226.94 1185.56 Q1229.46 1185.35 1230.54 1185.35 Q1231.16 1185.35 1231.47 1185.66 Q1231.83 1185.92 1231.88 1186.23 L1231.94 1186.49 L1220.96 1231.01 Q1225.49 1229.2 1232.66 1221.22 Q1240.95 1211.94 1248.06 1211.94 Q1251.41 1211.94 1253.32 1214 Q1255.23 1216.01 1255.23 1218.59 Z" fill="#000000" fill-rule="nonzero" fill-opacity="1" /><path clip-path="url(#clip740)" d="M1326.55 1268.58 Q1326.55 1268.87 1326.22 1269.98 Q1325.9 1271.1 1325.1 1272.83 Q1324.35 1274.56 1323.26 1276.15 Q1322.22 1277.7 1320.49 1278.86 Q1318.79 1279.97 1316.84 1279.97 Q1314.25 1279.97 1312.52 1278.24 Q1310.78 1276.51 1310.78 1273.92 Q1310.78 1272.51 1311.76 1269.84 Q1316.34 1257.65 1316.34 1253.28 Q1316.34 1248.12 1312.33 1248.12 Q1310.06 1248.12 1308.01 1249.06 Q1305.95 1250 1304.62 1251.3 Q1303.28 1252.6 1302.24 1254.08 Q1301.19 1255.56 1300.72 1256.53 Q1300.29 1257.5 1300.18 1257.94 L1295.74 1275.75 Q1295.38 1277.27 1295.13 1277.99 Q1294.88 1278.71 1294.19 1279.33 Q1293.51 1279.97 1292.42 1279.97 Q1291.52 1279.97 1290.87 1279.43 Q1290.26 1278.89 1290.26 1277.95 Q1290.26 1277.81 1290.44 1277.05 Q1290.62 1276.3 1290.87 1275.25 Q1291.13 1274.2 1291.23 1273.59 Q1292.53 1268.68 1292.71 1268 L1294.77 1259.41 Q1295.89 1255.16 1295.89 1253.28 Q1295.89 1248.12 1291.88 1248.12 Q1289.9 1248.12 1288.02 1248.88 Q1286.18 1249.6 1284.92 1250.61 Q1283.66 1251.62 1282.5 1253.03 Q1281.39 1254.4 1280.81 1255.34 Q1280.27 1256.24 1279.84 1257.14 L1278.9 1260.82 Q1278.68 1261.83 1277.64 1265.76 L1276.01 1272.44 Q1274.86 1277.41 1274.61 1277.88 Q1274.24 1278.89 1273.45 1279.43 Q1272.66 1279.97 1271.86 1279.97 Q1270.96 1279.97 1270.35 1279.43 Q1269.74 1278.89 1269.74 1277.95 Q1269.74 1277.81 1269.84 1277.27 Q1269.95 1276.73 1270.13 1275.97 Q1270.31 1275.21 1270.38 1274.78 L1274.68 1257.72 Q1275.47 1254.62 1275.65 1253.64 Q1275.87 1252.63 1275.87 1251.52 Q1275.87 1248.12 1273.56 1248.12 Q1271.68 1248.12 1270.46 1250.36 Q1269.23 1252.6 1268.18 1256.93 Q1267.86 1258.12 1267.64 1258.37 Q1267.46 1258.62 1266.92 1258.62 Q1266.02 1258.59 1266.02 1257.86 Q1266.02 1257.68 1266.31 1256.53 Q1266.6 1255.37 1267.14 1253.64 Q1267.72 1251.88 1268.33 1250.72 Q1268.69 1249.96 1269.01 1249.46 Q1269.34 1248.95 1269.99 1248.16 Q1270.64 1247.37 1271.61 1246.93 Q1272.59 1246.5 1273.78 1246.5 Q1276.41 1246.5 1278.36 1248.2 Q1280.34 1249.89 1280.59 1252.92 Q1285.39 1246.5 1292.1 1246.5 Q1295.89 1246.5 1298.16 1248.41 Q1300.29 1250.25 1300.54 1253.64 Q1305.52 1246.5 1312.59 1246.5 Q1316.66 1246.5 1318.86 1248.63 Q1321.06 1250.72 1321.06 1254.4 Q1321.06 1256.31 1320.09 1259.96 Q1319.12 1263.56 1318.47 1265.37 Q1317.82 1267.17 1316.56 1270.63 Q1315.22 1273.95 1315.22 1275.9 Q1315.22 1277.16 1315.65 1277.74 Q1316.09 1278.32 1317.02 1278.32 Q1318.47 1278.32 1319.73 1277.49 Q1320.99 1276.62 1321.89 1275.21 Q1322.83 1273.77 1323.44 1272.33 Q1324.06 1270.85 1324.53 1269.19 Q1324.82 1268.29 1324.96 1268.07 Q1325.14 1267.86 1325.64 1267.86 Q1326.55 1267.86 1326.55 1268.58 Z" fill="#000000" fill-rule="nonzero" fill-opacity="1" /><path clip-path="url(#clip740)" d="M1364.97 1268.58 Q1364 1273.23 1362.74 1275.9 Q1360.72 1279.97 1357.29 1279.97 Q1354.69 1279.97 1352.85 1278.39 Q1351.01 1276.8 1350.58 1274.42 Q1345.85 1279.97 1340.95 1279.97 Q1336.62 1279.97 1333.88 1276.69 Q1331.14 1273.37 1331.14 1268.14 Q1331.14 1262.88 1333.73 1257.83 Q1336.37 1252.78 1340.52 1249.64 Q1344.66 1246.5 1348.92 1246.5 Q1353.43 1246.5 1355.74 1251.23 Q1355.92 1249.93 1356.75 1248.95 Q1357.58 1247.98 1358.84 1247.98 Q1359.81 1247.98 1360.39 1248.52 Q1360.97 1249.03 1360.97 1249.96 Q1360.97 1250.43 1360.46 1252.49 L1357.79 1262.81 L1356.17 1269.48 Q1355.56 1271.93 1355.38 1272.83 Q1355.23 1273.73 1355.23 1274.93 Q1355.23 1278.32 1357.43 1278.32 Q1358.52 1278.32 1359.38 1277.63 Q1360.25 1276.94 1360.93 1275.5 Q1361.62 1274.06 1362.05 1272.72 Q1362.48 1271.35 1363.06 1269.19 Q1363.24 1268.32 1363.38 1268.11 Q1363.56 1267.86 1364.07 1267.86 Q1364.97 1267.86 1364.97 1268.58 M1354.84 1254.62 Q1354.84 1254.29 1354.58 1253.39 Q1354.33 1252.49 1353.75 1251.23 Q1353.18 1249.96 1351.91 1249.06 Q1350.69 1248.12 1349.03 1248.12 Q1346.79 1248.12 1344.45 1250.04 Q1342.14 1251.95 1340.44 1255.19 Q1339.15 1257.79 1337.74 1263.24 Q1336.37 1268.68 1336.37 1271.39 Q1336.37 1273.05 1336.73 1274.53 Q1337.13 1275.97 1338.24 1277.16 Q1339.36 1278.32 1341.09 1278.32 Q1345.31 1278.32 1349.46 1273.09 Q1350.25 1272.18 1350.44 1271.82 Q1350.65 1271.43 1350.94 1270.34 L1354.62 1255.88 Q1354.84 1254.8 1354.84 1254.62 Z" fill="#000000" fill-rule="nonzero" fill-opacity="1" /><path clip-path="url(#clip740)" d="M1404.84 1251.37 Q1404.84 1253.39 1403.58 1254.55 Q1402.32 1255.66 1400.88 1255.66 Q1399.51 1255.66 1398.78 1254.87 Q1398.06 1254.08 1398.06 1253.07 Q1398.06 1251.7 1399.07 1250.51 Q1400.08 1249.31 1401.6 1249.06 Q1400.12 1248.12 1397.92 1248.12 Q1396.48 1248.12 1395.21 1248.88 Q1393.99 1249.64 1393.23 1250.61 Q1392.51 1251.59 1391.86 1252.99 Q1391.24 1254.36 1390.99 1255.19 Q1390.78 1255.99 1390.6 1256.85 L1388.07 1266.95 Q1386.84 1271.75 1386.84 1273.45 Q1386.84 1275.54 1387.85 1276.94 Q1388.86 1278.32 1390.88 1278.32 Q1391.68 1278.32 1392.58 1278.1 Q1393.48 1277.85 1394.64 1277.2 Q1395.83 1276.51 1396.87 1275.5 Q1397.95 1274.46 1399 1272.69 Q1400.05 1270.92 1400.73 1268.65 Q1400.95 1267.86 1401.67 1267.86 Q1402.57 1267.86 1402.57 1268.58 Q1402.57 1269.19 1402.07 1270.49 Q1401.6 1271.75 1400.55 1273.41 Q1399.54 1275.03 1398.21 1276.51 Q1396.87 1277.95 1394.89 1278.96 Q1392.9 1279.97 1390.74 1279.97 Q1387.64 1279.97 1385.58 1278.32 Q1383.53 1276.66 1382.77 1274.35 Q1382.59 1274.67 1382.34 1275.11 Q1382.08 1275.54 1381.33 1276.51 Q1380.6 1277.45 1379.77 1278.17 Q1378.94 1278.86 1377.65 1279.4 Q1376.38 1279.97 1375.01 1279.97 Q1373.28 1279.97 1371.73 1279.47 Q1370.22 1278.96 1369.13 1277.81 Q1368.05 1276.66 1368.05 1275.07 Q1368.05 1273.3 1369.24 1272.08 Q1370.47 1270.81 1372.13 1270.81 Q1373.17 1270.81 1374 1271.43 Q1374.87 1272.04 1374.87 1273.37 Q1374.87 1274.85 1373.86 1275.97 Q1372.85 1277.09 1371.41 1277.38 Q1372.89 1278.32 1375.09 1278.32 Q1377.47 1278.32 1379.34 1276.22 Q1381.22 1274.13 1382.12 1270.63 Q1384.36 1262.23 1385.22 1258.48 Q1386.09 1254.69 1386.09 1253.07 Q1386.09 1251.55 1385.69 1250.51 Q1385.29 1249.46 1384.61 1248.99 Q1383.96 1248.49 1383.35 1248.3 Q1382.77 1248.12 1382.12 1248.12 Q1381.04 1248.12 1379.81 1248.56 Q1378.62 1248.99 1377.18 1250 Q1375.77 1250.97 1374.44 1252.99 Q1373.1 1255.01 1372.2 1257.79 Q1372.02 1258.62 1371.23 1258.62 Q1370.36 1258.59 1370.36 1257.86 Q1370.36 1257.25 1370.83 1255.99 Q1371.33 1254.69 1372.34 1253.07 Q1373.39 1251.44 1374.72 1250 Q1376.1 1248.52 1378.08 1247.51 Q1380.1 1246.5 1382.26 1246.5 Q1383.24 1246.5 1384.18 1246.72 Q1385.15 1246.9 1386.3 1247.44 Q1387.49 1247.98 1388.54 1249.17 Q1389.59 1250.36 1390.23 1252.09 Q1390.67 1251.26 1391.24 1250.47 Q1391.86 1249.68 1392.8 1248.7 Q1393.77 1247.69 1395.1 1247.11 Q1396.48 1246.5 1397.99 1246.5 Q1399.47 1246.5 1400.91 1246.9 Q1402.35 1247.26 1403.58 1248.45 Q1404.84 1249.6 1404.84 1251.37 Z" fill="#000000" fill-rule="nonzero" fill-opacity="1" /><path clip-path="url(#clip740)" d="M1421.15 1283.46 Q1421.15 1282.95 1421.56 1281.81 L1458.82 1182.26 Q1458.82 1182.16 1459.07 1181.59 Q1459.33 1181.02 1459.49 1180.66 Q1459.64 1180.25 1459.95 1179.94 Q1460.31 1179.63 1460.72 1179.63 Q1461.75 1179.63 1461.75 1180.92 Q1461.75 1181.02 1461.44 1182.26 L1424.08 1281.92 Q1423.47 1283.72 1423.05 1284.24 Q1422.69 1284.75 1422.07 1284.75 Q1421.15 1284.75 1421.15 1283.46 Z" fill="#000000" fill-rule="nonzero" fill-opacity="1" /><path clip-path="url(#clip740)" d="M1521.17 1218.59 Q1521.17 1221.53 1519.37 1223.28 Q1517.62 1225.03 1515.4 1225.03 Q1513.44 1225.03 1512.41 1223.9 Q1511.38 1222.76 1511.38 1221.32 Q1511.38 1220.7 1511.64 1219.93 Q1511.9 1219.1 1512.46 1218.12 Q1513.08 1217.15 1514.37 1216.42 Q1515.66 1215.7 1517.41 1215.6 Q1517.05 1215.24 1516.95 1215.19 Q1516.17 1214.57 1514.73 1214.36 Q1514.53 1214.26 1513.8 1214.26 Q1510.25 1214.26 1506.64 1216.89 Q1503.09 1219.46 1498.71 1224.36 Q1493.19 1230.08 1489.64 1232.19 Q1505.25 1234.25 1505.25 1243.27 Q1505.25 1244.76 1504.84 1246.57 Q1504.01 1249.97 1504.01 1252.44 Q1504.01 1257.39 1507.36 1257.39 Q1510.61 1257.39 1512.67 1254.09 Q1514.78 1250.79 1516.54 1244.35 Q1516.79 1243.17 1517.05 1242.81 Q1517.31 1242.45 1518.03 1242.45 Q1519.32 1242.45 1519.32 1243.48 Q1518.13 1249.51 1515.5 1254.14 Q1512.16 1259.76 1507.16 1259.76 Q1502.98 1259.76 1500.2 1256.87 Q1497.47 1253.94 1497.47 1249.3 Q1497.47 1248.17 1497.88 1245.59 Q1498.19 1244.56 1498.19 1243.37 Q1498.19 1240.95 1496.85 1239.15 Q1495.51 1237.29 1493.35 1236.37 Q1491.18 1235.44 1489.38 1235.03 Q1487.63 1234.56 1485.93 1234.41 Q1480.77 1256.2 1480.05 1257.54 Q1479.59 1258.47 1478.56 1259.09 Q1477.53 1259.76 1476.45 1259.76 Q1475.41 1259.76 1474.38 1259.04 Q1473.41 1258.37 1473.41 1256.77 Q1473.41 1255.95 1473.82 1254.45 L1489.12 1193.65 L1489.43 1191.59 Q1489.43 1190.97 1489.17 1190.66 Q1488.97 1190.3 1487.73 1190.04 Q1486.55 1189.78 1484.17 1189.78 Q1483.2 1189.78 1482.73 1189.73 Q1482.32 1189.68 1481.96 1189.42 Q1481.6 1189.11 1481.6 1188.49 Q1481.6 1187.62 1481.96 1187.15 Q1482.37 1186.64 1482.68 1186.54 Q1482.99 1186.43 1483.61 1186.38 Q1484.48 1186.33 1487.42 1186.07 Q1490.36 1185.76 1492.88 1185.56 Q1495.41 1185.35 1496.49 1185.35 Q1497.11 1185.35 1497.42 1185.66 Q1497.78 1185.92 1497.83 1186.23 L1497.88 1186.49 L1486.91 1231.01 Q1491.44 1229.2 1498.6 1221.22 Q1506.9 1211.94 1514.01 1211.94 Q1517.36 1211.94 1519.27 1214 Q1521.17 1216.01 1521.17 1218.59 Z" fill="#000000" fill-rule="nonzero" fill-opacity="1" /><path clip-path="url(#clip740)" d="M1568.79 1243.7 Q1568.79 1245.68 1567.53 1246.91 Q1566.31 1248.13 1564.75 1248.13 Q1563.64 1248.13 1562.81 1247.45 Q1562.01 1246.76 1562.01 1245.57 Q1562.01 1244.34 1562.95 1243.05 Q1563.89 1241.75 1566.02 1241.57 Q1564.61 1240.23 1562.37 1240.23 Q1561.26 1240.23 1560.32 1240.95 Q1559.42 1241.64 1558.91 1242.76 Q1558.37 1243.91 1557.14 1250.44 Q1556.75 1252.57 1556.39 1254.62 Q1556.03 1256.68 1555.59 1258.84 L1561.72 1258.84 Q1562.52 1258.84 1562.84 1258.88 Q1563.17 1258.92 1563.42 1259.1 Q1563.71 1259.28 1563.71 1259.67 Q1563.71 1260.68 1563.24 1260.94 Q1562.81 1261.15 1561.51 1261.15 L1555.16 1261.15 L1550.72 1284.56 Q1550.61 1285.25 1550.15 1287.41 Q1549.71 1289.54 1548.67 1293.04 Q1547.62 1296.57 1546.57 1298.67 Q1546 1299.86 1545.24 1300.98 Q1544.52 1302.13 1543.47 1303.28 Q1542.43 1304.44 1541.06 1305.12 Q1539.69 1305.84 1538.24 1305.84 Q1535.79 1305.84 1533.88 1304.47 Q1531.97 1303.1 1531.97 1300.76 Q1531.97 1298.78 1533.19 1297.55 Q1534.45 1296.32 1536.01 1296.32 Q1537.12 1296.32 1537.92 1297.01 Q1538.75 1297.69 1538.75 1298.88 Q1538.75 1299.39 1538.57 1299.97 Q1538.39 1300.54 1537.99 1301.19 Q1537.59 1301.88 1536.73 1302.35 Q1535.86 1302.81 1534.67 1302.89 Q1536.08 1304.22 1538.24 1304.22 Q1538.93 1304.22 1539.54 1303.93 Q1540.15 1303.68 1540.66 1303.03 Q1541.2 1302.38 1541.6 1301.73 Q1541.99 1301.12 1542.39 1299.93 Q1542.79 1298.78 1543.04 1297.91 Q1543.29 1297.04 1543.62 1295.49 Q1543.98 1293.94 1544.16 1293 Q1544.34 1292.1 1544.66 1290.33 L1550.18 1261.15 L1545.31 1261.15 Q1544.45 1261.15 1544.09 1261.12 Q1543.76 1261.08 1543.51 1260.9 Q1543.26 1260.68 1543.26 1260.25 Q1543.26 1259.57 1543.54 1259.28 Q1543.87 1258.95 1544.23 1258.92 Q1544.59 1258.84 1545.46 1258.84 L1550.58 1258.84 Q1552.31 1249.72 1553 1247.27 Q1553.79 1244.67 1555.02 1242.87 Q1556.24 1241.03 1557.61 1240.16 Q1558.98 1239.29 1560.1 1238.97 Q1561.26 1238.61 1562.37 1238.61 Q1564.9 1238.61 1566.85 1239.98 Q1568.79 1241.31 1568.79 1243.7 Z" fill="#000000" fill-rule="nonzero" fill-opacity="1" /><polyline clip-path="url(#clip740)" style="stroke:#000000; stroke-linecap:round; stroke-linejoin:round; stroke-width:6.4; stroke-opacity:1; fill:none" points="462.746,1044.49 462.746,225.924 "/>
<polyline clip-path="url(#clip740)" style="stroke:#000000; stroke-linecap:round; stroke-linejoin:round; stroke-width:6.4; stroke-opacity:1; fill:none" points="2324.41,1044.49 2324.41,225.924 "/>
<polyline clip-path="url(#clip740)" style="stroke:#000000; stroke-linecap:round; stroke-linejoin:round; stroke-width:6.4; stroke-opacity:1; fill:none" points="462.746,1005.52 481.643,1005.52 "/>
<polyline clip-path="url(#clip740)" style="stroke:#000000; stroke-linecap:round; stroke-linejoin:round; stroke-width:6.4; stroke-opacity:1; fill:none" points="462.746,693.679 481.643,693.679 "/>
<polyline clip-path="url(#clip740)" style="stroke:#000000; stroke-linecap:round; stroke-linejoin:round; stroke-width:6.4; stroke-opacity:1; fill:none" points="462.746,381.842 481.643,381.842 "/>
<polyline clip-path="url(#clip740)" style="stroke:#000000; stroke-linecap:round; stroke-linejoin:round; stroke-width:6.4; stroke-opacity:1; fill:none" points="2324.41,1005.52 2305.51,1005.52 "/>
<polyline clip-path="url(#clip740)" style="stroke:#000000; stroke-linecap:round; stroke-linejoin:round; stroke-width:6.4; stroke-opacity:1; fill:none" points="2324.41,693.679 2305.51,693.679 "/>
<polyline clip-path="url(#clip740)" style="stroke:#000000; stroke-linecap:round; stroke-linejoin:round; stroke-width:6.4; stroke-opacity:1; fill:none" points="2324.41,381.842 2305.51,381.842 "/>
<path clip-path="url(#clip740)" d="M335.413 982.793 Q329.635 982.793 326.709 988.497 Q323.82 994.164 323.82 1005.57 Q323.82 1016.94 326.709 1022.64 Q329.635 1028.31 335.413 1028.31 Q341.228 1028.31 344.116 1022.64 Q347.042 1016.94 347.042 1005.57 Q347.042 994.164 344.116 988.497 Q341.228 982.793 335.413 982.793 M335.413 976.867 Q344.709 976.867 349.598 984.238 Q354.524 991.571 354.524 1005.57 Q354.524 1019.53 349.598 1026.9 Q344.709 1034.24 335.413 1034.24 Q326.117 1034.24 321.191 1026.9 Q316.302 1019.53 316.302 1005.57 Q316.302 991.571 321.191 984.238 Q326.117 976.867 335.413 976.867 Z" fill="#000000" fill-rule="nonzero" fill-opacity="1" /><path clip-path="url(#clip740)" d="M367.672 1023.76 L375.487 1023.76 L375.487 1033.16 L367.672 1033.16 L367.672 1023.76 Z" fill="#000000" fill-rule="nonzero" fill-opacity="1" /><path clip-path="url(#clip740)" d="M407.783 1006.9 Q402.449 1006.9 399.375 1009.76 Q396.338 1012.61 396.338 1017.61 Q396.338 1022.61 399.375 1025.46 Q402.449 1028.31 407.783 1028.31 Q413.116 1028.31 416.19 1025.46 Q419.264 1022.57 419.264 1017.61 Q419.264 1012.61 416.19 1009.76 Q413.153 1006.9 407.783 1006.9 M400.301 1003.72 Q395.487 1002.53 392.783 999.238 Q390.116 995.941 390.116 991.201 Q390.116 984.571 394.82 980.719 Q399.561 976.867 407.783 976.867 Q416.042 976.867 420.746 980.719 Q425.449 984.571 425.449 991.201 Q425.449 995.941 422.746 999.238 Q420.079 1002.53 415.301 1003.72 Q420.709 1004.98 423.709 1008.64 Q426.746 1012.31 426.746 1017.61 Q426.746 1025.64 421.82 1029.94 Q416.931 1034.24 407.783 1034.24 Q398.635 1034.24 393.709 1029.94 Q388.82 1025.64 388.82 1017.61 Q388.82 1012.31 391.857 1008.64 Q394.894 1004.98 400.301 1003.72 M397.561 991.904 Q397.561 996.201 400.227 998.608 Q402.931 1001.02 407.783 1001.02 Q412.598 1001.02 415.301 998.608 Q418.042 996.201 418.042 991.904 Q418.042 987.608 415.301 985.201 Q412.598 982.793 407.783 982.793 Q402.931 982.793 400.227 985.201 Q397.561 987.608 397.561 991.904 Z" fill="#000000" fill-rule="nonzero" fill-opacity="1" /><path clip-path="url(#clip740)" d="M323.117 715.031 L335.339 715.031 L335.339 672.846 L322.042 675.512 L322.042 668.698 L335.265 666.031 L342.746 666.031 L342.746 715.031 L354.968 715.031 L354.968 721.327 L323.117 721.327 L323.117 715.031 Z" fill="#000000" fill-rule="nonzero" fill-opacity="1" /><path clip-path="url(#clip740)" d="M370.079 711.92 L377.894 711.92 L377.894 721.327 L370.079 721.327 L370.079 711.92 Z" fill="#000000" fill-rule="nonzero" fill-opacity="1" /><path clip-path="url(#clip740)" d="M400.635 715.031 L426.746 715.031 L426.746 721.327 L391.635 721.327 L391.635 715.031 Q395.894 710.623 403.227 703.216 Q410.598 695.771 412.486 693.623 Q416.079 689.586 417.486 686.809 Q418.931 683.994 418.931 681.29 Q418.931 676.883 415.82 674.105 Q412.746 671.327 407.783 671.327 Q404.264 671.327 400.338 672.549 Q396.449 673.772 392.005 676.253 L392.005 668.698 Q396.524 666.883 400.449 665.957 Q404.375 665.031 407.635 665.031 Q416.227 665.031 421.338 669.327 Q426.449 673.623 426.449 680.809 Q426.449 684.216 425.153 687.29 Q423.894 690.327 420.523 694.475 Q419.598 695.549 414.635 700.697 Q409.672 705.808 400.635 715.031 Z" fill="#000000" fill-rule="nonzero" fill-opacity="1" /><path clip-path="url(#clip740)" d="M320.302 403.194 L332.524 403.194 L332.524 361.009 L319.228 363.676 L319.228 356.861 L332.45 354.194 L339.931 354.194 L339.931 403.194 L352.153 403.194 L352.153 409.49 L320.302 409.49 L320.302 403.194 Z" fill="#000000" fill-rule="nonzero" fill-opacity="1" /><path clip-path="url(#clip740)" d="M367.264 400.083 L375.079 400.083 L375.079 409.49 L367.264 409.49 L367.264 400.083 Z" fill="#000000" fill-rule="nonzero" fill-opacity="1" /><path clip-path="url(#clip740)" d="M408.301 378.861 Q403.264 378.861 400.301 382.305 Q397.375 385.75 397.375 391.75 Q397.375 397.713 400.301 401.194 Q403.264 404.639 408.301 404.639 Q413.338 404.639 416.264 401.194 Q419.227 397.713 419.227 391.75 Q419.227 385.75 416.264 382.305 Q413.338 378.861 408.301 378.861 M423.153 355.417 L423.153 362.231 Q420.338 360.898 417.449 360.194 Q414.598 359.491 411.783 359.491 Q404.375 359.491 400.449 364.491 Q396.561 369.491 396.005 379.602 Q398.19 376.379 401.486 374.676 Q404.783 372.935 408.746 372.935 Q417.079 372.935 421.894 378.009 Q426.746 383.046 426.746 391.75 Q426.746 400.268 421.709 405.416 Q416.672 410.564 408.301 410.564 Q398.709 410.564 393.635 403.231 Q388.561 395.861 388.561 381.898 Q388.561 368.787 394.783 361.009 Q401.005 353.194 411.486 353.194 Q414.301 353.194 417.153 353.75 Q420.042 354.305 423.153 355.417 Z" fill="#000000" fill-rule="nonzero" fill-opacity="1" /><path clip-path="url(#clip740)" d="M285.086 682.491 Q285.962 682.491 286.58 683.11 Q287.198 683.728 287.198 684.604 Q287.198 686.099 285.807 686.614 L235.154 706.246 Q234.948 706.35 234.432 706.35 Q233.917 706.35 233.711 706.246 L183.058 686.614 Q181.666 686.099 181.666 684.604 Q181.666 683.728 182.285 683.11 Q182.903 682.491 183.779 682.491 Q184.294 682.491 184.5 682.595 L234.432 702.021 L284.364 682.595 Q284.57 682.491 285.086 682.491 Z" fill="#000000" fill-rule="nonzero" fill-opacity="1" /><path clip-path="url(#clip740)" d="M190.529 593.947 Q191.508 593.947 192.333 594.153 L210.677 597.039 Q212.069 597.193 212.584 597.502 Q213.099 597.76 213.099 598.584 Q213.099 599.873 211.759 599.873 Q210.986 599.873 209.75 599.564 Q203.927 598.688 201.299 598.688 Q199.547 598.688 198.259 599.048 Q196.919 599.357 195.991 599.873 Q195.064 600.336 194.446 601.419 Q193.827 602.501 193.466 603.531 Q193.106 604.562 192.951 606.417 Q192.745 608.272 192.694 609.869 Q192.642 611.467 192.642 614.095 Q192.642 619.815 192.848 620.742 Q193.106 621.721 193.879 622.236 Q194.6 622.7 196.764 623.216 L252.777 637.232 L254.993 637.644 Q256.229 637.644 256.641 636.871 Q257.054 636.098 257.311 633.728 Q257.569 630.327 257.569 626.977 Q257.569 626.874 257.569 626.668 Q257.569 625.534 257.621 625.071 Q257.621 624.607 257.724 624.143 Q257.827 623.679 258.084 623.576 Q258.29 623.422 258.703 623.422 Q259.682 623.422 260.197 623.834 Q260.661 624.246 260.764 624.658 Q260.815 625.019 260.815 625.74 Q260.815 627.183 260.712 630.275 Q260.609 633.367 260.609 634.913 L260.506 643.673 L260.609 652.639 Q260.609 654.03 260.712 656.967 Q260.815 659.904 260.815 661.296 Q260.815 663.099 259.527 663.099 Q258.084 663.099 257.827 662.429 Q257.569 661.708 257.569 658.668 Q257.569 654.391 257.363 652.072 Q257.157 649.753 256.435 648.516 Q255.714 647.228 254.993 646.868 Q254.22 646.507 252.468 646.095 L196.146 631.924 Q194.909 631.512 193.93 631.512 Q193.415 631.512 193.209 631.666 Q193.003 631.769 192.848 632.439 Q192.642 633.109 192.642 634.5 L192.642 638.623 Q192.642 642.848 192.848 645.476 Q193.003 648.053 193.776 650.526 Q194.549 652.948 195.631 654.391 Q196.713 655.782 198.929 657.328 Q201.144 658.874 203.824 660.008 Q206.503 661.09 210.883 662.636 Q212.326 663.151 212.738 663.46 Q213.099 663.718 213.099 664.439 Q213.099 664.954 212.79 665.367 Q212.429 665.727 211.966 665.727 Q210.265 665.212 210.059 665.109 L191.457 658.771 Q189.962 658.256 189.705 657.792 Q189.396 657.276 189.396 655.37 L189.396 596.832 Q189.396 595.905 189.396 595.596 Q189.396 595.287 189.499 594.771 Q189.602 594.256 189.859 594.101 Q190.117 593.947 190.529 593.947 Z" fill="#000000" fill-rule="nonzero" fill-opacity="1" /><path clip-path="url(#clip740)" d="M233.711 580.988 Q233.917 580.885 234.432 580.885 Q234.948 580.885 235.154 580.988 L285.807 600.621 Q287.198 601.136 287.198 602.579 Q287.198 603.455 286.58 604.073 Q285.962 604.692 285.086 604.692 Q284.57 604.692 284.364 604.589 L234.432 585.214 L184.5 604.589 Q184.294 604.692 183.779 604.692 Q182.903 604.692 182.285 604.073 Q181.666 603.455 181.666 602.579 Q181.666 601.136 183.058 600.621 L233.711 580.988 Z" fill="#000000" fill-rule="nonzero" fill-opacity="1" /><polyline clip-path="url(#clip742)" style="stroke:#e26f46; stroke-linecap:round; stroke-linejoin:round; stroke-width:6.4; stroke-opacity:1; fill:none" points="2235.19,894.501 1095.85,886.156 852.295,887.626 672.807,875.001 "/>
<circle clip-path="url(#clip742)" cx="2235.19" cy="894.501" r="23.04" fill="#e26f46" fill-rule="evenodd" fill-opacity="1" stroke="none"/>
<circle clip-path="url(#clip742)" cx="1095.85" cy="886.156" r="23.04" fill="#e26f46" fill-rule="evenodd" fill-opacity="1" stroke="none"/>
<circle clip-path="url(#clip742)" cx="852.295" cy="887.626" r="23.04" fill="#e26f46" fill-rule="evenodd" fill-opacity="1" stroke="none"/>
<circle clip-path="url(#clip742)" cx="672.807" cy="875.001" r="23.04" fill="#e26f46" fill-rule="evenodd" fill-opacity="1" stroke="none"/>
<polyline clip-path="url(#clip742)" style="stroke:#e26f46; stroke-linecap:round; stroke-linejoin:round; stroke-width:6.4; stroke-opacity:1; fill:none" points="2235.19,916.095 2235.19,872.907 "/>
<polyline clip-path="url(#clip742)" style="stroke:#e26f46; stroke-linecap:round; stroke-linejoin:round; stroke-width:6.4; stroke-opacity:1; fill:none" points="1095.85,917.946 1095.85,854.365 "/>
<polyline clip-path="url(#clip742)" style="stroke:#e26f46; stroke-linecap:round; stroke-linejoin:round; stroke-width:6.4; stroke-opacity:1; fill:none" points="852.295,969.828 852.295,805.424 "/>
<polyline clip-path="url(#clip742)" style="stroke:#e26f46; stroke-linecap:round; stroke-linejoin:round; stroke-width:6.4; stroke-opacity:1; fill:none" points="672.807,1006.86 672.807,743.147 "/>
<line clip-path="url(#clip742)" x1="2260.79" y1="916.095" x2="2209.59" y2="916.095" style="stroke:#e26f46; stroke-width:6.4; stroke-opacity:1"/>
<line clip-path="url(#clip742)" x1="2260.79" y1="872.907" x2="2209.59" y2="872.907" style="stroke:#e26f46; stroke-width:6.4; stroke-opacity:1"/>
<line clip-path="url(#clip742)" x1="1121.45" y1="917.946" x2="1070.25" y2="917.946" style="stroke:#e26f46; stroke-width:6.4; stroke-opacity:1"/>
<line clip-path="url(#clip742)" x1="1121.45" y1="854.365" x2="1070.25" y2="854.365" style="stroke:#e26f46; stroke-width:6.4; stroke-opacity:1"/>
<line clip-path="url(#clip742)" x1="877.895" y1="969.828" x2="826.695" y2="969.828" style="stroke:#e26f46; stroke-width:6.4; stroke-opacity:1"/>
<line clip-path="url(#clip742)" x1="877.895" y1="805.424" x2="826.695" y2="805.424" style="stroke:#e26f46; stroke-width:6.4; stroke-opacity:1"/>
<line clip-path="url(#clip742)" x1="698.407" y1="1006.86" x2="647.207" y2="1006.86" style="stroke:#e26f46; stroke-width:6.4; stroke-opacity:1"/>
<line clip-path="url(#clip742)" x1="698.407" y1="743.147" x2="647.207" y2="743.147" style="stroke:#e26f46; stroke-width:6.4; stroke-opacity:1"/>
<polyline clip-path="url(#clip742)" style="stroke:#009af9; stroke-linecap:round; stroke-linejoin:round; stroke-width:6.4; stroke-opacity:1; fill:none" stroke-dasharray="26, 16" points="2235.19,953.105 1095.85,949.242 852.295,925.329 672.807,939.496 530.339,369.423 "/>
<path clip-path="url(#clip742)" d="M2235.19 927.505 L2209.59 953.105 L2235.19 978.705 L2260.79 953.105 L2235.19 927.505 Z" fill="#009af9" fill-rule="evenodd" fill-opacity="1" stroke="none"/>
<path clip-path="url(#clip742)" d="M1095.85 923.642 L1070.25 949.242 L1095.85 974.842 L1121.45 949.242 L1095.85 923.642 Z" fill="#009af9" fill-rule="evenodd" fill-opacity="1" stroke="none"/>
<path clip-path="url(#clip742)" d="M852.295 899.729 L826.695 925.329 L852.295 950.929 L877.895 925.329 L852.295 899.729 Z" fill="#009af9" fill-rule="evenodd" fill-opacity="1" stroke="none"/>
<path clip-path="url(#clip742)" d="M672.807 913.896 L647.207 939.496 L672.807 965.096 L698.407 939.496 L672.807 913.896 Z" fill="#009af9" fill-rule="evenodd" fill-opacity="1" stroke="none"/>
<path clip-path="url(#clip742)" d="M530.339 343.823 L504.739 369.423 L530.339 395.023 L555.939 369.423 L530.339 343.823 Z" fill="#009af9" fill-rule="evenodd" fill-opacity="1" stroke="none"/>
<polyline clip-path="url(#clip742)" style="stroke:#009af9; stroke-linecap:round; stroke-linejoin:round; stroke-width:6.4; stroke-opacity:1; fill:none" stroke-dasharray="26, 16" points="2235.19,956.958 2235.19,949.253 "/>
<polyline clip-path="url(#clip742)" style="stroke:#009af9; stroke-linecap:round; stroke-linejoin:round; stroke-width:6.4; stroke-opacity:1; fill:none" stroke-dasharray="26, 16" points="1095.85,953.778 1095.85,944.706 "/>
<polyline clip-path="url(#clip742)" style="stroke:#009af9; stroke-linecap:round; stroke-linejoin:round; stroke-width:6.4; stroke-opacity:1; fill:none" stroke-dasharray="26, 16" points="852.295,932.802 852.295,917.855 "/>
<polyline clip-path="url(#clip742)" style="stroke:#009af9; stroke-linecap:round; stroke-linejoin:round; stroke-width:6.4; stroke-opacity:1; fill:none" stroke-dasharray="26, 16" points="672.807,943.284 672.807,935.709 "/>
<polyline clip-path="url(#clip742)" style="stroke:#009af9; stroke-linecap:round; stroke-linejoin:round; stroke-width:6.4; stroke-opacity:1; fill:none" stroke-dasharray="26, 16" points="530.339,492.056 530.339,246.789 "/>
<line clip-path="url(#clip742)" x1="2260.79" y1="956.958" x2="2209.59" y2="956.958" style="stroke:#009af9; stroke-width:6.4; stroke-opacity:1"/>
<line clip-path="url(#clip742)" x1="2260.79" y1="949.253" x2="2209.59" y2="949.253" style="stroke:#009af9; stroke-width:6.4; stroke-opacity:1"/>
<line clip-path="url(#clip742)" x1="1121.45" y1="953.778" x2="1070.25" y2="953.778" style="stroke:#009af9; stroke-width:6.4; stroke-opacity:1"/>
<line clip-path="url(#clip742)" x1="1121.45" y1="944.706" x2="1070.25" y2="944.706" style="stroke:#009af9; stroke-width:6.4; stroke-opacity:1"/>
<line clip-path="url(#clip742)" x1="877.895" y1="932.802" x2="826.695" y2="932.802" style="stroke:#009af9; stroke-width:6.4; stroke-opacity:1"/>
<line clip-path="url(#clip742)" x1="877.895" y1="917.855" x2="826.695" y2="917.855" style="stroke:#009af9; stroke-width:6.4; stroke-opacity:1"/>
<line clip-path="url(#clip742)" x1="698.407" y1="943.284" x2="647.207" y2="943.284" style="stroke:#009af9; stroke-width:6.4; stroke-opacity:1"/>
<line clip-path="url(#clip742)" x1="698.407" y1="935.709" x2="647.207" y2="935.709" style="stroke:#009af9; stroke-width:6.4; stroke-opacity:1"/>
<line clip-path="url(#clip742)" x1="555.939" y1="492.056" x2="504.739" y2="492.056" style="stroke:#009af9; stroke-width:6.4; stroke-opacity:1"/>
<line clip-path="url(#clip742)" x1="555.939" y1="246.789" x2="504.739" y2="246.789" style="stroke:#009af9; stroke-width:6.4; stroke-opacity:1"/>
</svg>
