<?xml version="1.0" encoding="utf-8"?>
<svg xmlns="http://www.w3.org/2000/svg" xmlns:xlink="http://www.w3.org/1999/xlink" width="600" height="400" viewBox="0 0 2400 1600">
<defs>
  <clipPath id="clip730">
    <rect x="0" y="0" width="2400" height="1600"/>
  </clipPath>
</defs>
<path clip-path="url(#clip730)" d="M0 1600 L2400 1600 L2400 8.88178e-14 L0 8.88178e-14  Z" fill="#ffffff" fill-rule="evenodd" fill-opacity="1"/>
<defs>
  <clipPath id="clip731">
    <rect x="480" y="0" width="1681" height="1600"/>
  </clipPath>
</defs>
<path clip-path="url(#clip730)" d="M462.746 947.046 L2324.41 947.046 L2324.41 323.373 L462.746 323.373  Z" fill="#ffffff" fill-rule="evenodd" fill-opacity="1"/>
<defs>
  <clipPath id="clip732">
    <rect x="462" y="323" width="1863" height="625"/>
  </clipPath>
</defs>
<polyline clip-path="url(#clip732)" style="stroke:#000000; stroke-linecap:round; stroke-linejoin:round; stroke-width:3.2; stroke-opacity:0.1; fill:none" points="885.784,947.046 885.784,323.373 "/>
<polyline clip-path="url(#clip732)" style="stroke:#000000; stroke-linecap:round; stroke-linejoin:round; stroke-width:3.2; stroke-opacity:0.1; fill:none" points="1694.84,947.046 1694.84,323.373 "/>
<polyline clip-path="url(#clip732)" style="stroke:#000000; stroke-linecap:round; stroke-linejoin:round; stroke-width:3.2; stroke-opacity:0.1; fill:none" points="885.784,947.046 885.784,323.373 "/>
<polyline clip-path="url(#clip732)" style="stroke:#000000; stroke-linecap:round; stroke-linejoin:round; stroke-width:3.2; stroke-opacity:0.1; fill:none" points="1694.84,947.046 1694.84,323.373 "/>
<polyline clip-path="url(#clip732)" style="stroke:#000000; stroke-linecap:round; stroke-linejoin:round; stroke-width:3.2; stroke-opacity:0.1; fill:none" points="462.746,947.046 2324.41,947.046 "/>
<polyline clip-path="url(#clip732)" style="stroke:#000000; stroke-linecap:round; stroke-linejoin:round; stroke-width:3.2; stroke-opacity:0.1; fill:none" points="462.746,635.21 2324.41,635.21 "/>
<polyline clip-path="url(#clip732)" style="stroke:#000000; stroke-linecap:round; stroke-linejoin:round; stroke-width:3.2; stroke-opacity:0.1; fill:none" points="462.746,323.373 2324.41,323.373 "/>
<polyline clip-path="url(#clip732)" style="stroke:#000000; stroke-linecap:round; stroke-linejoin:round; stroke-width:3.2; stroke-opacity:0.1; fill:none" points="462.746,947.046 2324.41,947.046 "/>
<polyline clip-path="url(#clip732)" style="stroke:#000000; stroke-linecap:round; stroke-linejoin:round; stroke-width:3.2; stroke-opacity:0.1; fill:none" points="462.746,635.21 2324.41,635.21 "/>
<polyline clip-path="url(#clip732)" style="stroke:#000000; stroke-linecap:round; stroke-linejoin:round; stroke-width:3.2; stroke-opacity:0.1; fill:none" points="462.746,323.373 2324.41,323.373 "/>
<polyline clip-path="url(#clip730)" style="stroke:#000000; stroke-linecap:round; stroke-linejoin:round; stroke-width:6.4; stroke-opacity:1; fill:none" points="462.746,947.046 2324.41,947.046 "/>
<polyline clip-path="url(#clip730)" style="stroke:#000000; stroke-linecap:round; stroke-linejoin:round; stroke-width:6.4; stroke-opacity:1; fill:none" points="462.746,323.373 2324.41,323.373 "/>
<polyline clip-path="url(#clip730)" style="stroke:#000000; stroke-linecap:round; stroke-linejoin:round; stroke-width:6.4; stroke-opacity:1; fill:none" points="885.784,947.046 885.784,936.516 "/>
<polyline clip-path="url(#clip730)" style="stroke:#000000; stroke-linecap:round; stroke-linejoin:round; stroke-width:6.4; stroke-opacity:1; fill:none" points="1694.84,947.046 1694.84,936.516 "/>
<polyline clip-path="url(#clip730)" style="stroke:#000000; stroke-linecap:round; stroke-linejoin:round; stroke-width:6.4; stroke-opacity:1; fill:none" points="885.784,323.373 885.784,333.903 "/>
<polyline clip-path="url(#clip730)" style="stroke:#000000; stroke-linecap:round; stroke-linejoin:round; stroke-width:6.4; stroke-opacity:1; fill:none" points="1694.84,323.373 1694.84,333.903 "/>
<polyline clip-path="url(#clip730)" style="stroke:#000000; stroke-linecap:round; stroke-linejoin:round; stroke-width:6.4; stroke-opacity:1; fill:none" points="462.746,947.046 462.746,941.781 "/>
<polyline clip-path="url(#clip730)" style="stroke:#000000; stroke-linecap:round; stroke-linejoin:round; stroke-width:6.4; stroke-opacity:1; fill:none" points="563.828,947.046 563.828,941.781 "/>
<polyline clip-path="url(#clip730)" style="stroke:#000000; stroke-linecap:round; stroke-linejoin:round; stroke-width:6.4; stroke-opacity:1; fill:none" points="642.234,947.046 642.234,941.781 "/>
<polyline clip-path="url(#clip730)" style="stroke:#000000; stroke-linecap:round; stroke-linejoin:round; stroke-width:6.4; stroke-opacity:1; fill:none" points="706.296,947.046 706.296,941.781 "/>
<polyline clip-path="url(#clip730)" style="stroke:#000000; stroke-linecap:round; stroke-linejoin:round; stroke-width:6.4; stroke-opacity:1; fill:none" points="760.46,947.046 760.46,941.781 "/>
<polyline clip-path="url(#clip730)" style="stroke:#000000; stroke-linecap:round; stroke-linejoin:round; stroke-width:6.4; stroke-opacity:1; fill:none" points="807.378,947.046 807.378,941.781 "/>
<polyline clip-path="url(#clip730)" style="stroke:#000000; stroke-linecap:round; stroke-linejoin:round; stroke-width:6.4; stroke-opacity:1; fill:none" points="848.764,947.046 848.764,941.781 "/>
<polyline clip-path="url(#clip730)" style="stroke:#000000; stroke-linecap:round; stroke-linejoin:round; stroke-width:6.4; stroke-opacity:1; fill:none" points="1129.33,947.046 1129.33,941.781 "/>
<polyline clip-path="url(#clip730)" style="stroke:#000000; stroke-linecap:round; stroke-linejoin:round; stroke-width:6.4; stroke-opacity:1; fill:none" points="1271.8,947.046 1271.8,941.781 "/>
<polyline clip-path="url(#clip730)" style="stroke:#000000; stroke-linecap:round; stroke-linejoin:round; stroke-width:6.4; stroke-opacity:1; fill:none" points="1372.88,947.046 1372.88,941.781 "/>
<polyline clip-path="url(#clip730)" style="stroke:#000000; stroke-linecap:round; stroke-linejoin:round; stroke-width:6.4; stroke-opacity:1; fill:none" points="1451.29,947.046 1451.29,941.781 "/>
<polyline clip-path="url(#clip730)" style="stroke:#000000; stroke-linecap:round; stroke-linejoin:round; stroke-width:6.4; stroke-opacity:1; fill:none" points="1515.35,947.046 1515.35,941.781 "/>
<polyline clip-path="url(#clip730)" style="stroke:#000000; stroke-linecap:round; stroke-linejoin:round; stroke-width:6.4; stroke-opacity:1; fill:none" points="1569.52,947.046 1569.52,941.781 "/>
<polyline clip-path="url(#clip730)" style="stroke:#000000; stroke-linecap:round; stroke-linejoin:round; stroke-width:6.4; stroke-opacity:1; fill:none" points="1616.44,947.046 1616.44,941.781 "/>
<polyline clip-path="url(#clip730)" style="stroke:#000000; stroke-linecap:round; stroke-linejoin:round; stroke-width:6.4; stroke-opacity:1; fill:none" points="1657.82,947.046 1657.82,941.781 "/>
<polyline clip-path="url(#clip730)" style="stroke:#000000; stroke-linecap:round; stroke-linejoin:round; stroke-width:6.4; stroke-opacity:1; fill:none" points="1938.39,947.046 1938.39,941.781 "/>
<polyline clip-path="url(#clip730)" style="stroke:#000000; stroke-linecap:round; stroke-linejoin:round; stroke-width:6.4; stroke-opacity:1; fill:none" points="2080.86,947.046 2080.86,941.781 "/>
<polyline clip-path="url(#clip730)" style="stroke:#000000; stroke-linecap:round; stroke-linejoin:round; stroke-width:6.4; stroke-opacity:1; fill:none" points="2181.94,947.046 2181.94,941.781 "/>
<polyline clip-path="url(#clip730)" style="stroke:#000000; stroke-linecap:round; stroke-linejoin:round; stroke-width:6.4; stroke-opacity:1; fill:none" points="2260.35,947.046 2260.35,941.781 "/>
<polyline clip-path="url(#clip730)" style="stroke:#000000; stroke-linecap:round; stroke-linejoin:round; stroke-width:6.4; stroke-opacity:1; fill:none" points="2324.41,947.046 2324.41,941.781 "/>
<polyline clip-path="url(#clip730)" style="stroke:#000000; stroke-linecap:round; stroke-linejoin:round; stroke-width:6.4; stroke-opacity:1; fill:none" points="462.746,323.373 462.746,328.638 "/>
<polyline clip-path="url(#clip730)" style="stroke:#000000; stroke-linecap:round; stroke-linejoin:round; stroke-width:6.4; stroke-opacity:1; fill:none" points="563.828,323.373 563.828,328.638 "/>
<polyline clip-path="url(#clip730)" style="stroke:#000000; stroke-linecap:round; stroke-linejoin:round; stroke-width:6.4; stroke-opacity:1; fill:none" points="642.234,323.373 642.234,328.638 "/>
<polyline clip-path="url(#clip730)" style="stroke:#000000; stroke-linecap:round; stroke-linejoin:round; stroke-width:6.4; stroke-opacity:1; fill:none" points="706.296,323.373 706.296,328.638 "/>
<polyline clip-path="url(#clip730)" style="stroke:#000000; stroke-linecap:round; stroke-linejoin:round; stroke-width:6.4; stroke-opacity:1; fill:none" points="760.46,323.373 760.46,328.638 "/>
<polyline clip-path="url(#clip730)" style="stroke:#000000; stroke-linecap:round; stroke-linejoin:round; stroke-width:6.4; stroke-opacity:1; fill:none" points="807.378,323.373 807.378,328.638 "/>
<polyline clip-path="url(#clip730)" style="stroke:#000000; stroke-linecap:round; stroke-linejoin:round; stroke-width:6.4; stroke-opacity:1; fill:none" points="848.764,323.373 848.764,328.638 "/>
<polyline clip-path="url(#clip730)" style="stroke:#000000; stroke-linecap:round; stroke-linejoin:round; stroke-width:6.4; stroke-opacity:1; fill:none" points="1129.33,323.373 1129.33,328.638 "/>
<polyline clip-path="url(#clip730)" style="stroke:#000000; stroke-linecap:round; stroke-linejoin:round; stroke-width:6.4; stroke-opacity:1; fill:none" points="1271.8,323.373 1271.8,328.638 "/>
<polyline clip-path="url(#clip730)" style="stroke:#000000; stroke-linecap:round; stroke-linejoin:round; stroke-width:6.4; stroke-opacity:1; fill:none" points="1372.88,323.373 1372.88,328.638 "/>
<polyline clip-path="url(#clip730)" style="stroke:#000000; stroke-linecap:round; stroke-linejoin:round; stroke-width:6.4; stroke-opacity:1; fill:none" points="1451.29,323.373 1451.29,328.638 "/>
<polyline clip-path="url(#clip730)" style="stroke:#000000; stroke-linecap:round; stroke-linejoin:round; stroke-width:6.4; stroke-opacity:1; fill:none" points="1515.35,323.373 1515.35,328.638 "/>
<polyline clip-path="url(#clip730)" style="stroke:#000000; stroke-linecap:round; stroke-linejoin:round; stroke-width:6.4; stroke-opacity:1; fill:none" points="1569.52,323.373 1569.52,328.638 "/>
<polyline clip-path="url(#clip730)" style="stroke:#000000; stroke-linecap:round; stroke-linejoin:round; stroke-width:6.4; stroke-opacity:1; fill:none" points="1616.44,323.373 1616.44,328.638 "/>
<polyline clip-path="url(#clip730)" style="stroke:#000000; stroke-linecap:round; stroke-linejoin:round; stroke-width:6.4; stroke-opacity:1; fill:none" points="1657.82,323.373 1657.82,328.638 "/>
<polyline clip-path="url(#clip730)" style="stroke:#000000; stroke-linecap:round; stroke-linejoin:round; stroke-width:6.4; stroke-opacity:1; fill:none" points="1938.39,323.373 1938.39,328.638 "/>
<polyline clip-path="url(#clip730)" style="stroke:#000000; stroke-linecap:round; stroke-linejoin:round; stroke-width:6.4; stroke-opacity:1; fill:none" points="2080.86,323.373 2080.86,328.638 "/>
<polyline clip-path="url(#clip730)" style="stroke:#000000; stroke-linecap:round; stroke-linejoin:round; stroke-width:6.4; stroke-opacity:1; fill:none" points="2181.94,323.373 2181.94,328.638 "/>
<polyline clip-path="url(#clip730)" style="stroke:#000000; stroke-linecap:round; stroke-linejoin:round; stroke-width:6.4; stroke-opacity:1; fill:none" points="2260.35,323.373 2260.35,328.638 "/>
<polyline clip-path="url(#clip730)" style="stroke:#000000; stroke-linecap:round; stroke-linejoin:round; stroke-width:6.4; stroke-opacity:1; fill:none" points="2324.41,323.373 2324.41,328.638 "/>
<path clip-path="url(#clip730)" d="M829.757 1054.13 L841.979 1054.13 L841.979 1011.94 L828.683 1014.61 L828.683 1007.79 L841.905 1005.13 L849.386 1005.13 L849.386 1054.13 L861.608 1054.13 L861.608 1060.42 L829.757 1060.42 L829.757 1054.13 Z" fill="#000000" fill-rule="nonzero" fill-opacity="1" /><path clip-path="url(#clip730)" d="M892.719 1010.05 Q886.942 1010.05 884.016 1015.76 Q881.127 1021.42 881.127 1032.83 Q881.127 1044.2 884.016 1049.9 Q886.942 1055.57 892.719 1055.57 Q898.534 1055.57 901.423 1049.9 Q904.349 1044.2 904.349 1032.83 Q904.349 1021.42 901.423 1015.76 Q898.534 1010.05 892.719 1010.05 M892.719 1004.13 Q902.016 1004.13 906.904 1011.5 Q911.83 1018.83 911.83 1032.83 Q911.83 1046.79 906.904 1054.16 Q902.016 1061.5 892.719 1061.5 Q883.423 1061.5 878.497 1054.16 Q873.608 1046.79 873.608 1032.83 Q873.608 1018.83 878.497 1011.5 Q883.423 1004.13 892.719 1004.13 Z" fill="#000000" fill-rule="nonzero" fill-opacity="1" /><path clip-path="url(#clip730)" d="M927.358 975.64 Q922.664 975.64 920.286 980.274 Q917.939 984.878 917.939 994.147 Q917.939 1003.38 920.286 1008.02 Q922.664 1012.62 927.358 1012.62 Q932.083 1012.62 934.43 1008.02 Q936.807 1003.38 936.807 994.147 Q936.807 984.878 934.43 980.274 Q932.083 975.64 927.358 975.64 M927.358 970.825 Q934.911 970.825 938.883 976.813 Q942.886 982.772 942.886 994.147 Q942.886 1005.49 938.883 1011.48 Q934.911 1017.44 927.358 1017.44 Q919.805 1017.44 915.803 1011.48 Q911.83 1005.49 911.83 994.147 Q911.83 982.772 915.803 976.813 Q919.805 970.825 927.358 970.825 Z" fill="#000000" fill-rule="nonzero" fill-opacity="1" /><path clip-path="url(#clip730)" d="M1640.97 1054.13 L1653.19 1054.13 L1653.19 1011.94 L1639.89 1014.61 L1639.89 1007.79 L1653.11 1005.13 L1660.59 1005.13 L1660.59 1054.13 L1672.82 1054.13 L1672.82 1060.42 L1640.97 1060.42 L1640.97 1054.13 Z" fill="#000000" fill-rule="nonzero" fill-opacity="1" /><path clip-path="url(#clip730)" d="M1703.93 1010.05 Q1698.15 1010.05 1695.22 1015.76 Q1692.34 1021.42 1692.34 1032.83 Q1692.34 1044.2 1695.22 1049.9 Q1698.15 1055.57 1703.93 1055.57 Q1709.74 1055.57 1712.63 1049.9 Q1715.56 1044.2 1715.56 1032.83 Q1715.56 1021.42 1712.63 1015.76 Q1709.74 1010.05 1703.93 1010.05 M1703.93 1004.13 Q1713.22 1004.13 1718.11 1011.5 Q1723.04 1018.83 1723.04 1032.83 Q1723.04 1046.79 1718.11 1054.16 Q1713.22 1061.5 1703.93 1061.5 Q1694.63 1061.5 1689.71 1054.16 Q1684.82 1046.79 1684.82 1032.83 Q1684.82 1018.83 1689.71 1011.5 Q1694.63 1004.13 1703.93 1004.13 Z" fill="#000000" fill-rule="nonzero" fill-opacity="1" /><path clip-path="url(#clip730)" d="M1723.91 1011.45 L1733.84 1011.45 L1733.84 977.174 L1723.04 979.341 L1723.04 973.804 L1733.78 971.637 L1739.86 971.637 L1739.86 1011.45 L1749.79 1011.45 L1749.79 1016.57 L1723.91 1016.57 L1723.91 1011.45 Z" fill="#000000" fill-rule="nonzero" fill-opacity="1" /><path clip-path="url(#clip730)" d="M1255.23 1121.14 Q1255.23 1124.08 1253.42 1125.83 Q1251.67 1127.58 1249.46 1127.58 Q1247.5 1127.58 1246.47 1126.45 Q1245.44 1125.31 1245.44 1123.87 Q1245.44 1123.25 1245.69 1122.48 Q1245.95 1121.65 1246.52 1120.68 Q1247.14 1119.7 1248.43 1118.97 Q1249.71 1118.25 1251.47 1118.15 Q1251.1 1117.79 1251 1117.74 Q1250.23 1117.12 1248.79 1116.91 Q1248.58 1116.81 1247.86 1116.81 Q1244.3 1116.81 1240.7 1119.44 Q1237.14 1122.01 1232.76 1126.91 Q1227.25 1132.63 1223.69 1134.74 Q1239.3 1136.8 1239.3 1145.82 Q1239.3 1147.32 1238.89 1149.12 Q1238.07 1152.52 1238.07 1154.99 Q1238.07 1159.94 1241.42 1159.94 Q1244.66 1159.94 1246.72 1156.64 Q1248.84 1153.34 1250.59 1146.9 Q1250.85 1145.72 1251.1 1145.36 Q1251.36 1145 1252.08 1145 Q1253.37 1145 1253.37 1146.03 Q1252.19 1152.06 1249.56 1156.69 Q1246.21 1162.31 1241.21 1162.31 Q1237.04 1162.31 1234.25 1159.43 Q1231.52 1156.49 1231.52 1151.85 Q1231.52 1150.72 1231.94 1148.14 Q1232.25 1147.11 1232.25 1145.92 Q1232.25 1143.5 1230.91 1141.7 Q1229.57 1139.84 1227.4 1138.92 Q1225.24 1137.99 1223.43 1137.58 Q1221.68 1137.11 1219.98 1136.96 Q1214.83 1158.76 1214.11 1160.1 Q1213.64 1161.02 1212.61 1161.64 Q1211.58 1162.31 1210.5 1162.31 Q1209.47 1162.31 1208.44 1161.59 Q1207.46 1160.92 1207.46 1159.32 Q1207.46 1158.5 1207.87 1157 L1223.18 1096.2 L1223.49 1094.14 Q1223.49 1093.52 1223.23 1093.21 Q1223.02 1092.85 1221.78 1092.59 Q1220.6 1092.33 1218.23 1092.33 Q1217.25 1092.33 1216.79 1092.28 Q1216.37 1092.23 1216.01 1091.97 Q1215.65 1091.66 1215.65 1091.05 Q1215.65 1090.17 1216.01 1089.71 Q1216.43 1089.19 1216.73 1089.09 Q1217.04 1088.98 1217.66 1088.93 Q1218.54 1088.88 1221.48 1088.62 Q1224.41 1088.31 1226.94 1088.11 Q1229.46 1087.9 1230.54 1087.9 Q1231.16 1087.9 1231.47 1088.21 Q1231.83 1088.47 1231.88 1088.78 L1231.94 1089.04 L1220.96 1133.56 Q1225.49 1131.75 1232.66 1123.77 Q1240.95 1114.49 1248.06 1114.49 Q1251.41 1114.49 1253.32 1116.55 Q1255.23 1118.56 1255.23 1121.14 Z" fill="#000000" fill-rule="nonzero" fill-opacity="1" /><path clip-path="url(#clip730)" d="M1326.55 1171.13 Q1326.55 1171.42 1326.22 1172.53 Q1325.9 1173.65 1325.1 1175.38 Q1324.35 1177.12 1323.26 1178.7 Q1322.22 1180.25 1320.49 1181.41 Q1318.79 1182.53 1316.84 1182.53 Q1314.25 1182.53 1312.52 1180.79 Q1310.78 1179.06 1310.78 1176.47 Q1310.78 1175.06 1311.76 1172.39 Q1316.34 1160.2 1316.34 1155.83 Q1316.34 1150.68 1312.33 1150.68 Q1310.06 1150.68 1308.01 1151.61 Q1305.95 1152.55 1304.62 1153.85 Q1303.28 1155.15 1302.24 1156.63 Q1301.19 1158.11 1300.72 1159.08 Q1300.29 1160.05 1300.18 1160.49 L1295.74 1178.31 Q1295.38 1179.82 1295.13 1180.54 Q1294.88 1181.26 1294.19 1181.88 Q1293.51 1182.53 1292.42 1182.53 Q1291.52 1182.53 1290.87 1181.98 Q1290.26 1181.44 1290.26 1180.51 Q1290.26 1180.36 1290.44 1179.6 Q1290.62 1178.85 1290.87 1177.8 Q1291.13 1176.75 1291.23 1176.14 Q1292.53 1171.24 1292.71 1170.55 L1294.77 1161.97 Q1295.89 1157.71 1295.89 1155.83 Q1295.89 1150.68 1291.88 1150.68 Q1289.9 1150.68 1288.02 1151.43 Q1286.18 1152.15 1284.92 1153.16 Q1283.66 1154.17 1282.5 1155.58 Q1281.39 1156.95 1280.81 1157.89 Q1280.27 1158.79 1279.84 1159.69 L1278.9 1163.37 Q1278.68 1164.38 1277.64 1168.31 L1276.01 1174.99 Q1274.86 1179.96 1274.61 1180.43 Q1274.24 1181.44 1273.45 1181.98 Q1272.66 1182.53 1271.86 1182.53 Q1270.96 1182.53 1270.35 1181.98 Q1269.74 1181.44 1269.74 1180.51 Q1269.74 1180.36 1269.84 1179.82 Q1269.95 1179.28 1270.13 1178.52 Q1270.31 1177.76 1270.38 1177.33 L1274.68 1160.27 Q1275.47 1157.17 1275.65 1156.19 Q1275.87 1155.18 1275.87 1154.07 Q1275.87 1150.68 1273.56 1150.68 Q1271.68 1150.68 1270.46 1152.91 Q1269.23 1155.15 1268.18 1159.48 Q1267.86 1160.67 1267.64 1160.92 Q1267.46 1161.17 1266.92 1161.17 Q1266.02 1161.14 1266.02 1160.41 Q1266.02 1160.23 1266.31 1159.08 Q1266.6 1157.93 1267.14 1156.19 Q1267.72 1154.43 1268.33 1153.27 Q1268.69 1152.52 1269.01 1152.01 Q1269.34 1151.51 1269.99 1150.71 Q1270.64 1149.92 1271.61 1149.49 Q1272.59 1149.05 1273.78 1149.05 Q1276.41 1149.05 1278.36 1150.75 Q1280.34 1152.44 1280.59 1155.47 Q1285.39 1149.05 1292.1 1149.05 Q1295.89 1149.05 1298.16 1150.96 Q1300.29 1152.8 1300.54 1156.19 Q1305.52 1149.05 1312.59 1149.05 Q1316.66 1149.05 1318.86 1151.18 Q1321.06 1153.27 1321.06 1156.95 Q1321.06 1158.86 1320.09 1162.51 Q1319.12 1166.11 1318.47 1167.92 Q1317.82 1169.72 1316.56 1173.18 Q1315.22 1176.5 1315.22 1178.45 Q1315.22 1179.71 1315.65 1180.29 Q1316.09 1180.87 1317.02 1180.87 Q1318.47 1180.87 1319.73 1180.04 Q1320.99 1179.17 1321.89 1177.76 Q1322.83 1176.32 1323.44 1174.88 Q1324.06 1173.4 1324.53 1171.74 Q1324.82 1170.84 1324.96 1170.62 Q1325.14 1170.41 1325.64 1170.41 Q1326.55 1170.41 1326.55 1171.13 Z" fill="#000000" fill-rule="nonzero" fill-opacity="1" /><path clip-path="url(#clip730)" d="M1364.97 1171.13 Q1364 1175.78 1362.74 1178.45 Q1360.72 1182.53 1357.29 1182.53 Q1354.69 1182.53 1352.85 1180.94 Q1351.01 1179.35 1350.58 1176.97 Q1345.85 1182.53 1340.95 1182.53 Q1336.62 1182.53 1333.88 1179.24 Q1331.14 1175.93 1331.14 1170.69 Q1331.14 1165.43 1333.73 1160.38 Q1336.37 1155.33 1340.52 1152.19 Q1344.66 1149.05 1348.92 1149.05 Q1353.43 1149.05 1355.74 1153.78 Q1355.92 1152.48 1356.75 1151.51 Q1357.58 1150.53 1358.84 1150.53 Q1359.81 1150.53 1360.39 1151.07 Q1360.97 1151.58 1360.97 1152.52 Q1360.97 1152.98 1360.46 1155.04 L1357.79 1165.36 L1356.17 1172.03 Q1355.56 1174.48 1355.38 1175.38 Q1355.23 1176.29 1355.23 1177.48 Q1355.23 1180.87 1357.43 1180.87 Q1358.52 1180.87 1359.38 1180.18 Q1360.25 1179.5 1360.93 1178.05 Q1361.62 1176.61 1362.05 1175.28 Q1362.48 1173.91 1363.06 1171.74 Q1363.24 1170.88 1363.38 1170.66 Q1363.56 1170.41 1364.07 1170.41 Q1364.97 1170.41 1364.97 1171.13 M1354.84 1157.17 Q1354.84 1156.84 1354.58 1155.94 Q1354.33 1155.04 1353.75 1153.78 Q1353.18 1152.52 1351.91 1151.61 Q1350.69 1150.68 1349.03 1150.68 Q1346.79 1150.68 1344.45 1152.59 Q1342.14 1154.5 1340.44 1157.75 Q1339.15 1160.34 1337.74 1165.79 Q1336.37 1171.24 1336.37 1173.94 Q1336.37 1175.6 1336.73 1177.08 Q1337.13 1178.52 1338.24 1179.71 Q1339.36 1180.87 1341.09 1180.87 Q1345.31 1180.87 1349.46 1175.64 Q1350.25 1174.73 1350.44 1174.37 Q1350.65 1173.98 1350.94 1172.9 L1354.62 1158.43 Q1354.84 1157.35 1354.84 1157.17 Z" fill="#000000" fill-rule="nonzero" fill-opacity="1" /><path clip-path="url(#clip730)" d="M1404.84 1153.92 Q1404.84 1155.94 1403.58 1157.1 Q1402.32 1158.21 1400.88 1158.21 Q1399.51 1158.21 1398.78 1157.42 Q1398.06 1156.63 1398.06 1155.62 Q1398.06 1154.25 1399.07 1153.06 Q1400.08 1151.87 1401.6 1151.61 Q1400.12 1150.68 1397.92 1150.68 Q1396.48 1150.68 1395.21 1151.43 Q1393.99 1152.19 1393.23 1153.16 Q1392.51 1154.14 1391.86 1155.55 Q1391.24 1156.92 1390.99 1157.75 Q1390.78 1158.54 1390.6 1159.4 L1388.07 1169.5 Q1386.84 1174.3 1386.84 1176 Q1386.84 1178.09 1387.85 1179.5 Q1388.86 1180.87 1390.88 1180.87 Q1391.68 1180.87 1392.58 1180.65 Q1393.48 1180.4 1394.64 1179.75 Q1395.83 1179.06 1396.87 1178.05 Q1397.95 1177.01 1399 1175.24 Q1400.05 1173.47 1400.73 1171.2 Q1400.95 1170.41 1401.67 1170.41 Q1402.57 1170.41 1402.57 1171.13 Q1402.57 1171.74 1402.07 1173.04 Q1401.6 1174.3 1400.55 1175.96 Q1399.54 1177.58 1398.21 1179.06 Q1396.87 1180.51 1394.89 1181.52 Q1392.9 1182.53 1390.74 1182.53 Q1387.64 1182.53 1385.58 1180.87 Q1383.53 1179.21 1382.77 1176.9 Q1382.59 1177.22 1382.34 1177.66 Q1382.08 1178.09 1381.33 1179.06 Q1380.6 1180 1379.77 1180.72 Q1378.94 1181.41 1377.65 1181.95 Q1376.38 1182.53 1375.01 1182.53 Q1373.28 1182.53 1371.73 1182.02 Q1370.22 1181.52 1369.13 1180.36 Q1368.05 1179.21 1368.05 1177.62 Q1368.05 1175.85 1369.24 1174.63 Q1370.47 1173.36 1372.13 1173.36 Q1373.17 1173.36 1374 1173.98 Q1374.87 1174.59 1374.87 1175.93 Q1374.87 1177.4 1373.86 1178.52 Q1372.85 1179.64 1371.41 1179.93 Q1372.89 1180.87 1375.09 1180.87 Q1377.47 1180.87 1379.34 1178.77 Q1381.22 1176.68 1382.12 1173.18 Q1384.36 1164.78 1385.22 1161.03 Q1386.09 1157.24 1386.09 1155.62 Q1386.09 1154.1 1385.69 1153.06 Q1385.29 1152.01 1384.61 1151.54 Q1383.96 1151.04 1383.35 1150.86 Q1382.77 1150.68 1382.12 1150.68 Q1381.04 1150.68 1379.81 1151.11 Q1378.62 1151.54 1377.18 1152.55 Q1375.77 1153.53 1374.44 1155.55 Q1373.1 1157.57 1372.2 1160.34 Q1372.02 1161.17 1371.23 1161.17 Q1370.36 1161.14 1370.36 1160.41 Q1370.36 1159.8 1370.83 1158.54 Q1371.33 1157.24 1372.34 1155.62 Q1373.39 1153.99 1374.72 1152.55 Q1376.1 1151.07 1378.08 1150.06 Q1380.1 1149.05 1382.26 1149.05 Q1383.24 1149.05 1384.18 1149.27 Q1385.15 1149.45 1386.3 1149.99 Q1387.49 1150.53 1388.54 1151.72 Q1389.59 1152.91 1390.23 1154.64 Q1390.67 1153.81 1391.24 1153.02 Q1391.86 1152.23 1392.8 1151.25 Q1393.77 1150.24 1395.1 1149.67 Q1396.48 1149.05 1397.99 1149.05 Q1399.47 1149.05 1400.91 1149.45 Q1402.35 1149.81 1403.58 1151 Q1404.84 1152.15 1404.84 1153.92 Z" fill="#000000" fill-rule="nonzero" fill-opacity="1" /><path clip-path="url(#clip730)" d="M1421.15 1186.01 Q1421.15 1185.5 1421.56 1184.37 L1458.82 1084.81 Q1458.82 1084.71 1459.07 1084.14 Q1459.33 1083.57 1459.49 1083.21 Q1459.64 1082.8 1459.95 1082.49 Q1460.31 1082.18 1460.72 1082.18 Q1461.75 1082.18 1461.75 1083.47 Q1461.75 1083.57 1461.44 1084.81 L1424.08 1184.47 Q1423.47 1186.27 1423.05 1186.79 Q1422.69 1187.3 1422.07 1187.3 Q1421.15 1187.3 1421.15 1186.01 Z" fill="#000000" fill-rule="nonzero" fill-opacity="1" /><path clip-path="url(#clip730)" d="M1521.17 1121.14 Q1521.17 1124.08 1519.37 1125.83 Q1517.62 1127.58 1515.4 1127.58 Q1513.44 1127.58 1512.41 1126.45 Q1511.38 1125.31 1511.38 1123.87 Q1511.38 1123.25 1511.64 1122.48 Q1511.9 1121.65 1512.46 1120.68 Q1513.08 1119.7 1514.37 1118.97 Q1515.66 1118.25 1517.41 1118.15 Q1517.05 1117.79 1516.95 1117.74 Q1516.17 1117.12 1514.73 1116.91 Q1514.53 1116.81 1513.8 1116.81 Q1510.25 1116.81 1506.64 1119.44 Q1503.09 1122.01 1498.71 1126.91 Q1493.19 1132.63 1489.64 1134.74 Q1505.25 1136.8 1505.25 1145.82 Q1505.25 1147.32 1504.84 1149.12 Q1504.01 1152.52 1504.01 1154.99 Q1504.01 1159.94 1507.36 1159.94 Q1510.61 1159.94 1512.67 1156.64 Q1514.78 1153.34 1516.54 1146.9 Q1516.79 1145.72 1517.05 1145.36 Q1517.31 1145 1518.03 1145 Q1519.32 1145 1519.32 1146.03 Q1518.13 1152.06 1515.5 1156.69 Q1512.16 1162.31 1507.16 1162.31 Q1502.98 1162.31 1500.2 1159.43 Q1497.47 1156.49 1497.47 1151.85 Q1497.47 1150.72 1497.88 1148.14 Q1498.19 1147.11 1498.19 1145.92 Q1498.19 1143.5 1496.85 1141.7 Q1495.51 1139.84 1493.35 1138.92 Q1491.18 1137.99 1489.38 1137.58 Q1487.63 1137.11 1485.93 1136.96 Q1480.77 1158.76 1480.05 1160.1 Q1479.59 1161.02 1478.56 1161.64 Q1477.53 1162.31 1476.45 1162.31 Q1475.41 1162.31 1474.38 1161.59 Q1473.41 1160.92 1473.41 1159.32 Q1473.41 1158.5 1473.82 1157 L1489.12 1096.2 L1489.43 1094.14 Q1489.43 1093.52 1489.17 1093.21 Q1488.97 1092.85 1487.73 1092.59 Q1486.55 1092.33 1484.17 1092.33 Q1483.2 1092.33 1482.73 1092.28 Q1482.32 1092.23 1481.96 1091.97 Q1481.6 1091.66 1481.6 1091.05 Q1481.6 1090.17 1481.96 1089.71 Q1482.37 1089.19 1482.68 1089.09 Q1482.99 1088.98 1483.61 1088.93 Q1484.48 1088.88 1487.42 1088.62 Q1490.36 1088.31 1492.88 1088.11 Q1495.41 1087.9 1496.49 1087.9 Q1497.11 1087.9 1497.42 1088.21 Q1497.78 1088.47 1497.83 1088.78 L1497.88 1089.04 L1486.91 1133.56 Q1491.44 1131.75 1498.6 1123.77 Q1506.9 1114.49 1514.01 1114.49 Q1517.36 1114.49 1519.27 1116.55 Q1521.17 1118.56 1521.17 1121.14 Z" fill="#000000" fill-rule="nonzero" fill-opacity="1" /><path clip-path="url(#clip730)" d="M1568.79 1146.25 Q1568.79 1148.23 1567.53 1149.46 Q1566.31 1150.68 1564.75 1150.68 Q1563.64 1150.68 1562.81 1150 Q1562.01 1149.31 1562.01 1148.12 Q1562.01 1146.9 1562.95 1145.6 Q1563.89 1144.3 1566.02 1144.12 Q1564.61 1142.78 1562.37 1142.78 Q1561.26 1142.78 1560.32 1143.51 Q1559.42 1144.19 1558.91 1145.31 Q1558.37 1146.46 1557.14 1152.99 Q1556.75 1155.12 1556.39 1157.18 Q1556.03 1159.23 1555.59 1161.4 L1561.72 1161.4 Q1562.52 1161.4 1562.84 1161.43 Q1563.17 1161.47 1563.42 1161.65 Q1563.71 1161.83 1563.71 1162.23 Q1563.71 1163.24 1563.24 1163.49 Q1562.81 1163.7 1561.51 1163.7 L1555.16 1163.7 L1550.72 1187.11 Q1550.61 1187.8 1550.15 1189.96 Q1549.71 1192.09 1548.67 1195.59 Q1547.62 1199.13 1546.57 1201.22 Q1546 1202.41 1545.24 1203.53 Q1544.52 1204.68 1543.47 1205.84 Q1542.43 1206.99 1541.06 1207.67 Q1539.69 1208.4 1538.24 1208.4 Q1535.79 1208.4 1533.88 1207.03 Q1531.97 1205.65 1531.97 1203.31 Q1531.97 1201.33 1533.19 1200.1 Q1534.45 1198.87 1536.01 1198.87 Q1537.12 1198.87 1537.92 1199.56 Q1538.75 1200.24 1538.75 1201.43 Q1538.75 1201.94 1538.57 1202.52 Q1538.39 1203.09 1537.99 1203.74 Q1537.59 1204.43 1536.73 1204.9 Q1535.86 1205.37 1534.67 1205.44 Q1536.08 1206.77 1538.24 1206.77 Q1538.93 1206.77 1539.54 1206.48 Q1540.15 1206.23 1540.66 1205.58 Q1541.2 1204.93 1541.6 1204.28 Q1541.99 1203.67 1542.39 1202.48 Q1542.79 1201.33 1543.04 1200.46 Q1543.29 1199.59 1543.62 1198.04 Q1543.98 1196.49 1544.16 1195.55 Q1544.34 1194.65 1544.66 1192.89 L1550.18 1163.7 L1545.31 1163.7 Q1544.45 1163.7 1544.09 1163.67 Q1543.76 1163.63 1543.51 1163.45 Q1543.26 1163.24 1543.26 1162.8 Q1543.26 1162.12 1543.54 1161.83 Q1543.87 1161.5 1544.23 1161.47 Q1544.59 1161.4 1545.46 1161.4 L1550.58 1161.4 Q1552.31 1152.27 1553 1149.82 Q1553.79 1147.22 1555.02 1145.42 Q1556.24 1143.58 1557.61 1142.71 Q1558.98 1141.85 1560.1 1141.52 Q1561.26 1141.16 1562.37 1141.16 Q1564.9 1141.16 1566.85 1142.53 Q1568.79 1143.87 1568.79 1146.25 Z" fill="#000000" fill-rule="nonzero" fill-opacity="1" /><polyline clip-path="url(#clip730)" style="stroke:#000000; stroke-linecap:round; stroke-linejoin:round; stroke-width:6.4; stroke-opacity:1; fill:none" points="462.746,947.046 462.746,323.373 "/>
<polyline clip-path="url(#clip730)" style="stroke:#000000; stroke-linecap:round; stroke-linejoin:round; stroke-width:6.4; stroke-opacity:1; fill:none" points="2324.41,947.046 2324.41,323.373 "/>
<polyline clip-path="url(#clip730)" style="stroke:#000000; stroke-linecap:round; stroke-linejoin:round; stroke-width:6.4; stroke-opacity:1; fill:none" points="462.746,947.046 481.643,947.046 "/>
<polyline clip-path="url(#clip730)" style="stroke:#000000; stroke-linecap:round; stroke-linejoin:round; stroke-width:6.4; stroke-opacity:1; fill:none" points="462.746,635.21 481.643,635.21 "/>
<polyline clip-path="url(#clip730)" style="stroke:#000000; stroke-linecap:round; stroke-linejoin:round; stroke-width:6.4; stroke-opacity:1; fill:none" points="462.746,323.373 481.643,323.373 "/>
<polyline clip-path="url(#clip730)" style="stroke:#000000; stroke-linecap:round; stroke-linejoin:round; stroke-width:6.4; stroke-opacity:1; fill:none" points="2324.41,947.046 2305.51,947.046 "/>
<polyline clip-path="url(#clip730)" style="stroke:#000000; stroke-linecap:round; stroke-linejoin:round; stroke-width:6.4; stroke-opacity:1; fill:none" points="2324.41,635.21 2305.51,635.21 "/>
<polyline clip-path="url(#clip730)" style="stroke:#000000; stroke-linecap:round; stroke-linejoin:round; stroke-width:6.4; stroke-opacity:1; fill:none" points="2324.41,323.373 2305.51,323.373 "/>
<path clip-path="url(#clip730)" d="M335.413 924.324 Q329.635 924.324 326.709 930.028 Q323.82 935.694 323.82 947.102 Q323.82 958.472 326.709 964.176 Q329.635 969.842 335.413 969.842 Q341.228 969.842 344.116 964.176 Q347.042 958.472 347.042 947.102 Q347.042 935.694 344.116 930.028 Q341.228 924.324 335.413 924.324 M335.413 918.398 Q344.709 918.398 349.598 925.768 Q354.524 933.102 354.524 947.102 Q354.524 961.064 349.598 968.435 Q344.709 975.768 335.413 975.768 Q326.117 975.768 321.191 968.435 Q316.302 961.064 316.302 947.102 Q316.302 933.102 321.191 925.768 Q326.117 918.398 335.413 918.398 Z" fill="#000000" fill-rule="nonzero" fill-opacity="1" /><path clip-path="url(#clip730)" d="M367.672 965.287 L375.487 965.287 L375.487 974.694 L367.672 974.694 L367.672 965.287 Z" fill="#000000" fill-rule="nonzero" fill-opacity="1" /><path clip-path="url(#clip730)" d="M407.783 948.435 Q402.449 948.435 399.375 951.287 Q396.338 954.139 396.338 959.139 Q396.338 964.139 399.375 966.99 Q402.449 969.842 407.783 969.842 Q413.116 969.842 416.19 966.99 Q419.264 964.101 419.264 959.139 Q419.264 954.139 416.19 951.287 Q413.153 948.435 407.783 948.435 M400.301 945.25 Q395.487 944.065 392.783 940.768 Q390.116 937.472 390.116 932.731 Q390.116 926.102 394.82 922.25 Q399.561 918.398 407.783 918.398 Q416.042 918.398 420.746 922.25 Q425.449 926.102 425.449 932.731 Q425.449 937.472 422.746 940.768 Q420.079 944.065 415.301 945.25 Q420.709 946.509 423.709 950.176 Q426.746 953.842 426.746 959.139 Q426.746 967.176 421.82 971.472 Q416.931 975.768 407.783 975.768 Q398.635 975.768 393.709 971.472 Q388.82 967.176 388.82 959.139 Q388.82 953.842 391.857 950.176 Q394.894 946.509 400.301 945.25 M397.561 933.435 Q397.561 937.731 400.227 940.139 Q402.931 942.546 407.783 942.546 Q412.598 942.546 415.301 940.139 Q418.042 937.731 418.042 933.435 Q418.042 929.139 415.301 926.731 Q412.598 924.324 407.783 924.324 Q402.931 924.324 400.227 926.731 Q397.561 929.139 397.561 933.435 Z" fill="#000000" fill-rule="nonzero" fill-opacity="1" /><path clip-path="url(#clip730)" d="M323.117 656.561 L335.339 656.561 L335.339 614.376 L322.042 617.043 L322.042 610.228 L335.265 607.562 L342.746 607.562 L342.746 656.561 L354.968 656.561 L354.968 662.858 L323.117 662.858 L323.117 656.561 Z" fill="#000000" fill-rule="nonzero" fill-opacity="1" /><path clip-path="url(#clip730)" d="M370.079 653.45 L377.894 653.45 L377.894 662.858 L370.079 662.858 L370.079 653.45 Z" fill="#000000" fill-rule="nonzero" fill-opacity="1" /><path clip-path="url(#clip730)" d="M400.635 656.561 L426.746 656.561 L426.746 662.858 L391.635 662.858 L391.635 656.561 Q395.894 652.154 403.227 644.747 Q410.598 637.302 412.486 635.154 Q416.079 631.117 417.486 628.339 Q418.931 625.524 418.931 622.821 Q418.931 618.413 415.82 615.636 Q412.746 612.858 407.783 612.858 Q404.264 612.858 400.338 614.08 Q396.449 615.302 392.005 617.784 L392.005 610.228 Q396.524 608.413 400.449 607.487 Q404.375 606.562 407.635 606.562 Q416.227 606.562 421.338 610.858 Q426.449 615.154 426.449 622.339 Q426.449 625.747 425.153 628.821 Q423.894 631.858 420.523 636.006 Q419.598 637.08 414.635 642.228 Q409.672 647.339 400.635 656.561 Z" fill="#000000" fill-rule="nonzero" fill-opacity="1" /><path clip-path="url(#clip730)" d="M320.302 344.725 L332.524 344.725 L332.524 302.54 L319.228 305.206 L319.228 298.392 L332.45 295.725 L339.931 295.725 L339.931 344.725 L352.153 344.725 L352.153 351.021 L320.302 351.021 L320.302 344.725 Z" fill="#000000" fill-rule="nonzero" fill-opacity="1" /><path clip-path="url(#clip730)" d="M367.264 341.614 L375.079 341.614 L375.079 351.021 L367.264 351.021 L367.264 341.614 Z" fill="#000000" fill-rule="nonzero" fill-opacity="1" /><path clip-path="url(#clip730)" d="M408.301 320.392 Q403.264 320.392 400.301 323.836 Q397.375 327.28 397.375 333.28 Q397.375 339.243 400.301 342.725 Q403.264 346.169 408.301 346.169 Q413.338 346.169 416.264 342.725 Q419.227 339.243 419.227 333.28 Q419.227 327.28 416.264 323.836 Q413.338 320.392 408.301 320.392 M423.153 296.947 L423.153 303.762 Q420.338 302.429 417.449 301.725 Q414.598 301.021 411.783 301.021 Q404.375 301.021 400.449 306.021 Q396.561 311.021 396.005 321.132 Q398.19 317.91 401.486 316.206 Q404.783 314.466 408.746 314.466 Q417.079 314.466 421.894 319.54 Q426.746 324.577 426.746 333.28 Q426.746 341.799 421.709 346.947 Q416.672 352.095 408.301 352.095 Q398.709 352.095 393.635 344.762 Q388.561 337.391 388.561 323.429 Q388.561 310.318 394.783 302.54 Q401.005 294.725 411.486 294.725 Q414.301 294.725 417.153 295.281 Q420.042 295.836 423.153 296.947 Z" fill="#000000" fill-rule="nonzero" fill-opacity="1" /><path clip-path="url(#clip730)" d="M285.086 682.491 Q285.962 682.491 286.58 683.11 Q287.198 683.728 287.198 684.604 Q287.198 686.099 285.807 686.614 L235.154 706.246 Q234.948 706.35 234.432 706.35 Q233.917 706.35 233.711 706.246 L183.058 686.614 Q181.666 686.099 181.666 684.604 Q181.666 683.728 182.285 683.11 Q182.903 682.491 183.779 682.491 Q184.294 682.491 184.5 682.595 L234.432 702.021 L284.364 682.595 Q284.57 682.491 285.086 682.491 Z" fill="#000000" fill-rule="nonzero" fill-opacity="1" /><path clip-path="url(#clip730)" d="M190.529 593.947 Q191.508 593.947 192.333 594.153 L210.677 597.039 Q212.069 597.193 212.584 597.502 Q213.099 597.76 213.099 598.584 Q213.099 599.873 211.759 599.873 Q210.986 599.873 209.75 599.564 Q203.927 598.688 201.299 598.688 Q199.547 598.688 198.259 599.048 Q196.919 599.357 195.991 599.873 Q195.064 600.336 194.446 601.419 Q193.827 602.501 193.466 603.531 Q193.106 604.562 192.951 606.417 Q192.745 608.272 192.694 609.869 Q192.642 611.467 192.642 614.095 Q192.642 619.815 192.848 620.742 Q193.106 621.721 193.879 622.236 Q194.6 622.7 196.764 623.216 L252.777 637.232 L254.993 637.644 Q256.229 637.644 256.641 636.871 Q257.054 636.098 257.311 633.728 Q257.569 630.327 257.569 626.977 Q257.569 626.874 257.569 626.668 Q257.569 625.534 257.621 625.071 Q257.621 624.607 257.724 624.143 Q257.827 623.679 258.084 623.576 Q258.29 623.422 258.703 623.422 Q259.682 623.422 260.197 623.834 Q260.661 624.246 260.764 624.658 Q260.815 625.019 260.815 625.74 Q260.815 627.183 260.712 630.275 Q260.609 633.367 260.609 634.913 L260.506 643.673 L260.609 652.639 Q260.609 654.03 260.712 656.967 Q260.815 659.904 260.815 661.296 Q260.815 663.099 259.527 663.099 Q258.084 663.099 257.827 662.429 Q257.569 661.708 257.569 658.668 Q257.569 654.391 257.363 652.072 Q257.157 649.753 256.435 648.516 Q255.714 647.228 254.993 646.868 Q254.22 646.507 252.468 646.095 L196.146 631.924 Q194.909 631.512 193.93 631.512 Q193.415 631.512 193.209 631.666 Q193.003 631.769 192.848 632.439 Q192.642 633.109 192.642 634.5 L192.642 638.623 Q192.642 642.848 192.848 645.476 Q193.003 648.053 193.776 650.526 Q194.549 652.948 195.631 654.391 Q196.713 655.782 198.929 657.328 Q201.144 658.874 203.824 660.008 Q206.503 661.09 210.883 662.636 Q212.326 663.151 212.738 663.46 Q213.099 663.718 213.099 664.439 Q213.099 664.954 212.79 665.367 Q212.429 665.727 211.966 665.727 Q210.265 665.212 210.059 665.109 L191.457 658.771 Q189.962 658.256 189.705 657.792 Q189.396 657.276 189.396 655.37 L189.396 596.832 Q189.396 595.905 189.396 595.596 Q189.396 595.287 189.499 594.771 Q189.602 594.256 189.859 594.101 Q190.117 593.947 190.529 593.947 Z" fill="#000000" fill-rule="nonzero" fill-opacity="1" /><path clip-path="url(#clip730)" d="M233.711 580.988 Q233.917 580.885 234.432 580.885 Q234.948 580.885 235.154 580.988 L285.807 600.621 Q287.198 601.136 287.198 602.579 Q287.198 603.455 286.58 604.073 Q285.962 604.692 285.086 604.692 Q284.57 604.692 284.364 604.589 L234.432 585.214 L184.5 604.589 Q184.294 604.692 183.779 604.692 Q182.903 604.692 182.285 604.073 Q181.666 603.455 181.666 602.579 Q181.666 601.136 183.058 600.621 L233.711 580.988 Z" fill="#000000" fill-rule="nonzero" fill-opacity="1" /><polyline clip-path="url(#clip732)" style="stroke:#e26f46; stroke-linecap:round; stroke-linejoin:round; stroke-width:6.4; stroke-opacity:1; fill:none" points="2235.19,763.678 1095.85,836.893 852.295,769.197 672.807,579.48 530.339,692.2 "/>
<circle clip-path="url(#clip732)" cx="2235.19" cy="763.678" r="23.04" fill="#e26f46" fill-rule="evenodd" fill-opacity="1" stroke="none"/>
<circle clip-path="url(#clip732)" cx="1095.85" cy="836.893" r="23.04" fill="#e26f46" fill-rule="evenodd" fill-opacity="1" stroke="none"/>
<circle clip-path="url(#clip732)" cx="852.295" cy="769.197" r="23.04" fill="#e26f46" fill-rule="evenodd" fill-opacity="1" stroke="none"/>
<circle clip-path="url(#clip732)" cx="672.807" cy="579.48" r="23.04" fill="#e26f46" fill-rule="evenodd" fill-opacity="1" stroke="none"/>
<circle clip-path="url(#clip732)" cx="530.339" cy="692.2" r="23.04" fill="#e26f46" fill-rule="evenodd" fill-opacity="1" stroke="none"/>
<polyline clip-path="url(#clip732)" style="stroke:#e26f46; stroke-linecap:round; stroke-linejoin:round; stroke-width:6.4; stroke-opacity:1; fill:none" points="2235.19,806.372 2235.19,720.984 "/>
<polyline clip-path="url(#clip732)" style="stroke:#e26f46; stroke-linecap:round; stroke-linejoin:round; stroke-width:6.4; stroke-opacity:1; fill:none" points="1095.85,920.344 1095.85,753.443 "/>
<polyline clip-path="url(#clip732)" style="stroke:#e26f46; stroke-linecap:round; stroke-linejoin:round; stroke-width:6.4; stroke-opacity:1; fill:none" points="852.295,843.965 852.295,694.428 "/>
<polyline clip-path="url(#clip732)" style="stroke:#e26f46; stroke-linecap:round; stroke-linejoin:round; stroke-width:6.4; stroke-opacity:1; fill:none" points="672.807,754.921 672.807,404.039 "/>
<polyline clip-path="url(#clip732)" style="stroke:#e26f46; stroke-linecap:round; stroke-linejoin:round; stroke-width:6.4; stroke-opacity:1; fill:none" points="530.339,744.512 530.339,639.888 "/>
<line clip-path="url(#clip732)" x1="2260.79" y1="806.372" x2="2209.59" y2="806.372" style="stroke:#e26f46; stroke-width:6.4; stroke-opacity:1"/>
<line clip-path="url(#clip732)" x1="2260.79" y1="720.984" x2="2209.59" y2="720.984" style="stroke:#e26f46; stroke-width:6.4; stroke-opacity:1"/>
<line clip-path="url(#clip732)" x1="1121.45" y1="920.344" x2="1070.25" y2="920.344" style="stroke:#e26f46; stroke-width:6.4; stroke-opacity:1"/>
<line clip-path="url(#clip732)" x1="1121.45" y1="753.443" x2="1070.25" y2="753.443" style="stroke:#e26f46; stroke-width:6.4; stroke-opacity:1"/>
<line clip-path="url(#clip732)" x1="877.895" y1="843.965" x2="826.695" y2="843.965" style="stroke:#e26f46; stroke-width:6.4; stroke-opacity:1"/>
<line clip-path="url(#clip732)" x1="877.895" y1="694.428" x2="826.695" y2="694.428" style="stroke:#e26f46; stroke-width:6.4; stroke-opacity:1"/>
<line clip-path="url(#clip732)" x1="698.407" y1="754.921" x2="647.207" y2="754.921" style="stroke:#e26f46; stroke-width:6.4; stroke-opacity:1"/>
<line clip-path="url(#clip732)" x1="698.407" y1="404.039" x2="647.207" y2="404.039" style="stroke:#e26f46; stroke-width:6.4; stroke-opacity:1"/>
<line clip-path="url(#clip732)" x1="555.939" y1="744.512" x2="504.739" y2="744.512" style="stroke:#e26f46; stroke-width:6.4; stroke-opacity:1"/>
<line clip-path="url(#clip732)" x1="555.939" y1="639.888" x2="504.739" y2="639.888" style="stroke:#e26f46; stroke-width:6.4; stroke-opacity:1"/>
<polyline clip-path="url(#clip732)" style="stroke:#009af9; stroke-linecap:round; stroke-linejoin:round; stroke-width:6.4; stroke-opacity:1; fill:none" stroke-dasharray="26, 16" points="2235.19,789.607 1095.85,748.702 852.295,658.58 672.807,477.178 530.339,606.673 "/>
<path clip-path="url(#clip732)" d="M2235.19 764.007 L2209.59 789.607 L2235.19 815.207 L2260.79 789.607 L2235.19 764.007 Z" fill="#009af9" fill-rule="evenodd" fill-opacity="1" stroke="none"/>
<path clip-path="url(#clip732)" d="M1095.85 723.102 L1070.25 748.702 L1095.85 774.302 L1121.45 748.702 L1095.85 723.102 Z" fill="#009af9" fill-rule="evenodd" fill-opacity="1" stroke="none"/>
<path clip-path="url(#clip732)" d="M852.295 632.98 L826.695 658.58 L852.295 684.18 L877.895 658.58 L852.295 632.98 Z" fill="#009af9" fill-rule="evenodd" fill-opacity="1" stroke="none"/>
<path clip-path="url(#clip732)" d="M672.807 451.578 L647.207 477.178 L672.807 502.778 L698.407 477.178 L672.807 451.578 Z" fill="#009af9" fill-rule="evenodd" fill-opacity="1" stroke="none"/>
<path clip-path="url(#clip732)" d="M530.339 581.073 L504.739 606.673 L530.339 632.273 L555.939 606.673 L530.339 581.073 Z" fill="#009af9" fill-rule="evenodd" fill-opacity="1" stroke="none"/>
<polyline clip-path="url(#clip732)" style="stroke:#009af9; stroke-linecap:round; stroke-linejoin:round; stroke-width:6.4; stroke-opacity:1; fill:none" stroke-dasharray="26, 16" points="2235.19,810.586 2235.19,768.628 "/>
<polyline clip-path="url(#clip732)" style="stroke:#009af9; stroke-linecap:round; stroke-linejoin:round; stroke-width:6.4; stroke-opacity:1; fill:none" stroke-dasharray="26, 16" points="1095.85,823.59 1095.85,673.813 "/>
<polyline clip-path="url(#clip732)" style="stroke:#009af9; stroke-linecap:round; stroke-linejoin:round; stroke-width:6.4; stroke-opacity:1; fill:none" stroke-dasharray="26, 16" points="852.295,793.248 852.295,523.913 "/>
<polyline clip-path="url(#clip732)" style="stroke:#009af9; stroke-linecap:round; stroke-linejoin:round; stroke-width:6.4; stroke-opacity:1; fill:none" stroke-dasharray="26, 16" points="672.807,560.857 672.807,393.499 "/>
<polyline clip-path="url(#clip732)" style="stroke:#009af9; stroke-linecap:round; stroke-linejoin:round; stroke-width:6.4; stroke-opacity:1; fill:none" stroke-dasharray="26, 16" points="530.339,730.616 530.339,482.729 "/>
<line clip-path="url(#clip732)" x1="2260.79" y1="810.586" x2="2209.59" y2="810.586" style="stroke:#009af9; stroke-width:6.4; stroke-opacity:1"/>
<line clip-path="url(#clip732)" x1="2260.79" y1="768.628" x2="2209.59" y2="768.628" style="stroke:#009af9; stroke-width:6.4; stroke-opacity:1"/>
<line clip-path="url(#clip732)" x1="1121.45" y1="823.59" x2="1070.25" y2="823.59" style="stroke:#009af9; stroke-width:6.4; stroke-opacity:1"/>
<line clip-path="url(#clip732)" x1="1121.45" y1="673.813" x2="1070.25" y2="673.813" style="stroke:#009af9; stroke-width:6.4; stroke-opacity:1"/>
<line clip-path="url(#clip732)" x1="877.895" y1="793.248" x2="826.695" y2="793.248" style="stroke:#009af9; stroke-width:6.4; stroke-opacity:1"/>
<line clip-path="url(#clip732)" x1="877.895" y1="523.913" x2="826.695" y2="523.913" style="stroke:#009af9; stroke-width:6.4; stroke-opacity:1"/>
<line clip-path="url(#clip732)" x1="698.407" y1="560.857" x2="647.207" y2="560.857" style="stroke:#009af9; stroke-width:6.4; stroke-opacity:1"/>
<line clip-path="url(#clip732)" x1="698.407" y1="393.499" x2="647.207" y2="393.499" style="stroke:#009af9; stroke-width:6.4; stroke-opacity:1"/>
<line clip-path="url(#clip732)" x1="555.939" y1="730.616" x2="504.739" y2="730.616" style="stroke:#009af9; stroke-width:6.4; stroke-opacity:1"/>
<line clip-path="url(#clip732)" x1="555.939" y1="482.729" x2="504.739" y2="482.729" style="stroke:#009af9; stroke-width:6.4; stroke-opacity:1"/>
</svg>
